%TF.GenerationSoftware,KiCad,Pcbnew,9.0.1*%
%TF.CreationDate,2025-04-21T16:50:23+01:00*%
%TF.ProjectId,PCB_ControlLamparasSonido,5043425f-436f-46e7-9472-6f6c4c616d70,rev?*%
%TF.SameCoordinates,Original*%
%TF.FileFunction,Copper,L2,Bot*%
%TF.FilePolarity,Positive*%
%FSLAX46Y46*%
G04 Gerber Fmt 4.6, Leading zero omitted, Abs format (unit mm)*
G04 Created by KiCad (PCBNEW 9.0.1) date 2025-04-21 16:50:23*
%MOMM*%
%LPD*%
G01*
G04 APERTURE LIST*
%ADD10C,0.100000*%
%ADD11C,0.150000*%
%ADD12C,0.300000*%
%ADD13C,0.400000*%
%TA.AperFunction,ComponentPad*%
%ADD14R,2.000000X1.905000*%
%TD*%
%TA.AperFunction,ComponentPad*%
%ADD15O,2.000000X1.905000*%
%TD*%
%TA.AperFunction,ComponentPad*%
%ADD16C,3.500000*%
%TD*%
%TA.AperFunction,ComponentPad*%
%ADD17R,1.500000X1.050000*%
%TD*%
%TA.AperFunction,ComponentPad*%
%ADD18O,1.500000X1.050000*%
%TD*%
%TA.AperFunction,ComponentPad*%
%ADD19R,1.378000X1.378000*%
%TD*%
%TA.AperFunction,ComponentPad*%
%ADD20C,1.378000*%
%TD*%
%TA.AperFunction,ComponentPad*%
%ADD21R,1.650000X1.650000*%
%TD*%
%TA.AperFunction,ComponentPad*%
%ADD22C,1.650000*%
%TD*%
%TA.AperFunction,ComponentPad*%
%ADD23R,2.200000X2.200000*%
%TD*%
%TA.AperFunction,ComponentPad*%
%ADD24O,2.200000X2.200000*%
%TD*%
%TA.AperFunction,ComponentPad*%
%ADD25R,1.600000X1.600000*%
%TD*%
%TA.AperFunction,ComponentPad*%
%ADD26C,1.600000*%
%TD*%
%TA.AperFunction,ComponentPad*%
%ADD27O,1.600000X1.600000*%
%TD*%
%TA.AperFunction,ComponentPad*%
%ADD28C,2.400000*%
%TD*%
%TA.AperFunction,ComponentPad*%
%ADD29O,2.400000X2.400000*%
%TD*%
%TA.AperFunction,ComponentPad*%
%ADD30R,1.050000X1.500000*%
%TD*%
%TA.AperFunction,ComponentPad*%
%ADD31O,1.050000X1.500000*%
%TD*%
%TA.AperFunction,ViaPad*%
%ADD32C,0.600000*%
%TD*%
%TA.AperFunction,Conductor*%
%ADD33C,0.300000*%
%TD*%
G04 APERTURE END LIST*
D10*
D11*
X177002200Y-166007200D02*
X285002200Y-166007200D01*
X285002200Y-198007200D01*
X177002200Y-198007200D01*
X177002200Y-166007200D01*
D10*
D11*
X10000000Y-10000000D02*
X287002200Y-10000000D01*
X287002200Y-200007200D01*
X10000000Y-200007200D01*
X10000000Y-10000000D01*
D10*
D11*
X12000000Y-12000000D02*
X285002200Y-12000000D01*
X285002200Y-198007200D01*
X12000000Y-198007200D01*
X12000000Y-12000000D01*
D10*
D11*
X60000000Y-12000000D02*
X60000000Y-10000000D01*
D10*
D11*
X110000000Y-12000000D02*
X110000000Y-10000000D01*
D10*
D11*
X160000000Y-12000000D02*
X160000000Y-10000000D01*
D10*
D11*
X210000000Y-12000000D02*
X210000000Y-10000000D01*
D10*
D11*
X260000000Y-12000000D02*
X260000000Y-10000000D01*
D10*
D11*
X36089160Y-11593604D02*
X35346303Y-11593604D01*
X35717731Y-11593604D02*
X35717731Y-10293604D01*
X35717731Y-10293604D02*
X35593922Y-10479319D01*
X35593922Y-10479319D02*
X35470112Y-10603128D01*
X35470112Y-10603128D02*
X35346303Y-10665033D01*
D10*
D11*
X85346303Y-10417414D02*
X85408207Y-10355509D01*
X85408207Y-10355509D02*
X85532017Y-10293604D01*
X85532017Y-10293604D02*
X85841541Y-10293604D01*
X85841541Y-10293604D02*
X85965350Y-10355509D01*
X85965350Y-10355509D02*
X86027255Y-10417414D01*
X86027255Y-10417414D02*
X86089160Y-10541223D01*
X86089160Y-10541223D02*
X86089160Y-10665033D01*
X86089160Y-10665033D02*
X86027255Y-10850747D01*
X86027255Y-10850747D02*
X85284398Y-11593604D01*
X85284398Y-11593604D02*
X86089160Y-11593604D01*
D10*
D11*
X135284398Y-10293604D02*
X136089160Y-10293604D01*
X136089160Y-10293604D02*
X135655826Y-10788842D01*
X135655826Y-10788842D02*
X135841541Y-10788842D01*
X135841541Y-10788842D02*
X135965350Y-10850747D01*
X135965350Y-10850747D02*
X136027255Y-10912652D01*
X136027255Y-10912652D02*
X136089160Y-11036461D01*
X136089160Y-11036461D02*
X136089160Y-11345985D01*
X136089160Y-11345985D02*
X136027255Y-11469795D01*
X136027255Y-11469795D02*
X135965350Y-11531700D01*
X135965350Y-11531700D02*
X135841541Y-11593604D01*
X135841541Y-11593604D02*
X135470112Y-11593604D01*
X135470112Y-11593604D02*
X135346303Y-11531700D01*
X135346303Y-11531700D02*
X135284398Y-11469795D01*
D10*
D11*
X185965350Y-10726938D02*
X185965350Y-11593604D01*
X185655826Y-10231700D02*
X185346303Y-11160271D01*
X185346303Y-11160271D02*
X186151064Y-11160271D01*
D10*
D11*
X236027255Y-10293604D02*
X235408207Y-10293604D01*
X235408207Y-10293604D02*
X235346303Y-10912652D01*
X235346303Y-10912652D02*
X235408207Y-10850747D01*
X235408207Y-10850747D02*
X235532017Y-10788842D01*
X235532017Y-10788842D02*
X235841541Y-10788842D01*
X235841541Y-10788842D02*
X235965350Y-10850747D01*
X235965350Y-10850747D02*
X236027255Y-10912652D01*
X236027255Y-10912652D02*
X236089160Y-11036461D01*
X236089160Y-11036461D02*
X236089160Y-11345985D01*
X236089160Y-11345985D02*
X236027255Y-11469795D01*
X236027255Y-11469795D02*
X235965350Y-11531700D01*
X235965350Y-11531700D02*
X235841541Y-11593604D01*
X235841541Y-11593604D02*
X235532017Y-11593604D01*
X235532017Y-11593604D02*
X235408207Y-11531700D01*
X235408207Y-11531700D02*
X235346303Y-11469795D01*
D10*
D11*
X285965350Y-10293604D02*
X285717731Y-10293604D01*
X285717731Y-10293604D02*
X285593922Y-10355509D01*
X285593922Y-10355509D02*
X285532017Y-10417414D01*
X285532017Y-10417414D02*
X285408207Y-10603128D01*
X285408207Y-10603128D02*
X285346303Y-10850747D01*
X285346303Y-10850747D02*
X285346303Y-11345985D01*
X285346303Y-11345985D02*
X285408207Y-11469795D01*
X285408207Y-11469795D02*
X285470112Y-11531700D01*
X285470112Y-11531700D02*
X285593922Y-11593604D01*
X285593922Y-11593604D02*
X285841541Y-11593604D01*
X285841541Y-11593604D02*
X285965350Y-11531700D01*
X285965350Y-11531700D02*
X286027255Y-11469795D01*
X286027255Y-11469795D02*
X286089160Y-11345985D01*
X286089160Y-11345985D02*
X286089160Y-11036461D01*
X286089160Y-11036461D02*
X286027255Y-10912652D01*
X286027255Y-10912652D02*
X285965350Y-10850747D01*
X285965350Y-10850747D02*
X285841541Y-10788842D01*
X285841541Y-10788842D02*
X285593922Y-10788842D01*
X285593922Y-10788842D02*
X285470112Y-10850747D01*
X285470112Y-10850747D02*
X285408207Y-10912652D01*
X285408207Y-10912652D02*
X285346303Y-11036461D01*
D10*
D11*
X60000000Y-198007200D02*
X60000000Y-200007200D01*
D10*
D11*
X110000000Y-198007200D02*
X110000000Y-200007200D01*
D10*
D11*
X160000000Y-198007200D02*
X160000000Y-200007200D01*
D10*
D11*
X210000000Y-198007200D02*
X210000000Y-200007200D01*
D10*
D11*
X260000000Y-198007200D02*
X260000000Y-200007200D01*
D10*
D11*
X36089160Y-199600804D02*
X35346303Y-199600804D01*
X35717731Y-199600804D02*
X35717731Y-198300804D01*
X35717731Y-198300804D02*
X35593922Y-198486519D01*
X35593922Y-198486519D02*
X35470112Y-198610328D01*
X35470112Y-198610328D02*
X35346303Y-198672233D01*
D10*
D11*
X85346303Y-198424614D02*
X85408207Y-198362709D01*
X85408207Y-198362709D02*
X85532017Y-198300804D01*
X85532017Y-198300804D02*
X85841541Y-198300804D01*
X85841541Y-198300804D02*
X85965350Y-198362709D01*
X85965350Y-198362709D02*
X86027255Y-198424614D01*
X86027255Y-198424614D02*
X86089160Y-198548423D01*
X86089160Y-198548423D02*
X86089160Y-198672233D01*
X86089160Y-198672233D02*
X86027255Y-198857947D01*
X86027255Y-198857947D02*
X85284398Y-199600804D01*
X85284398Y-199600804D02*
X86089160Y-199600804D01*
D10*
D11*
X135284398Y-198300804D02*
X136089160Y-198300804D01*
X136089160Y-198300804D02*
X135655826Y-198796042D01*
X135655826Y-198796042D02*
X135841541Y-198796042D01*
X135841541Y-198796042D02*
X135965350Y-198857947D01*
X135965350Y-198857947D02*
X136027255Y-198919852D01*
X136027255Y-198919852D02*
X136089160Y-199043661D01*
X136089160Y-199043661D02*
X136089160Y-199353185D01*
X136089160Y-199353185D02*
X136027255Y-199476995D01*
X136027255Y-199476995D02*
X135965350Y-199538900D01*
X135965350Y-199538900D02*
X135841541Y-199600804D01*
X135841541Y-199600804D02*
X135470112Y-199600804D01*
X135470112Y-199600804D02*
X135346303Y-199538900D01*
X135346303Y-199538900D02*
X135284398Y-199476995D01*
D10*
D11*
X185965350Y-198734138D02*
X185965350Y-199600804D01*
X185655826Y-198238900D02*
X185346303Y-199167471D01*
X185346303Y-199167471D02*
X186151064Y-199167471D01*
D10*
D11*
X236027255Y-198300804D02*
X235408207Y-198300804D01*
X235408207Y-198300804D02*
X235346303Y-198919852D01*
X235346303Y-198919852D02*
X235408207Y-198857947D01*
X235408207Y-198857947D02*
X235532017Y-198796042D01*
X235532017Y-198796042D02*
X235841541Y-198796042D01*
X235841541Y-198796042D02*
X235965350Y-198857947D01*
X235965350Y-198857947D02*
X236027255Y-198919852D01*
X236027255Y-198919852D02*
X236089160Y-199043661D01*
X236089160Y-199043661D02*
X236089160Y-199353185D01*
X236089160Y-199353185D02*
X236027255Y-199476995D01*
X236027255Y-199476995D02*
X235965350Y-199538900D01*
X235965350Y-199538900D02*
X235841541Y-199600804D01*
X235841541Y-199600804D02*
X235532017Y-199600804D01*
X235532017Y-199600804D02*
X235408207Y-199538900D01*
X235408207Y-199538900D02*
X235346303Y-199476995D01*
D10*
D11*
X285965350Y-198300804D02*
X285717731Y-198300804D01*
X285717731Y-198300804D02*
X285593922Y-198362709D01*
X285593922Y-198362709D02*
X285532017Y-198424614D01*
X285532017Y-198424614D02*
X285408207Y-198610328D01*
X285408207Y-198610328D02*
X285346303Y-198857947D01*
X285346303Y-198857947D02*
X285346303Y-199353185D01*
X285346303Y-199353185D02*
X285408207Y-199476995D01*
X285408207Y-199476995D02*
X285470112Y-199538900D01*
X285470112Y-199538900D02*
X285593922Y-199600804D01*
X285593922Y-199600804D02*
X285841541Y-199600804D01*
X285841541Y-199600804D02*
X285965350Y-199538900D01*
X285965350Y-199538900D02*
X286027255Y-199476995D01*
X286027255Y-199476995D02*
X286089160Y-199353185D01*
X286089160Y-199353185D02*
X286089160Y-199043661D01*
X286089160Y-199043661D02*
X286027255Y-198919852D01*
X286027255Y-198919852D02*
X285965350Y-198857947D01*
X285965350Y-198857947D02*
X285841541Y-198796042D01*
X285841541Y-198796042D02*
X285593922Y-198796042D01*
X285593922Y-198796042D02*
X285470112Y-198857947D01*
X285470112Y-198857947D02*
X285408207Y-198919852D01*
X285408207Y-198919852D02*
X285346303Y-199043661D01*
D10*
D11*
X10000000Y-60000000D02*
X12000000Y-60000000D01*
D10*
D11*
X10000000Y-110000000D02*
X12000000Y-110000000D01*
D10*
D11*
X10000000Y-160000000D02*
X12000000Y-160000000D01*
D10*
D11*
X10690476Y-35222176D02*
X11309523Y-35222176D01*
X10566666Y-35593604D02*
X10999999Y-34293604D01*
X10999999Y-34293604D02*
X11433333Y-35593604D01*
D10*
D11*
X11092857Y-84912652D02*
X11278571Y-84974557D01*
X11278571Y-84974557D02*
X11340476Y-85036461D01*
X11340476Y-85036461D02*
X11402380Y-85160271D01*
X11402380Y-85160271D02*
X11402380Y-85345985D01*
X11402380Y-85345985D02*
X11340476Y-85469795D01*
X11340476Y-85469795D02*
X11278571Y-85531700D01*
X11278571Y-85531700D02*
X11154761Y-85593604D01*
X11154761Y-85593604D02*
X10659523Y-85593604D01*
X10659523Y-85593604D02*
X10659523Y-84293604D01*
X10659523Y-84293604D02*
X11092857Y-84293604D01*
X11092857Y-84293604D02*
X11216666Y-84355509D01*
X11216666Y-84355509D02*
X11278571Y-84417414D01*
X11278571Y-84417414D02*
X11340476Y-84541223D01*
X11340476Y-84541223D02*
X11340476Y-84665033D01*
X11340476Y-84665033D02*
X11278571Y-84788842D01*
X11278571Y-84788842D02*
X11216666Y-84850747D01*
X11216666Y-84850747D02*
X11092857Y-84912652D01*
X11092857Y-84912652D02*
X10659523Y-84912652D01*
D10*
D11*
X11402380Y-135469795D02*
X11340476Y-135531700D01*
X11340476Y-135531700D02*
X11154761Y-135593604D01*
X11154761Y-135593604D02*
X11030952Y-135593604D01*
X11030952Y-135593604D02*
X10845238Y-135531700D01*
X10845238Y-135531700D02*
X10721428Y-135407890D01*
X10721428Y-135407890D02*
X10659523Y-135284080D01*
X10659523Y-135284080D02*
X10597619Y-135036461D01*
X10597619Y-135036461D02*
X10597619Y-134850747D01*
X10597619Y-134850747D02*
X10659523Y-134603128D01*
X10659523Y-134603128D02*
X10721428Y-134479319D01*
X10721428Y-134479319D02*
X10845238Y-134355509D01*
X10845238Y-134355509D02*
X11030952Y-134293604D01*
X11030952Y-134293604D02*
X11154761Y-134293604D01*
X11154761Y-134293604D02*
X11340476Y-134355509D01*
X11340476Y-134355509D02*
X11402380Y-134417414D01*
D10*
D11*
X10659523Y-185593604D02*
X10659523Y-184293604D01*
X10659523Y-184293604D02*
X10969047Y-184293604D01*
X10969047Y-184293604D02*
X11154761Y-184355509D01*
X11154761Y-184355509D02*
X11278571Y-184479319D01*
X11278571Y-184479319D02*
X11340476Y-184603128D01*
X11340476Y-184603128D02*
X11402380Y-184850747D01*
X11402380Y-184850747D02*
X11402380Y-185036461D01*
X11402380Y-185036461D02*
X11340476Y-185284080D01*
X11340476Y-185284080D02*
X11278571Y-185407890D01*
X11278571Y-185407890D02*
X11154761Y-185531700D01*
X11154761Y-185531700D02*
X10969047Y-185593604D01*
X10969047Y-185593604D02*
X10659523Y-185593604D01*
D10*
D11*
X287002200Y-60000000D02*
X285002200Y-60000000D01*
D10*
D11*
X287002200Y-110000000D02*
X285002200Y-110000000D01*
D10*
D11*
X287002200Y-160000000D02*
X285002200Y-160000000D01*
D10*
D11*
X285692676Y-35222176D02*
X286311723Y-35222176D01*
X285568866Y-35593604D02*
X286002199Y-34293604D01*
X286002199Y-34293604D02*
X286435533Y-35593604D01*
D10*
D11*
X286095057Y-84912652D02*
X286280771Y-84974557D01*
X286280771Y-84974557D02*
X286342676Y-85036461D01*
X286342676Y-85036461D02*
X286404580Y-85160271D01*
X286404580Y-85160271D02*
X286404580Y-85345985D01*
X286404580Y-85345985D02*
X286342676Y-85469795D01*
X286342676Y-85469795D02*
X286280771Y-85531700D01*
X286280771Y-85531700D02*
X286156961Y-85593604D01*
X286156961Y-85593604D02*
X285661723Y-85593604D01*
X285661723Y-85593604D02*
X285661723Y-84293604D01*
X285661723Y-84293604D02*
X286095057Y-84293604D01*
X286095057Y-84293604D02*
X286218866Y-84355509D01*
X286218866Y-84355509D02*
X286280771Y-84417414D01*
X286280771Y-84417414D02*
X286342676Y-84541223D01*
X286342676Y-84541223D02*
X286342676Y-84665033D01*
X286342676Y-84665033D02*
X286280771Y-84788842D01*
X286280771Y-84788842D02*
X286218866Y-84850747D01*
X286218866Y-84850747D02*
X286095057Y-84912652D01*
X286095057Y-84912652D02*
X285661723Y-84912652D01*
D10*
D11*
X286404580Y-135469795D02*
X286342676Y-135531700D01*
X286342676Y-135531700D02*
X286156961Y-135593604D01*
X286156961Y-135593604D02*
X286033152Y-135593604D01*
X286033152Y-135593604D02*
X285847438Y-135531700D01*
X285847438Y-135531700D02*
X285723628Y-135407890D01*
X285723628Y-135407890D02*
X285661723Y-135284080D01*
X285661723Y-135284080D02*
X285599819Y-135036461D01*
X285599819Y-135036461D02*
X285599819Y-134850747D01*
X285599819Y-134850747D02*
X285661723Y-134603128D01*
X285661723Y-134603128D02*
X285723628Y-134479319D01*
X285723628Y-134479319D02*
X285847438Y-134355509D01*
X285847438Y-134355509D02*
X286033152Y-134293604D01*
X286033152Y-134293604D02*
X286156961Y-134293604D01*
X286156961Y-134293604D02*
X286342676Y-134355509D01*
X286342676Y-134355509D02*
X286404580Y-134417414D01*
D10*
D11*
X285661723Y-185593604D02*
X285661723Y-184293604D01*
X285661723Y-184293604D02*
X285971247Y-184293604D01*
X285971247Y-184293604D02*
X286156961Y-184355509D01*
X286156961Y-184355509D02*
X286280771Y-184479319D01*
X286280771Y-184479319D02*
X286342676Y-184603128D01*
X286342676Y-184603128D02*
X286404580Y-184850747D01*
X286404580Y-184850747D02*
X286404580Y-185036461D01*
X286404580Y-185036461D02*
X286342676Y-185284080D01*
X286342676Y-185284080D02*
X286280771Y-185407890D01*
X286280771Y-185407890D02*
X286156961Y-185531700D01*
X286156961Y-185531700D02*
X285971247Y-185593604D01*
X285971247Y-185593604D02*
X285661723Y-185593604D01*
D10*
D11*
X200458026Y-193793328D02*
X200458026Y-192293328D01*
X200458026Y-192293328D02*
X200815169Y-192293328D01*
X200815169Y-192293328D02*
X201029455Y-192364757D01*
X201029455Y-192364757D02*
X201172312Y-192507614D01*
X201172312Y-192507614D02*
X201243741Y-192650471D01*
X201243741Y-192650471D02*
X201315169Y-192936185D01*
X201315169Y-192936185D02*
X201315169Y-193150471D01*
X201315169Y-193150471D02*
X201243741Y-193436185D01*
X201243741Y-193436185D02*
X201172312Y-193579042D01*
X201172312Y-193579042D02*
X201029455Y-193721900D01*
X201029455Y-193721900D02*
X200815169Y-193793328D01*
X200815169Y-193793328D02*
X200458026Y-193793328D01*
X202600884Y-193793328D02*
X202600884Y-193007614D01*
X202600884Y-193007614D02*
X202529455Y-192864757D01*
X202529455Y-192864757D02*
X202386598Y-192793328D01*
X202386598Y-192793328D02*
X202100884Y-192793328D01*
X202100884Y-192793328D02*
X201958026Y-192864757D01*
X202600884Y-193721900D02*
X202458026Y-193793328D01*
X202458026Y-193793328D02*
X202100884Y-193793328D01*
X202100884Y-193793328D02*
X201958026Y-193721900D01*
X201958026Y-193721900D02*
X201886598Y-193579042D01*
X201886598Y-193579042D02*
X201886598Y-193436185D01*
X201886598Y-193436185D02*
X201958026Y-193293328D01*
X201958026Y-193293328D02*
X202100884Y-193221900D01*
X202100884Y-193221900D02*
X202458026Y-193221900D01*
X202458026Y-193221900D02*
X202600884Y-193150471D01*
X203100884Y-192793328D02*
X203672312Y-192793328D01*
X203315169Y-192293328D02*
X203315169Y-193579042D01*
X203315169Y-193579042D02*
X203386598Y-193721900D01*
X203386598Y-193721900D02*
X203529455Y-193793328D01*
X203529455Y-193793328D02*
X203672312Y-193793328D01*
X204743741Y-193721900D02*
X204600884Y-193793328D01*
X204600884Y-193793328D02*
X204315170Y-193793328D01*
X204315170Y-193793328D02*
X204172312Y-193721900D01*
X204172312Y-193721900D02*
X204100884Y-193579042D01*
X204100884Y-193579042D02*
X204100884Y-193007614D01*
X204100884Y-193007614D02*
X204172312Y-192864757D01*
X204172312Y-192864757D02*
X204315170Y-192793328D01*
X204315170Y-192793328D02*
X204600884Y-192793328D01*
X204600884Y-192793328D02*
X204743741Y-192864757D01*
X204743741Y-192864757D02*
X204815170Y-193007614D01*
X204815170Y-193007614D02*
X204815170Y-193150471D01*
X204815170Y-193150471D02*
X204100884Y-193293328D01*
X205458026Y-193650471D02*
X205529455Y-193721900D01*
X205529455Y-193721900D02*
X205458026Y-193793328D01*
X205458026Y-193793328D02*
X205386598Y-193721900D01*
X205386598Y-193721900D02*
X205458026Y-193650471D01*
X205458026Y-193650471D02*
X205458026Y-193793328D01*
X205458026Y-192864757D02*
X205529455Y-192936185D01*
X205529455Y-192936185D02*
X205458026Y-193007614D01*
X205458026Y-193007614D02*
X205386598Y-192936185D01*
X205386598Y-192936185D02*
X205458026Y-192864757D01*
X205458026Y-192864757D02*
X205458026Y-193007614D01*
D10*
D11*
X177002200Y-194507200D02*
X285002200Y-194507200D01*
D10*
D11*
X178458026Y-196593328D02*
X178458026Y-195093328D01*
X179315169Y-196593328D02*
X178672312Y-195736185D01*
X179315169Y-195093328D02*
X178458026Y-195950471D01*
X179958026Y-196593328D02*
X179958026Y-195593328D01*
X179958026Y-195093328D02*
X179886598Y-195164757D01*
X179886598Y-195164757D02*
X179958026Y-195236185D01*
X179958026Y-195236185D02*
X180029455Y-195164757D01*
X180029455Y-195164757D02*
X179958026Y-195093328D01*
X179958026Y-195093328D02*
X179958026Y-195236185D01*
X181529455Y-196450471D02*
X181458027Y-196521900D01*
X181458027Y-196521900D02*
X181243741Y-196593328D01*
X181243741Y-196593328D02*
X181100884Y-196593328D01*
X181100884Y-196593328D02*
X180886598Y-196521900D01*
X180886598Y-196521900D02*
X180743741Y-196379042D01*
X180743741Y-196379042D02*
X180672312Y-196236185D01*
X180672312Y-196236185D02*
X180600884Y-195950471D01*
X180600884Y-195950471D02*
X180600884Y-195736185D01*
X180600884Y-195736185D02*
X180672312Y-195450471D01*
X180672312Y-195450471D02*
X180743741Y-195307614D01*
X180743741Y-195307614D02*
X180886598Y-195164757D01*
X180886598Y-195164757D02*
X181100884Y-195093328D01*
X181100884Y-195093328D02*
X181243741Y-195093328D01*
X181243741Y-195093328D02*
X181458027Y-195164757D01*
X181458027Y-195164757D02*
X181529455Y-195236185D01*
X182815170Y-196593328D02*
X182815170Y-195807614D01*
X182815170Y-195807614D02*
X182743741Y-195664757D01*
X182743741Y-195664757D02*
X182600884Y-195593328D01*
X182600884Y-195593328D02*
X182315170Y-195593328D01*
X182315170Y-195593328D02*
X182172312Y-195664757D01*
X182815170Y-196521900D02*
X182672312Y-196593328D01*
X182672312Y-196593328D02*
X182315170Y-196593328D01*
X182315170Y-196593328D02*
X182172312Y-196521900D01*
X182172312Y-196521900D02*
X182100884Y-196379042D01*
X182100884Y-196379042D02*
X182100884Y-196236185D01*
X182100884Y-196236185D02*
X182172312Y-196093328D01*
X182172312Y-196093328D02*
X182315170Y-196021900D01*
X182315170Y-196021900D02*
X182672312Y-196021900D01*
X182672312Y-196021900D02*
X182815170Y-195950471D01*
X184172313Y-196593328D02*
X184172313Y-195093328D01*
X184172313Y-196521900D02*
X184029455Y-196593328D01*
X184029455Y-196593328D02*
X183743741Y-196593328D01*
X183743741Y-196593328D02*
X183600884Y-196521900D01*
X183600884Y-196521900D02*
X183529455Y-196450471D01*
X183529455Y-196450471D02*
X183458027Y-196307614D01*
X183458027Y-196307614D02*
X183458027Y-195879042D01*
X183458027Y-195879042D02*
X183529455Y-195736185D01*
X183529455Y-195736185D02*
X183600884Y-195664757D01*
X183600884Y-195664757D02*
X183743741Y-195593328D01*
X183743741Y-195593328D02*
X184029455Y-195593328D01*
X184029455Y-195593328D02*
X184172313Y-195664757D01*
X186029455Y-195807614D02*
X186529455Y-195807614D01*
X186743741Y-196593328D02*
X186029455Y-196593328D01*
X186029455Y-196593328D02*
X186029455Y-195093328D01*
X186029455Y-195093328D02*
X186743741Y-195093328D01*
X187386598Y-196450471D02*
X187458027Y-196521900D01*
X187458027Y-196521900D02*
X187386598Y-196593328D01*
X187386598Y-196593328D02*
X187315170Y-196521900D01*
X187315170Y-196521900D02*
X187386598Y-196450471D01*
X187386598Y-196450471D02*
X187386598Y-196593328D01*
X188100884Y-196593328D02*
X188100884Y-195093328D01*
X188100884Y-195093328D02*
X188458027Y-195093328D01*
X188458027Y-195093328D02*
X188672313Y-195164757D01*
X188672313Y-195164757D02*
X188815170Y-195307614D01*
X188815170Y-195307614D02*
X188886599Y-195450471D01*
X188886599Y-195450471D02*
X188958027Y-195736185D01*
X188958027Y-195736185D02*
X188958027Y-195950471D01*
X188958027Y-195950471D02*
X188886599Y-196236185D01*
X188886599Y-196236185D02*
X188815170Y-196379042D01*
X188815170Y-196379042D02*
X188672313Y-196521900D01*
X188672313Y-196521900D02*
X188458027Y-196593328D01*
X188458027Y-196593328D02*
X188100884Y-196593328D01*
X189600884Y-196450471D02*
X189672313Y-196521900D01*
X189672313Y-196521900D02*
X189600884Y-196593328D01*
X189600884Y-196593328D02*
X189529456Y-196521900D01*
X189529456Y-196521900D02*
X189600884Y-196450471D01*
X189600884Y-196450471D02*
X189600884Y-196593328D01*
X190243742Y-196164757D02*
X190958028Y-196164757D01*
X190100885Y-196593328D02*
X190600885Y-195093328D01*
X190600885Y-195093328D02*
X191100885Y-196593328D01*
X191600884Y-196450471D02*
X191672313Y-196521900D01*
X191672313Y-196521900D02*
X191600884Y-196593328D01*
X191600884Y-196593328D02*
X191529456Y-196521900D01*
X191529456Y-196521900D02*
X191600884Y-196450471D01*
X191600884Y-196450471D02*
X191600884Y-196593328D01*
X193529456Y-196593328D02*
X193815170Y-196593328D01*
X193815170Y-196593328D02*
X193958027Y-196521900D01*
X193958027Y-196521900D02*
X194029456Y-196450471D01*
X194029456Y-196450471D02*
X194172313Y-196236185D01*
X194172313Y-196236185D02*
X194243742Y-195950471D01*
X194243742Y-195950471D02*
X194243742Y-195379042D01*
X194243742Y-195379042D02*
X194172313Y-195236185D01*
X194172313Y-195236185D02*
X194100885Y-195164757D01*
X194100885Y-195164757D02*
X193958027Y-195093328D01*
X193958027Y-195093328D02*
X193672313Y-195093328D01*
X193672313Y-195093328D02*
X193529456Y-195164757D01*
X193529456Y-195164757D02*
X193458027Y-195236185D01*
X193458027Y-195236185D02*
X193386599Y-195379042D01*
X193386599Y-195379042D02*
X193386599Y-195736185D01*
X193386599Y-195736185D02*
X193458027Y-195879042D01*
X193458027Y-195879042D02*
X193529456Y-195950471D01*
X193529456Y-195950471D02*
X193672313Y-196021900D01*
X193672313Y-196021900D02*
X193958027Y-196021900D01*
X193958027Y-196021900D02*
X194100885Y-195950471D01*
X194100885Y-195950471D02*
X194172313Y-195879042D01*
X194172313Y-195879042D02*
X194243742Y-195736185D01*
X194886598Y-196450471D02*
X194958027Y-196521900D01*
X194958027Y-196521900D02*
X194886598Y-196593328D01*
X194886598Y-196593328D02*
X194815170Y-196521900D01*
X194815170Y-196521900D02*
X194886598Y-196450471D01*
X194886598Y-196450471D02*
X194886598Y-196593328D01*
X195886599Y-195093328D02*
X196029456Y-195093328D01*
X196029456Y-195093328D02*
X196172313Y-195164757D01*
X196172313Y-195164757D02*
X196243742Y-195236185D01*
X196243742Y-195236185D02*
X196315170Y-195379042D01*
X196315170Y-195379042D02*
X196386599Y-195664757D01*
X196386599Y-195664757D02*
X196386599Y-196021900D01*
X196386599Y-196021900D02*
X196315170Y-196307614D01*
X196315170Y-196307614D02*
X196243742Y-196450471D01*
X196243742Y-196450471D02*
X196172313Y-196521900D01*
X196172313Y-196521900D02*
X196029456Y-196593328D01*
X196029456Y-196593328D02*
X195886599Y-196593328D01*
X195886599Y-196593328D02*
X195743742Y-196521900D01*
X195743742Y-196521900D02*
X195672313Y-196450471D01*
X195672313Y-196450471D02*
X195600884Y-196307614D01*
X195600884Y-196307614D02*
X195529456Y-196021900D01*
X195529456Y-196021900D02*
X195529456Y-195664757D01*
X195529456Y-195664757D02*
X195600884Y-195379042D01*
X195600884Y-195379042D02*
X195672313Y-195236185D01*
X195672313Y-195236185D02*
X195743742Y-195164757D01*
X195743742Y-195164757D02*
X195886599Y-195093328D01*
X197029455Y-196450471D02*
X197100884Y-196521900D01*
X197100884Y-196521900D02*
X197029455Y-196593328D01*
X197029455Y-196593328D02*
X196958027Y-196521900D01*
X196958027Y-196521900D02*
X197029455Y-196450471D01*
X197029455Y-196450471D02*
X197029455Y-196593328D01*
X198529456Y-196593328D02*
X197672313Y-196593328D01*
X198100884Y-196593328D02*
X198100884Y-195093328D01*
X198100884Y-195093328D02*
X197958027Y-195307614D01*
X197958027Y-195307614D02*
X197815170Y-195450471D01*
X197815170Y-195450471D02*
X197672313Y-195521900D01*
D10*
D11*
X177002200Y-191507200D02*
X285002200Y-191507200D01*
D10*
D12*
X264413853Y-193785528D02*
X263913853Y-193071242D01*
X263556710Y-193785528D02*
X263556710Y-192285528D01*
X263556710Y-192285528D02*
X264128139Y-192285528D01*
X264128139Y-192285528D02*
X264270996Y-192356957D01*
X264270996Y-192356957D02*
X264342425Y-192428385D01*
X264342425Y-192428385D02*
X264413853Y-192571242D01*
X264413853Y-192571242D02*
X264413853Y-192785528D01*
X264413853Y-192785528D02*
X264342425Y-192928385D01*
X264342425Y-192928385D02*
X264270996Y-192999814D01*
X264270996Y-192999814D02*
X264128139Y-193071242D01*
X264128139Y-193071242D02*
X263556710Y-193071242D01*
X265628139Y-193714100D02*
X265485282Y-193785528D01*
X265485282Y-193785528D02*
X265199568Y-193785528D01*
X265199568Y-193785528D02*
X265056710Y-193714100D01*
X265056710Y-193714100D02*
X264985282Y-193571242D01*
X264985282Y-193571242D02*
X264985282Y-192999814D01*
X264985282Y-192999814D02*
X265056710Y-192856957D01*
X265056710Y-192856957D02*
X265199568Y-192785528D01*
X265199568Y-192785528D02*
X265485282Y-192785528D01*
X265485282Y-192785528D02*
X265628139Y-192856957D01*
X265628139Y-192856957D02*
X265699568Y-192999814D01*
X265699568Y-192999814D02*
X265699568Y-193142671D01*
X265699568Y-193142671D02*
X264985282Y-193285528D01*
X266199567Y-192785528D02*
X266556710Y-193785528D01*
X266556710Y-193785528D02*
X266913853Y-192785528D01*
X267485281Y-193642671D02*
X267556710Y-193714100D01*
X267556710Y-193714100D02*
X267485281Y-193785528D01*
X267485281Y-193785528D02*
X267413853Y-193714100D01*
X267413853Y-193714100D02*
X267485281Y-193642671D01*
X267485281Y-193642671D02*
X267485281Y-193785528D01*
X267485281Y-192856957D02*
X267556710Y-192928385D01*
X267556710Y-192928385D02*
X267485281Y-192999814D01*
X267485281Y-192999814D02*
X267413853Y-192928385D01*
X267413853Y-192928385D02*
X267485281Y-192856957D01*
X267485281Y-192856957D02*
X267485281Y-192999814D01*
D10*
D11*
X178386598Y-193721900D02*
X178600884Y-193793328D01*
X178600884Y-193793328D02*
X178958026Y-193793328D01*
X178958026Y-193793328D02*
X179100884Y-193721900D01*
X179100884Y-193721900D02*
X179172312Y-193650471D01*
X179172312Y-193650471D02*
X179243741Y-193507614D01*
X179243741Y-193507614D02*
X179243741Y-193364757D01*
X179243741Y-193364757D02*
X179172312Y-193221900D01*
X179172312Y-193221900D02*
X179100884Y-193150471D01*
X179100884Y-193150471D02*
X178958026Y-193079042D01*
X178958026Y-193079042D02*
X178672312Y-193007614D01*
X178672312Y-193007614D02*
X178529455Y-192936185D01*
X178529455Y-192936185D02*
X178458026Y-192864757D01*
X178458026Y-192864757D02*
X178386598Y-192721900D01*
X178386598Y-192721900D02*
X178386598Y-192579042D01*
X178386598Y-192579042D02*
X178458026Y-192436185D01*
X178458026Y-192436185D02*
X178529455Y-192364757D01*
X178529455Y-192364757D02*
X178672312Y-192293328D01*
X178672312Y-192293328D02*
X179029455Y-192293328D01*
X179029455Y-192293328D02*
X179243741Y-192364757D01*
X179886597Y-193793328D02*
X179886597Y-192793328D01*
X179886597Y-192293328D02*
X179815169Y-192364757D01*
X179815169Y-192364757D02*
X179886597Y-192436185D01*
X179886597Y-192436185D02*
X179958026Y-192364757D01*
X179958026Y-192364757D02*
X179886597Y-192293328D01*
X179886597Y-192293328D02*
X179886597Y-192436185D01*
X180458026Y-192793328D02*
X181243741Y-192793328D01*
X181243741Y-192793328D02*
X180458026Y-193793328D01*
X180458026Y-193793328D02*
X181243741Y-193793328D01*
X182386598Y-193721900D02*
X182243741Y-193793328D01*
X182243741Y-193793328D02*
X181958027Y-193793328D01*
X181958027Y-193793328D02*
X181815169Y-193721900D01*
X181815169Y-193721900D02*
X181743741Y-193579042D01*
X181743741Y-193579042D02*
X181743741Y-193007614D01*
X181743741Y-193007614D02*
X181815169Y-192864757D01*
X181815169Y-192864757D02*
X181958027Y-192793328D01*
X181958027Y-192793328D02*
X182243741Y-192793328D01*
X182243741Y-192793328D02*
X182386598Y-192864757D01*
X182386598Y-192864757D02*
X182458027Y-193007614D01*
X182458027Y-193007614D02*
X182458027Y-193150471D01*
X182458027Y-193150471D02*
X181743741Y-193293328D01*
X183100883Y-193650471D02*
X183172312Y-193721900D01*
X183172312Y-193721900D02*
X183100883Y-193793328D01*
X183100883Y-193793328D02*
X183029455Y-193721900D01*
X183029455Y-193721900D02*
X183100883Y-193650471D01*
X183100883Y-193650471D02*
X183100883Y-193793328D01*
X183100883Y-192864757D02*
X183172312Y-192936185D01*
X183172312Y-192936185D02*
X183100883Y-193007614D01*
X183100883Y-193007614D02*
X183029455Y-192936185D01*
X183029455Y-192936185D02*
X183100883Y-192864757D01*
X183100883Y-192864757D02*
X183100883Y-193007614D01*
X184886598Y-193364757D02*
X185600884Y-193364757D01*
X184743741Y-193793328D02*
X185243741Y-192293328D01*
X185243741Y-192293328D02*
X185743741Y-193793328D01*
X186886598Y-192793328D02*
X186886598Y-193793328D01*
X186529455Y-192221900D02*
X186172312Y-193293328D01*
X186172312Y-193293328D02*
X187100883Y-193293328D01*
D10*
D11*
X263458026Y-196593328D02*
X263458026Y-195093328D01*
X264815170Y-196593328D02*
X264815170Y-195093328D01*
X264815170Y-196521900D02*
X264672312Y-196593328D01*
X264672312Y-196593328D02*
X264386598Y-196593328D01*
X264386598Y-196593328D02*
X264243741Y-196521900D01*
X264243741Y-196521900D02*
X264172312Y-196450471D01*
X264172312Y-196450471D02*
X264100884Y-196307614D01*
X264100884Y-196307614D02*
X264100884Y-195879042D01*
X264100884Y-195879042D02*
X264172312Y-195736185D01*
X264172312Y-195736185D02*
X264243741Y-195664757D01*
X264243741Y-195664757D02*
X264386598Y-195593328D01*
X264386598Y-195593328D02*
X264672312Y-195593328D01*
X264672312Y-195593328D02*
X264815170Y-195664757D01*
X265529455Y-196450471D02*
X265600884Y-196521900D01*
X265600884Y-196521900D02*
X265529455Y-196593328D01*
X265529455Y-196593328D02*
X265458027Y-196521900D01*
X265458027Y-196521900D02*
X265529455Y-196450471D01*
X265529455Y-196450471D02*
X265529455Y-196593328D01*
X265529455Y-195664757D02*
X265600884Y-195736185D01*
X265600884Y-195736185D02*
X265529455Y-195807614D01*
X265529455Y-195807614D02*
X265458027Y-195736185D01*
X265458027Y-195736185D02*
X265529455Y-195664757D01*
X265529455Y-195664757D02*
X265529455Y-195807614D01*
X267315170Y-195236185D02*
X267386598Y-195164757D01*
X267386598Y-195164757D02*
X267529456Y-195093328D01*
X267529456Y-195093328D02*
X267886598Y-195093328D01*
X267886598Y-195093328D02*
X268029456Y-195164757D01*
X268029456Y-195164757D02*
X268100884Y-195236185D01*
X268100884Y-195236185D02*
X268172313Y-195379042D01*
X268172313Y-195379042D02*
X268172313Y-195521900D01*
X268172313Y-195521900D02*
X268100884Y-195736185D01*
X268100884Y-195736185D02*
X267243741Y-196593328D01*
X267243741Y-196593328D02*
X268172313Y-196593328D01*
X269886598Y-195021900D02*
X268600884Y-196950471D01*
X270458027Y-196593328D02*
X270743741Y-196593328D01*
X270743741Y-196593328D02*
X270886598Y-196521900D01*
X270886598Y-196521900D02*
X270958027Y-196450471D01*
X270958027Y-196450471D02*
X271100884Y-196236185D01*
X271100884Y-196236185D02*
X271172313Y-195950471D01*
X271172313Y-195950471D02*
X271172313Y-195379042D01*
X271172313Y-195379042D02*
X271100884Y-195236185D01*
X271100884Y-195236185D02*
X271029456Y-195164757D01*
X271029456Y-195164757D02*
X270886598Y-195093328D01*
X270886598Y-195093328D02*
X270600884Y-195093328D01*
X270600884Y-195093328D02*
X270458027Y-195164757D01*
X270458027Y-195164757D02*
X270386598Y-195236185D01*
X270386598Y-195236185D02*
X270315170Y-195379042D01*
X270315170Y-195379042D02*
X270315170Y-195736185D01*
X270315170Y-195736185D02*
X270386598Y-195879042D01*
X270386598Y-195879042D02*
X270458027Y-195950471D01*
X270458027Y-195950471D02*
X270600884Y-196021900D01*
X270600884Y-196021900D02*
X270886598Y-196021900D01*
X270886598Y-196021900D02*
X271029456Y-195950471D01*
X271029456Y-195950471D02*
X271100884Y-195879042D01*
X271100884Y-195879042D02*
X271172313Y-195736185D01*
D10*
D11*
X177002200Y-187507200D02*
X285002200Y-187507200D01*
D10*
D13*
X178693928Y-188211638D02*
X179836785Y-188211638D01*
X179015357Y-190211638D02*
X179265357Y-188211638D01*
X180253452Y-190211638D02*
X180420119Y-188878304D01*
X180503452Y-188211638D02*
X180396309Y-188306876D01*
X180396309Y-188306876D02*
X180479643Y-188402114D01*
X180479643Y-188402114D02*
X180586786Y-188306876D01*
X180586786Y-188306876D02*
X180503452Y-188211638D01*
X180503452Y-188211638D02*
X180479643Y-188402114D01*
X181086786Y-188878304D02*
X181848690Y-188878304D01*
X181455833Y-188211638D02*
X181241548Y-189925923D01*
X181241548Y-189925923D02*
X181312976Y-190116400D01*
X181312976Y-190116400D02*
X181491548Y-190211638D01*
X181491548Y-190211638D02*
X181682024Y-190211638D01*
X182634405Y-190211638D02*
X182455833Y-190116400D01*
X182455833Y-190116400D02*
X182384405Y-189925923D01*
X182384405Y-189925923D02*
X182598690Y-188211638D01*
X184170119Y-190116400D02*
X183967738Y-190211638D01*
X183967738Y-190211638D02*
X183586785Y-190211638D01*
X183586785Y-190211638D02*
X183408214Y-190116400D01*
X183408214Y-190116400D02*
X183336785Y-189925923D01*
X183336785Y-189925923D02*
X183432024Y-189164019D01*
X183432024Y-189164019D02*
X183551071Y-188973542D01*
X183551071Y-188973542D02*
X183753452Y-188878304D01*
X183753452Y-188878304D02*
X184134404Y-188878304D01*
X184134404Y-188878304D02*
X184312976Y-188973542D01*
X184312976Y-188973542D02*
X184384404Y-189164019D01*
X184384404Y-189164019D02*
X184360595Y-189354495D01*
X184360595Y-189354495D02*
X183384404Y-189544971D01*
X185134405Y-190021161D02*
X185217738Y-190116400D01*
X185217738Y-190116400D02*
X185110595Y-190211638D01*
X185110595Y-190211638D02*
X185027262Y-190116400D01*
X185027262Y-190116400D02*
X185134405Y-190021161D01*
X185134405Y-190021161D02*
X185110595Y-190211638D01*
X185265357Y-188973542D02*
X185348690Y-189068780D01*
X185348690Y-189068780D02*
X185241548Y-189164019D01*
X185241548Y-189164019D02*
X185158214Y-189068780D01*
X185158214Y-189068780D02*
X185265357Y-188973542D01*
X185265357Y-188973542D02*
X185241548Y-189164019D01*
D10*
D11*
X178958026Y-185607614D02*
X178458026Y-185607614D01*
X178458026Y-186393328D02*
X178458026Y-184893328D01*
X178458026Y-184893328D02*
X179172312Y-184893328D01*
X179743740Y-186393328D02*
X179743740Y-185393328D01*
X179743740Y-184893328D02*
X179672312Y-184964757D01*
X179672312Y-184964757D02*
X179743740Y-185036185D01*
X179743740Y-185036185D02*
X179815169Y-184964757D01*
X179815169Y-184964757D02*
X179743740Y-184893328D01*
X179743740Y-184893328D02*
X179743740Y-185036185D01*
X180672312Y-186393328D02*
X180529455Y-186321900D01*
X180529455Y-186321900D02*
X180458026Y-186179042D01*
X180458026Y-186179042D02*
X180458026Y-184893328D01*
X181815169Y-186321900D02*
X181672312Y-186393328D01*
X181672312Y-186393328D02*
X181386598Y-186393328D01*
X181386598Y-186393328D02*
X181243740Y-186321900D01*
X181243740Y-186321900D02*
X181172312Y-186179042D01*
X181172312Y-186179042D02*
X181172312Y-185607614D01*
X181172312Y-185607614D02*
X181243740Y-185464757D01*
X181243740Y-185464757D02*
X181386598Y-185393328D01*
X181386598Y-185393328D02*
X181672312Y-185393328D01*
X181672312Y-185393328D02*
X181815169Y-185464757D01*
X181815169Y-185464757D02*
X181886598Y-185607614D01*
X181886598Y-185607614D02*
X181886598Y-185750471D01*
X181886598Y-185750471D02*
X181172312Y-185893328D01*
X182529454Y-186250471D02*
X182600883Y-186321900D01*
X182600883Y-186321900D02*
X182529454Y-186393328D01*
X182529454Y-186393328D02*
X182458026Y-186321900D01*
X182458026Y-186321900D02*
X182529454Y-186250471D01*
X182529454Y-186250471D02*
X182529454Y-186393328D01*
X182529454Y-185464757D02*
X182600883Y-185536185D01*
X182600883Y-185536185D02*
X182529454Y-185607614D01*
X182529454Y-185607614D02*
X182458026Y-185536185D01*
X182458026Y-185536185D02*
X182529454Y-185464757D01*
X182529454Y-185464757D02*
X182529454Y-185607614D01*
X184386597Y-186393328D02*
X184386597Y-184893328D01*
X184386597Y-184893328D02*
X184958026Y-184893328D01*
X184958026Y-184893328D02*
X185100883Y-184964757D01*
X185100883Y-184964757D02*
X185172312Y-185036185D01*
X185172312Y-185036185D02*
X185243740Y-185179042D01*
X185243740Y-185179042D02*
X185243740Y-185393328D01*
X185243740Y-185393328D02*
X185172312Y-185536185D01*
X185172312Y-185536185D02*
X185100883Y-185607614D01*
X185100883Y-185607614D02*
X184958026Y-185679042D01*
X184958026Y-185679042D02*
X184386597Y-185679042D01*
X186743740Y-186250471D02*
X186672312Y-186321900D01*
X186672312Y-186321900D02*
X186458026Y-186393328D01*
X186458026Y-186393328D02*
X186315169Y-186393328D01*
X186315169Y-186393328D02*
X186100883Y-186321900D01*
X186100883Y-186321900D02*
X185958026Y-186179042D01*
X185958026Y-186179042D02*
X185886597Y-186036185D01*
X185886597Y-186036185D02*
X185815169Y-185750471D01*
X185815169Y-185750471D02*
X185815169Y-185536185D01*
X185815169Y-185536185D02*
X185886597Y-185250471D01*
X185886597Y-185250471D02*
X185958026Y-185107614D01*
X185958026Y-185107614D02*
X186100883Y-184964757D01*
X186100883Y-184964757D02*
X186315169Y-184893328D01*
X186315169Y-184893328D02*
X186458026Y-184893328D01*
X186458026Y-184893328D02*
X186672312Y-184964757D01*
X186672312Y-184964757D02*
X186743740Y-185036185D01*
X187886597Y-185607614D02*
X188100883Y-185679042D01*
X188100883Y-185679042D02*
X188172312Y-185750471D01*
X188172312Y-185750471D02*
X188243740Y-185893328D01*
X188243740Y-185893328D02*
X188243740Y-186107614D01*
X188243740Y-186107614D02*
X188172312Y-186250471D01*
X188172312Y-186250471D02*
X188100883Y-186321900D01*
X188100883Y-186321900D02*
X187958026Y-186393328D01*
X187958026Y-186393328D02*
X187386597Y-186393328D01*
X187386597Y-186393328D02*
X187386597Y-184893328D01*
X187386597Y-184893328D02*
X187886597Y-184893328D01*
X187886597Y-184893328D02*
X188029455Y-184964757D01*
X188029455Y-184964757D02*
X188100883Y-185036185D01*
X188100883Y-185036185D02*
X188172312Y-185179042D01*
X188172312Y-185179042D02*
X188172312Y-185321900D01*
X188172312Y-185321900D02*
X188100883Y-185464757D01*
X188100883Y-185464757D02*
X188029455Y-185536185D01*
X188029455Y-185536185D02*
X187886597Y-185607614D01*
X187886597Y-185607614D02*
X187386597Y-185607614D01*
X188529455Y-186536185D02*
X189672312Y-186536185D01*
X190886597Y-186250471D02*
X190815169Y-186321900D01*
X190815169Y-186321900D02*
X190600883Y-186393328D01*
X190600883Y-186393328D02*
X190458026Y-186393328D01*
X190458026Y-186393328D02*
X190243740Y-186321900D01*
X190243740Y-186321900D02*
X190100883Y-186179042D01*
X190100883Y-186179042D02*
X190029454Y-186036185D01*
X190029454Y-186036185D02*
X189958026Y-185750471D01*
X189958026Y-185750471D02*
X189958026Y-185536185D01*
X189958026Y-185536185D02*
X190029454Y-185250471D01*
X190029454Y-185250471D02*
X190100883Y-185107614D01*
X190100883Y-185107614D02*
X190243740Y-184964757D01*
X190243740Y-184964757D02*
X190458026Y-184893328D01*
X190458026Y-184893328D02*
X190600883Y-184893328D01*
X190600883Y-184893328D02*
X190815169Y-184964757D01*
X190815169Y-184964757D02*
X190886597Y-185036185D01*
X191743740Y-186393328D02*
X191600883Y-186321900D01*
X191600883Y-186321900D02*
X191529454Y-186250471D01*
X191529454Y-186250471D02*
X191458026Y-186107614D01*
X191458026Y-186107614D02*
X191458026Y-185679042D01*
X191458026Y-185679042D02*
X191529454Y-185536185D01*
X191529454Y-185536185D02*
X191600883Y-185464757D01*
X191600883Y-185464757D02*
X191743740Y-185393328D01*
X191743740Y-185393328D02*
X191958026Y-185393328D01*
X191958026Y-185393328D02*
X192100883Y-185464757D01*
X192100883Y-185464757D02*
X192172312Y-185536185D01*
X192172312Y-185536185D02*
X192243740Y-185679042D01*
X192243740Y-185679042D02*
X192243740Y-186107614D01*
X192243740Y-186107614D02*
X192172312Y-186250471D01*
X192172312Y-186250471D02*
X192100883Y-186321900D01*
X192100883Y-186321900D02*
X191958026Y-186393328D01*
X191958026Y-186393328D02*
X191743740Y-186393328D01*
X192886597Y-185393328D02*
X192886597Y-186393328D01*
X192886597Y-185536185D02*
X192958026Y-185464757D01*
X192958026Y-185464757D02*
X193100883Y-185393328D01*
X193100883Y-185393328D02*
X193315169Y-185393328D01*
X193315169Y-185393328D02*
X193458026Y-185464757D01*
X193458026Y-185464757D02*
X193529455Y-185607614D01*
X193529455Y-185607614D02*
X193529455Y-186393328D01*
X194029455Y-185393328D02*
X194600883Y-185393328D01*
X194243740Y-184893328D02*
X194243740Y-186179042D01*
X194243740Y-186179042D02*
X194315169Y-186321900D01*
X194315169Y-186321900D02*
X194458026Y-186393328D01*
X194458026Y-186393328D02*
X194600883Y-186393328D01*
X195100883Y-186393328D02*
X195100883Y-185393328D01*
X195100883Y-185679042D02*
X195172312Y-185536185D01*
X195172312Y-185536185D02*
X195243741Y-185464757D01*
X195243741Y-185464757D02*
X195386598Y-185393328D01*
X195386598Y-185393328D02*
X195529455Y-185393328D01*
X196243740Y-186393328D02*
X196100883Y-186321900D01*
X196100883Y-186321900D02*
X196029454Y-186250471D01*
X196029454Y-186250471D02*
X195958026Y-186107614D01*
X195958026Y-186107614D02*
X195958026Y-185679042D01*
X195958026Y-185679042D02*
X196029454Y-185536185D01*
X196029454Y-185536185D02*
X196100883Y-185464757D01*
X196100883Y-185464757D02*
X196243740Y-185393328D01*
X196243740Y-185393328D02*
X196458026Y-185393328D01*
X196458026Y-185393328D02*
X196600883Y-185464757D01*
X196600883Y-185464757D02*
X196672312Y-185536185D01*
X196672312Y-185536185D02*
X196743740Y-185679042D01*
X196743740Y-185679042D02*
X196743740Y-186107614D01*
X196743740Y-186107614D02*
X196672312Y-186250471D01*
X196672312Y-186250471D02*
X196600883Y-186321900D01*
X196600883Y-186321900D02*
X196458026Y-186393328D01*
X196458026Y-186393328D02*
X196243740Y-186393328D01*
X197600883Y-186393328D02*
X197458026Y-186321900D01*
X197458026Y-186321900D02*
X197386597Y-186179042D01*
X197386597Y-186179042D02*
X197386597Y-184893328D01*
X198886597Y-186393328D02*
X198172311Y-186393328D01*
X198172311Y-186393328D02*
X198172311Y-184893328D01*
X200029455Y-186393328D02*
X200029455Y-185607614D01*
X200029455Y-185607614D02*
X199958026Y-185464757D01*
X199958026Y-185464757D02*
X199815169Y-185393328D01*
X199815169Y-185393328D02*
X199529455Y-185393328D01*
X199529455Y-185393328D02*
X199386597Y-185464757D01*
X200029455Y-186321900D02*
X199886597Y-186393328D01*
X199886597Y-186393328D02*
X199529455Y-186393328D01*
X199529455Y-186393328D02*
X199386597Y-186321900D01*
X199386597Y-186321900D02*
X199315169Y-186179042D01*
X199315169Y-186179042D02*
X199315169Y-186036185D01*
X199315169Y-186036185D02*
X199386597Y-185893328D01*
X199386597Y-185893328D02*
X199529455Y-185821900D01*
X199529455Y-185821900D02*
X199886597Y-185821900D01*
X199886597Y-185821900D02*
X200029455Y-185750471D01*
X200743740Y-186393328D02*
X200743740Y-185393328D01*
X200743740Y-185536185D02*
X200815169Y-185464757D01*
X200815169Y-185464757D02*
X200958026Y-185393328D01*
X200958026Y-185393328D02*
X201172312Y-185393328D01*
X201172312Y-185393328D02*
X201315169Y-185464757D01*
X201315169Y-185464757D02*
X201386598Y-185607614D01*
X201386598Y-185607614D02*
X201386598Y-186393328D01*
X201386598Y-185607614D02*
X201458026Y-185464757D01*
X201458026Y-185464757D02*
X201600883Y-185393328D01*
X201600883Y-185393328D02*
X201815169Y-185393328D01*
X201815169Y-185393328D02*
X201958026Y-185464757D01*
X201958026Y-185464757D02*
X202029455Y-185607614D01*
X202029455Y-185607614D02*
X202029455Y-186393328D01*
X202743740Y-185393328D02*
X202743740Y-186893328D01*
X202743740Y-185464757D02*
X202886598Y-185393328D01*
X202886598Y-185393328D02*
X203172312Y-185393328D01*
X203172312Y-185393328D02*
X203315169Y-185464757D01*
X203315169Y-185464757D02*
X203386598Y-185536185D01*
X203386598Y-185536185D02*
X203458026Y-185679042D01*
X203458026Y-185679042D02*
X203458026Y-186107614D01*
X203458026Y-186107614D02*
X203386598Y-186250471D01*
X203386598Y-186250471D02*
X203315169Y-186321900D01*
X203315169Y-186321900D02*
X203172312Y-186393328D01*
X203172312Y-186393328D02*
X202886598Y-186393328D01*
X202886598Y-186393328D02*
X202743740Y-186321900D01*
X204743741Y-186393328D02*
X204743741Y-185607614D01*
X204743741Y-185607614D02*
X204672312Y-185464757D01*
X204672312Y-185464757D02*
X204529455Y-185393328D01*
X204529455Y-185393328D02*
X204243741Y-185393328D01*
X204243741Y-185393328D02*
X204100883Y-185464757D01*
X204743741Y-186321900D02*
X204600883Y-186393328D01*
X204600883Y-186393328D02*
X204243741Y-186393328D01*
X204243741Y-186393328D02*
X204100883Y-186321900D01*
X204100883Y-186321900D02*
X204029455Y-186179042D01*
X204029455Y-186179042D02*
X204029455Y-186036185D01*
X204029455Y-186036185D02*
X204100883Y-185893328D01*
X204100883Y-185893328D02*
X204243741Y-185821900D01*
X204243741Y-185821900D02*
X204600883Y-185821900D01*
X204600883Y-185821900D02*
X204743741Y-185750471D01*
X205458026Y-186393328D02*
X205458026Y-185393328D01*
X205458026Y-185679042D02*
X205529455Y-185536185D01*
X205529455Y-185536185D02*
X205600884Y-185464757D01*
X205600884Y-185464757D02*
X205743741Y-185393328D01*
X205743741Y-185393328D02*
X205886598Y-185393328D01*
X207029455Y-186393328D02*
X207029455Y-185607614D01*
X207029455Y-185607614D02*
X206958026Y-185464757D01*
X206958026Y-185464757D02*
X206815169Y-185393328D01*
X206815169Y-185393328D02*
X206529455Y-185393328D01*
X206529455Y-185393328D02*
X206386597Y-185464757D01*
X207029455Y-186321900D02*
X206886597Y-186393328D01*
X206886597Y-186393328D02*
X206529455Y-186393328D01*
X206529455Y-186393328D02*
X206386597Y-186321900D01*
X206386597Y-186321900D02*
X206315169Y-186179042D01*
X206315169Y-186179042D02*
X206315169Y-186036185D01*
X206315169Y-186036185D02*
X206386597Y-185893328D01*
X206386597Y-185893328D02*
X206529455Y-185821900D01*
X206529455Y-185821900D02*
X206886597Y-185821900D01*
X206886597Y-185821900D02*
X207029455Y-185750471D01*
X207672312Y-186321900D02*
X207815169Y-186393328D01*
X207815169Y-186393328D02*
X208100883Y-186393328D01*
X208100883Y-186393328D02*
X208243740Y-186321900D01*
X208243740Y-186321900D02*
X208315169Y-186179042D01*
X208315169Y-186179042D02*
X208315169Y-186107614D01*
X208315169Y-186107614D02*
X208243740Y-185964757D01*
X208243740Y-185964757D02*
X208100883Y-185893328D01*
X208100883Y-185893328D02*
X207886598Y-185893328D01*
X207886598Y-185893328D02*
X207743740Y-185821900D01*
X207743740Y-185821900D02*
X207672312Y-185679042D01*
X207672312Y-185679042D02*
X207672312Y-185607614D01*
X207672312Y-185607614D02*
X207743740Y-185464757D01*
X207743740Y-185464757D02*
X207886598Y-185393328D01*
X207886598Y-185393328D02*
X208100883Y-185393328D01*
X208100883Y-185393328D02*
X208243740Y-185464757D01*
X208886598Y-186321900D02*
X209100884Y-186393328D01*
X209100884Y-186393328D02*
X209458026Y-186393328D01*
X209458026Y-186393328D02*
X209600884Y-186321900D01*
X209600884Y-186321900D02*
X209672312Y-186250471D01*
X209672312Y-186250471D02*
X209743741Y-186107614D01*
X209743741Y-186107614D02*
X209743741Y-185964757D01*
X209743741Y-185964757D02*
X209672312Y-185821900D01*
X209672312Y-185821900D02*
X209600884Y-185750471D01*
X209600884Y-185750471D02*
X209458026Y-185679042D01*
X209458026Y-185679042D02*
X209172312Y-185607614D01*
X209172312Y-185607614D02*
X209029455Y-185536185D01*
X209029455Y-185536185D02*
X208958026Y-185464757D01*
X208958026Y-185464757D02*
X208886598Y-185321900D01*
X208886598Y-185321900D02*
X208886598Y-185179042D01*
X208886598Y-185179042D02*
X208958026Y-185036185D01*
X208958026Y-185036185D02*
X209029455Y-184964757D01*
X209029455Y-184964757D02*
X209172312Y-184893328D01*
X209172312Y-184893328D02*
X209529455Y-184893328D01*
X209529455Y-184893328D02*
X209743741Y-184964757D01*
X210600883Y-186393328D02*
X210458026Y-186321900D01*
X210458026Y-186321900D02*
X210386597Y-186250471D01*
X210386597Y-186250471D02*
X210315169Y-186107614D01*
X210315169Y-186107614D02*
X210315169Y-185679042D01*
X210315169Y-185679042D02*
X210386597Y-185536185D01*
X210386597Y-185536185D02*
X210458026Y-185464757D01*
X210458026Y-185464757D02*
X210600883Y-185393328D01*
X210600883Y-185393328D02*
X210815169Y-185393328D01*
X210815169Y-185393328D02*
X210958026Y-185464757D01*
X210958026Y-185464757D02*
X211029455Y-185536185D01*
X211029455Y-185536185D02*
X211100883Y-185679042D01*
X211100883Y-185679042D02*
X211100883Y-186107614D01*
X211100883Y-186107614D02*
X211029455Y-186250471D01*
X211029455Y-186250471D02*
X210958026Y-186321900D01*
X210958026Y-186321900D02*
X210815169Y-186393328D01*
X210815169Y-186393328D02*
X210600883Y-186393328D01*
X211743740Y-185393328D02*
X211743740Y-186393328D01*
X211743740Y-185536185D02*
X211815169Y-185464757D01*
X211815169Y-185464757D02*
X211958026Y-185393328D01*
X211958026Y-185393328D02*
X212172312Y-185393328D01*
X212172312Y-185393328D02*
X212315169Y-185464757D01*
X212315169Y-185464757D02*
X212386598Y-185607614D01*
X212386598Y-185607614D02*
X212386598Y-186393328D01*
X213100883Y-186393328D02*
X213100883Y-185393328D01*
X213100883Y-184893328D02*
X213029455Y-184964757D01*
X213029455Y-184964757D02*
X213100883Y-185036185D01*
X213100883Y-185036185D02*
X213172312Y-184964757D01*
X213172312Y-184964757D02*
X213100883Y-184893328D01*
X213100883Y-184893328D02*
X213100883Y-185036185D01*
X214458027Y-186393328D02*
X214458027Y-184893328D01*
X214458027Y-186321900D02*
X214315169Y-186393328D01*
X214315169Y-186393328D02*
X214029455Y-186393328D01*
X214029455Y-186393328D02*
X213886598Y-186321900D01*
X213886598Y-186321900D02*
X213815169Y-186250471D01*
X213815169Y-186250471D02*
X213743741Y-186107614D01*
X213743741Y-186107614D02*
X213743741Y-185679042D01*
X213743741Y-185679042D02*
X213815169Y-185536185D01*
X213815169Y-185536185D02*
X213886598Y-185464757D01*
X213886598Y-185464757D02*
X214029455Y-185393328D01*
X214029455Y-185393328D02*
X214315169Y-185393328D01*
X214315169Y-185393328D02*
X214458027Y-185464757D01*
X215386598Y-186393328D02*
X215243741Y-186321900D01*
X215243741Y-186321900D02*
X215172312Y-186250471D01*
X215172312Y-186250471D02*
X215100884Y-186107614D01*
X215100884Y-186107614D02*
X215100884Y-185679042D01*
X215100884Y-185679042D02*
X215172312Y-185536185D01*
X215172312Y-185536185D02*
X215243741Y-185464757D01*
X215243741Y-185464757D02*
X215386598Y-185393328D01*
X215386598Y-185393328D02*
X215600884Y-185393328D01*
X215600884Y-185393328D02*
X215743741Y-185464757D01*
X215743741Y-185464757D02*
X215815170Y-185536185D01*
X215815170Y-185536185D02*
X215886598Y-185679042D01*
X215886598Y-185679042D02*
X215886598Y-186107614D01*
X215886598Y-186107614D02*
X215815170Y-186250471D01*
X215815170Y-186250471D02*
X215743741Y-186321900D01*
X215743741Y-186321900D02*
X215600884Y-186393328D01*
X215600884Y-186393328D02*
X215386598Y-186393328D01*
X216529455Y-186250471D02*
X216600884Y-186321900D01*
X216600884Y-186321900D02*
X216529455Y-186393328D01*
X216529455Y-186393328D02*
X216458027Y-186321900D01*
X216458027Y-186321900D02*
X216529455Y-186250471D01*
X216529455Y-186250471D02*
X216529455Y-186393328D01*
X217243741Y-186393328D02*
X217243741Y-184893328D01*
X217386599Y-185821900D02*
X217815170Y-186393328D01*
X217815170Y-185393328D02*
X217243741Y-185964757D01*
X218458027Y-186393328D02*
X218458027Y-185393328D01*
X218458027Y-184893328D02*
X218386599Y-184964757D01*
X218386599Y-184964757D02*
X218458027Y-185036185D01*
X218458027Y-185036185D02*
X218529456Y-184964757D01*
X218529456Y-184964757D02*
X218458027Y-184893328D01*
X218458027Y-184893328D02*
X218458027Y-185036185D01*
X219815171Y-186321900D02*
X219672313Y-186393328D01*
X219672313Y-186393328D02*
X219386599Y-186393328D01*
X219386599Y-186393328D02*
X219243742Y-186321900D01*
X219243742Y-186321900D02*
X219172313Y-186250471D01*
X219172313Y-186250471D02*
X219100885Y-186107614D01*
X219100885Y-186107614D02*
X219100885Y-185679042D01*
X219100885Y-185679042D02*
X219172313Y-185536185D01*
X219172313Y-185536185D02*
X219243742Y-185464757D01*
X219243742Y-185464757D02*
X219386599Y-185393328D01*
X219386599Y-185393328D02*
X219672313Y-185393328D01*
X219672313Y-185393328D02*
X219815171Y-185464757D01*
X221100885Y-186393328D02*
X221100885Y-185607614D01*
X221100885Y-185607614D02*
X221029456Y-185464757D01*
X221029456Y-185464757D02*
X220886599Y-185393328D01*
X220886599Y-185393328D02*
X220600885Y-185393328D01*
X220600885Y-185393328D02*
X220458027Y-185464757D01*
X221100885Y-186321900D02*
X220958027Y-186393328D01*
X220958027Y-186393328D02*
X220600885Y-186393328D01*
X220600885Y-186393328D02*
X220458027Y-186321900D01*
X220458027Y-186321900D02*
X220386599Y-186179042D01*
X220386599Y-186179042D02*
X220386599Y-186036185D01*
X220386599Y-186036185D02*
X220458027Y-185893328D01*
X220458027Y-185893328D02*
X220600885Y-185821900D01*
X220600885Y-185821900D02*
X220958027Y-185821900D01*
X220958027Y-185821900D02*
X221100885Y-185750471D01*
X222458028Y-186393328D02*
X222458028Y-184893328D01*
X222458028Y-186321900D02*
X222315170Y-186393328D01*
X222315170Y-186393328D02*
X222029456Y-186393328D01*
X222029456Y-186393328D02*
X221886599Y-186321900D01*
X221886599Y-186321900D02*
X221815170Y-186250471D01*
X221815170Y-186250471D02*
X221743742Y-186107614D01*
X221743742Y-186107614D02*
X221743742Y-185679042D01*
X221743742Y-185679042D02*
X221815170Y-185536185D01*
X221815170Y-185536185D02*
X221886599Y-185464757D01*
X221886599Y-185464757D02*
X222029456Y-185393328D01*
X222029456Y-185393328D02*
X222315170Y-185393328D01*
X222315170Y-185393328D02*
X222458028Y-185464757D01*
X222815171Y-186536185D02*
X223958028Y-186536185D01*
X224315170Y-185393328D02*
X224315170Y-186893328D01*
X224315170Y-185464757D02*
X224458028Y-185393328D01*
X224458028Y-185393328D02*
X224743742Y-185393328D01*
X224743742Y-185393328D02*
X224886599Y-185464757D01*
X224886599Y-185464757D02*
X224958028Y-185536185D01*
X224958028Y-185536185D02*
X225029456Y-185679042D01*
X225029456Y-185679042D02*
X225029456Y-186107614D01*
X225029456Y-186107614D02*
X224958028Y-186250471D01*
X224958028Y-186250471D02*
X224886599Y-186321900D01*
X224886599Y-186321900D02*
X224743742Y-186393328D01*
X224743742Y-186393328D02*
X224458028Y-186393328D01*
X224458028Y-186393328D02*
X224315170Y-186321900D01*
X226315171Y-186321900D02*
X226172313Y-186393328D01*
X226172313Y-186393328D02*
X225886599Y-186393328D01*
X225886599Y-186393328D02*
X225743742Y-186321900D01*
X225743742Y-186321900D02*
X225672313Y-186250471D01*
X225672313Y-186250471D02*
X225600885Y-186107614D01*
X225600885Y-186107614D02*
X225600885Y-185679042D01*
X225600885Y-185679042D02*
X225672313Y-185536185D01*
X225672313Y-185536185D02*
X225743742Y-185464757D01*
X225743742Y-185464757D02*
X225886599Y-185393328D01*
X225886599Y-185393328D02*
X226172313Y-185393328D01*
X226172313Y-185393328D02*
X226315171Y-185464757D01*
X226958027Y-186393328D02*
X226958027Y-184893328D01*
X226958027Y-185464757D02*
X227100885Y-185393328D01*
X227100885Y-185393328D02*
X227386599Y-185393328D01*
X227386599Y-185393328D02*
X227529456Y-185464757D01*
X227529456Y-185464757D02*
X227600885Y-185536185D01*
X227600885Y-185536185D02*
X227672313Y-185679042D01*
X227672313Y-185679042D02*
X227672313Y-186107614D01*
X227672313Y-186107614D02*
X227600885Y-186250471D01*
X227600885Y-186250471D02*
X227529456Y-186321900D01*
X227529456Y-186321900D02*
X227386599Y-186393328D01*
X227386599Y-186393328D02*
X227100885Y-186393328D01*
X227100885Y-186393328D02*
X226958027Y-186321900D01*
D10*
D11*
X177002200Y-181507200D02*
X285002200Y-181507200D01*
D10*
D11*
X178386598Y-183621900D02*
X178600884Y-183693328D01*
X178600884Y-183693328D02*
X178958026Y-183693328D01*
X178958026Y-183693328D02*
X179100884Y-183621900D01*
X179100884Y-183621900D02*
X179172312Y-183550471D01*
X179172312Y-183550471D02*
X179243741Y-183407614D01*
X179243741Y-183407614D02*
X179243741Y-183264757D01*
X179243741Y-183264757D02*
X179172312Y-183121900D01*
X179172312Y-183121900D02*
X179100884Y-183050471D01*
X179100884Y-183050471D02*
X178958026Y-182979042D01*
X178958026Y-182979042D02*
X178672312Y-182907614D01*
X178672312Y-182907614D02*
X178529455Y-182836185D01*
X178529455Y-182836185D02*
X178458026Y-182764757D01*
X178458026Y-182764757D02*
X178386598Y-182621900D01*
X178386598Y-182621900D02*
X178386598Y-182479042D01*
X178386598Y-182479042D02*
X178458026Y-182336185D01*
X178458026Y-182336185D02*
X178529455Y-182264757D01*
X178529455Y-182264757D02*
X178672312Y-182193328D01*
X178672312Y-182193328D02*
X179029455Y-182193328D01*
X179029455Y-182193328D02*
X179243741Y-182264757D01*
X179886597Y-183693328D02*
X179886597Y-182193328D01*
X180529455Y-183693328D02*
X180529455Y-182907614D01*
X180529455Y-182907614D02*
X180458026Y-182764757D01*
X180458026Y-182764757D02*
X180315169Y-182693328D01*
X180315169Y-182693328D02*
X180100883Y-182693328D01*
X180100883Y-182693328D02*
X179958026Y-182764757D01*
X179958026Y-182764757D02*
X179886597Y-182836185D01*
X181815169Y-183621900D02*
X181672312Y-183693328D01*
X181672312Y-183693328D02*
X181386598Y-183693328D01*
X181386598Y-183693328D02*
X181243740Y-183621900D01*
X181243740Y-183621900D02*
X181172312Y-183479042D01*
X181172312Y-183479042D02*
X181172312Y-182907614D01*
X181172312Y-182907614D02*
X181243740Y-182764757D01*
X181243740Y-182764757D02*
X181386598Y-182693328D01*
X181386598Y-182693328D02*
X181672312Y-182693328D01*
X181672312Y-182693328D02*
X181815169Y-182764757D01*
X181815169Y-182764757D02*
X181886598Y-182907614D01*
X181886598Y-182907614D02*
X181886598Y-183050471D01*
X181886598Y-183050471D02*
X181172312Y-183193328D01*
X183100883Y-183621900D02*
X182958026Y-183693328D01*
X182958026Y-183693328D02*
X182672312Y-183693328D01*
X182672312Y-183693328D02*
X182529454Y-183621900D01*
X182529454Y-183621900D02*
X182458026Y-183479042D01*
X182458026Y-183479042D02*
X182458026Y-182907614D01*
X182458026Y-182907614D02*
X182529454Y-182764757D01*
X182529454Y-182764757D02*
X182672312Y-182693328D01*
X182672312Y-182693328D02*
X182958026Y-182693328D01*
X182958026Y-182693328D02*
X183100883Y-182764757D01*
X183100883Y-182764757D02*
X183172312Y-182907614D01*
X183172312Y-182907614D02*
X183172312Y-183050471D01*
X183172312Y-183050471D02*
X182458026Y-183193328D01*
X183600883Y-182693328D02*
X184172311Y-182693328D01*
X183815168Y-182193328D02*
X183815168Y-183479042D01*
X183815168Y-183479042D02*
X183886597Y-183621900D01*
X183886597Y-183621900D02*
X184029454Y-183693328D01*
X184029454Y-183693328D02*
X184172311Y-183693328D01*
X184672311Y-183550471D02*
X184743740Y-183621900D01*
X184743740Y-183621900D02*
X184672311Y-183693328D01*
X184672311Y-183693328D02*
X184600883Y-183621900D01*
X184600883Y-183621900D02*
X184672311Y-183550471D01*
X184672311Y-183550471D02*
X184672311Y-183693328D01*
X184672311Y-182764757D02*
X184743740Y-182836185D01*
X184743740Y-182836185D02*
X184672311Y-182907614D01*
X184672311Y-182907614D02*
X184600883Y-182836185D01*
X184600883Y-182836185D02*
X184672311Y-182764757D01*
X184672311Y-182764757D02*
X184672311Y-182907614D01*
D10*
D11*
X197002200Y-191507200D02*
X197002200Y-194507200D01*
D10*
D11*
X261002200Y-191507200D02*
X261002200Y-198007200D01*
D14*
%TO.P,Q6,1,A1*%
%TO.N,GND*%
X121055000Y-63460000D03*
D15*
%TO.P,Q6,2,A2*%
%TO.N,Net-(Q6-A2)*%
X121055000Y-66000000D03*
%TO.P,Q6,3,G*%
%TO.N,Net-(D2-K)*%
X121055000Y-68540000D03*
%TD*%
D16*
%TO.P,H3,1,1*%
%TO.N,GND*%
X81000000Y-60000000D03*
%TD*%
D17*
%TO.P,Q1,1,C*%
%TO.N,Net-(Q1-C)*%
X98000000Y-68730000D03*
D18*
%TO.P,Q1,2,B*%
%TO.N,Net-(Q1-B)*%
X98000000Y-70000000D03*
%TO.P,Q1,3,E*%
%TO.N,GND*%
X98000000Y-71270000D03*
%TD*%
D19*
%TO.P,MK1,1,-*%
%TO.N,GND*%
X79730000Y-71000000D03*
D20*
%TO.P,MK1,2,+*%
%TO.N,Net-(MK1-+)*%
X82270000Y-71000000D03*
%TD*%
D21*
%TO.P,P2,1,1*%
%TO.N,Net-(Q6-A2)*%
X156000000Y-60540000D03*
D22*
%TO.P,P2,2,2*%
%TO.N,LINE*%
X156000000Y-55460000D03*
%TD*%
D17*
%TO.P,Q5,1,C*%
%TO.N,Net-(Q5-C)*%
X127000000Y-50460000D03*
D18*
%TO.P,Q5,2,B*%
%TO.N,Net-(Q4-E)*%
X127000000Y-51730000D03*
%TO.P,Q5,3,E*%
%TO.N,Net-(D2-A)*%
X127000000Y-53000000D03*
%TD*%
D23*
%TO.P,D3,1,K*%
%TO.N,Net-(D3-K)*%
X144000000Y-63080000D03*
D24*
%TO.P,D3,2,A*%
%TO.N,LINE*%
X144000000Y-52920000D03*
%TD*%
D16*
%TO.P,H1,1,1*%
%TO.N,GND*%
X154000000Y-46000000D03*
%TD*%
D17*
%TO.P,Q4,1,C*%
%TO.N,Net-(Q4-C)*%
X120000000Y-45460000D03*
D18*
%TO.P,Q4,2,B*%
%TO.N,Net-(Q4-B)*%
X120000000Y-46730000D03*
%TO.P,Q4,3,E*%
%TO.N,Net-(Q4-E)*%
X120000000Y-48000000D03*
%TD*%
D17*
%TO.P,Q2,1,C*%
%TO.N,Net-(Q2-C)*%
X98000000Y-62730000D03*
D18*
%TO.P,Q2,2,B*%
%TO.N,Net-(Q1-C)*%
X98000000Y-64000000D03*
%TO.P,Q2,3,E*%
%TO.N,Net-(Q2-E)*%
X98000000Y-65270000D03*
%TD*%
D16*
%TO.P,H2,1,1*%
%TO.N,GND*%
X154000000Y-71000000D03*
%TD*%
D21*
%TO.P,P1,1,1*%
%TO.N,LINE*%
X79000000Y-48460000D03*
D22*
%TO.P,P1,2,2*%
%TO.N,GND*%
X79000000Y-53540000D03*
%TD*%
D25*
%TO.P,C8,1*%
%TO.N,Net-(D1-K)*%
X113000000Y-51500000D03*
D26*
%TO.P,C8,2*%
%TO.N,GND*%
X113000000Y-54000000D03*
%TD*%
D25*
%TO.P,C2,1*%
%TO.N,Net-(C2-Pad1)*%
X90000000Y-64000000D03*
D26*
%TO.P,C2,2*%
%TO.N,GND*%
X90000000Y-62000000D03*
%TD*%
D25*
%TO.P,D2,1,K*%
%TO.N,Net-(D2-K)*%
X115000000Y-69810000D03*
D27*
%TO.P,D2,2,A*%
%TO.N,Net-(D2-A)*%
X115000000Y-62190000D03*
%TD*%
D28*
%TO.P,R14,1*%
%TO.N,Net-(D3-K)*%
X136000000Y-68200000D03*
D29*
%TO.P,R14,2*%
%TO.N,Net-(D1-K)*%
X136000000Y-45800000D03*
%TD*%
D30*
%TO.P,Q3,1,C*%
%TO.N,Net-(Q3-C)*%
X101460000Y-51000000D03*
D31*
%TO.P,Q3,2,B*%
%TO.N,Net-(Q3-B)*%
X102730000Y-51000000D03*
%TO.P,Q3,3,E*%
%TO.N,Net-(D1-K)*%
X104000000Y-51000000D03*
%TD*%
D32*
%TO.N,Net-(Q3-B)*%
X105000000Y-56000000D03*
%TO.N,Net-(Q4-B)*%
X100000000Y-45000000D03*
%TD*%
D33*
%TO.N,Net-(Q3-B)*%
X102730000Y-51000000D02*
X102730000Y-53730000D01*
X102730000Y-53730000D02*
X105000000Y-56000000D01*
%TO.N,Net-(Q4-B)*%
X101000000Y-45000000D02*
X102730000Y-46730000D01*
X102730000Y-46730000D02*
X120000000Y-46730000D01*
X100000000Y-45000000D02*
X101000000Y-45000000D01*
X101000000Y-45000000D02*
X101500000Y-45500000D01*
%TD*%
%TA.AperFunction,Conductor*%
%TO.N,LINE*%
G36*
X153808363Y-39520185D02*
G01*
X153829005Y-39536819D01*
X160463181Y-46170995D01*
X160496666Y-46232318D01*
X160499500Y-46258676D01*
X160499500Y-70741324D01*
X160479815Y-70808363D01*
X160463181Y-70829005D01*
X153829005Y-77463181D01*
X153767682Y-77496666D01*
X153741324Y-77499500D01*
X81258676Y-77499500D01*
X81191637Y-77479815D01*
X81170995Y-77463181D01*
X74536819Y-70829005D01*
X74503334Y-70767682D01*
X74500500Y-70741324D01*
X74500500Y-70263135D01*
X78540500Y-70263135D01*
X78540500Y-71736870D01*
X78540501Y-71736876D01*
X78546908Y-71796483D01*
X78597202Y-71931328D01*
X78597206Y-71931335D01*
X78683452Y-72046544D01*
X78683455Y-72046547D01*
X78798664Y-72132793D01*
X78798671Y-72132797D01*
X78933517Y-72183091D01*
X78933516Y-72183091D01*
X78940444Y-72183835D01*
X78993127Y-72189500D01*
X80466872Y-72189499D01*
X80526483Y-72183091D01*
X80661331Y-72132796D01*
X80776546Y-72046546D01*
X80862796Y-71931331D01*
X80913091Y-71796483D01*
X80919500Y-71736873D01*
X80919499Y-71475793D01*
X80939183Y-71408757D01*
X80991987Y-71363002D01*
X81061146Y-71353058D01*
X81124701Y-71382083D01*
X81161429Y-71437475D01*
X81167645Y-71456604D01*
X81167646Y-71456609D01*
X81252651Y-71623437D01*
X81362694Y-71774900D01*
X81362698Y-71774905D01*
X81495094Y-71907301D01*
X81495099Y-71907305D01*
X81619243Y-71997500D01*
X81646566Y-72017351D01*
X81743140Y-72066558D01*
X81813390Y-72102353D01*
X81813393Y-72102354D01*
X81902424Y-72131281D01*
X81991458Y-72160210D01*
X82176384Y-72189500D01*
X82176385Y-72189500D01*
X82363615Y-72189500D01*
X82363616Y-72189500D01*
X82548542Y-72160210D01*
X82726609Y-72102353D01*
X82893434Y-72017351D01*
X83044907Y-71907300D01*
X83177300Y-71774907D01*
X83287351Y-71623434D01*
X83372353Y-71456609D01*
X83430210Y-71278542D01*
X83459500Y-71093616D01*
X83459500Y-70906384D01*
X83430210Y-70721458D01*
X83380945Y-70569834D01*
X83372354Y-70543393D01*
X83372353Y-70543390D01*
X83342917Y-70485620D01*
X83287351Y-70376566D01*
X83231083Y-70299119D01*
X83177305Y-70225099D01*
X83177301Y-70225094D01*
X83044905Y-70092698D01*
X83044900Y-70092694D01*
X82893437Y-69982651D01*
X82893436Y-69982650D01*
X82893434Y-69982649D01*
X82836132Y-69953452D01*
X82726609Y-69897646D01*
X82726606Y-69897645D01*
X82548543Y-69839790D01*
X82456079Y-69825145D01*
X82363616Y-69810500D01*
X82176384Y-69810500D01*
X82135920Y-69816909D01*
X81991456Y-69839790D01*
X81813393Y-69897645D01*
X81813390Y-69897646D01*
X81646562Y-69982651D01*
X81495099Y-70092694D01*
X81495094Y-70092698D01*
X81362698Y-70225094D01*
X81362694Y-70225099D01*
X81252651Y-70376562D01*
X81167647Y-70543390D01*
X81161430Y-70562524D01*
X81121992Y-70620199D01*
X81057633Y-70647397D01*
X80988786Y-70635482D01*
X80937311Y-70588237D01*
X80919499Y-70524205D01*
X80919499Y-70263129D01*
X80919498Y-70263123D01*
X80919497Y-70263116D01*
X80913091Y-70203517D01*
X80874857Y-70101007D01*
X80862797Y-70068671D01*
X80862793Y-70068664D01*
X80776547Y-69953455D01*
X80776544Y-69953452D01*
X80661335Y-69867206D01*
X80661328Y-69867202D01*
X80526482Y-69816908D01*
X80526483Y-69816908D01*
X80466883Y-69810501D01*
X80466881Y-69810500D01*
X80466873Y-69810500D01*
X80466864Y-69810500D01*
X78993129Y-69810500D01*
X78993123Y-69810501D01*
X78933516Y-69816908D01*
X78798671Y-69867202D01*
X78798664Y-69867206D01*
X78683455Y-69953452D01*
X78683452Y-69953455D01*
X78597206Y-70068664D01*
X78597202Y-70068671D01*
X78546908Y-70203517D01*
X78540501Y-70263116D01*
X78540501Y-70263123D01*
X78540500Y-70263135D01*
X74500500Y-70263135D01*
X74500500Y-68157135D01*
X96749500Y-68157135D01*
X96749500Y-69302870D01*
X96749501Y-69302876D01*
X96755908Y-69362483D01*
X96806202Y-69497328D01*
X96806203Y-69497330D01*
X96806204Y-69497331D01*
X96807028Y-69498432D01*
X96807509Y-69499721D01*
X96810454Y-69505114D01*
X96809678Y-69505537D01*
X96831448Y-69563895D01*
X96822325Y-69620198D01*
X96788910Y-69700868D01*
X96788907Y-69700880D01*
X96749500Y-69898992D01*
X96749500Y-70101007D01*
X96788907Y-70299119D01*
X96788909Y-70299127D01*
X96866213Y-70485755D01*
X96866214Y-70485756D01*
X96917508Y-70562524D01*
X96919904Y-70566109D01*
X96940782Y-70632787D01*
X96922297Y-70700167D01*
X96919904Y-70703891D01*
X96866213Y-70784244D01*
X96788909Y-70970872D01*
X96788907Y-70970880D01*
X96749500Y-71168992D01*
X96749500Y-71371007D01*
X96788907Y-71569119D01*
X96788909Y-71569127D01*
X96866212Y-71755752D01*
X96866217Y-71755762D01*
X96978441Y-71923718D01*
X97121281Y-72066558D01*
X97289237Y-72178782D01*
X97289241Y-72178784D01*
X97289244Y-72178786D01*
X97475873Y-72256091D01*
X97673992Y-72295499D01*
X97673996Y-72295500D01*
X97673997Y-72295500D01*
X98326004Y-72295500D01*
X98326005Y-72295499D01*
X98524127Y-72256091D01*
X98710756Y-72178786D01*
X98878718Y-72066558D01*
X99021558Y-71923718D01*
X99133786Y-71755756D01*
X99211091Y-71569127D01*
X99250500Y-71371003D01*
X99250500Y-71168997D01*
X99211091Y-70970873D01*
X99133786Y-70784244D01*
X99080094Y-70703889D01*
X99059217Y-70637214D01*
X99077701Y-70569834D01*
X99080078Y-70566134D01*
X99133786Y-70485756D01*
X99211091Y-70299127D01*
X99250500Y-70101003D01*
X99250500Y-69898997D01*
X99211091Y-69700873D01*
X99177673Y-69620198D01*
X99170205Y-69550730D01*
X99189964Y-69505340D01*
X99189547Y-69505112D01*
X99192095Y-69500444D01*
X99192972Y-69498431D01*
X99193796Y-69497331D01*
X99244091Y-69362483D01*
X99250500Y-69302873D01*
X99250499Y-68962135D01*
X113699500Y-68962135D01*
X113699500Y-70657870D01*
X113699501Y-70657876D01*
X113705908Y-70717483D01*
X113756202Y-70852328D01*
X113756206Y-70852335D01*
X113842452Y-70967544D01*
X113842455Y-70967547D01*
X113957664Y-71053793D01*
X113957671Y-71053797D01*
X114092517Y-71104091D01*
X114092516Y-71104091D01*
X114099444Y-71104835D01*
X114152127Y-71110500D01*
X115847872Y-71110499D01*
X115907483Y-71104091D01*
X116042331Y-71053796D01*
X116157546Y-70967546D01*
X116243680Y-70852486D01*
X151749500Y-70852486D01*
X151749500Y-71147513D01*
X151770539Y-71307314D01*
X151788007Y-71439993D01*
X151864361Y-71724951D01*
X151864364Y-71724961D01*
X151977254Y-71997500D01*
X151977258Y-71997510D01*
X152124761Y-72252993D01*
X152304352Y-72487040D01*
X152304358Y-72487047D01*
X152512952Y-72695641D01*
X152512959Y-72695647D01*
X152747006Y-72875238D01*
X153002489Y-73022741D01*
X153002490Y-73022741D01*
X153002493Y-73022743D01*
X153275048Y-73135639D01*
X153560007Y-73211993D01*
X153852494Y-73250500D01*
X153852501Y-73250500D01*
X154147499Y-73250500D01*
X154147506Y-73250500D01*
X154439993Y-73211993D01*
X154724952Y-73135639D01*
X154997507Y-73022743D01*
X155252994Y-72875238D01*
X155487042Y-72695646D01*
X155695646Y-72487042D01*
X155875238Y-72252994D01*
X156022743Y-71997507D01*
X156135639Y-71724952D01*
X156211993Y-71439993D01*
X156250500Y-71147506D01*
X156250500Y-70852494D01*
X156211993Y-70560007D01*
X156135639Y-70275048D01*
X156130704Y-70263135D01*
X156063549Y-70101007D01*
X156022743Y-70002493D01*
X156017262Y-69993000D01*
X155875238Y-69747006D01*
X155695647Y-69512959D01*
X155695641Y-69512952D01*
X155487047Y-69304358D01*
X155487040Y-69304352D01*
X155252993Y-69124761D01*
X154997510Y-68977258D01*
X154997500Y-68977254D01*
X154724961Y-68864364D01*
X154724954Y-68864362D01*
X154724952Y-68864361D01*
X154439993Y-68788007D01*
X154391113Y-68781571D01*
X154147513Y-68749500D01*
X154147506Y-68749500D01*
X153852494Y-68749500D01*
X153852486Y-68749500D01*
X153574085Y-68786153D01*
X153560007Y-68788007D01*
X153275048Y-68864361D01*
X153275038Y-68864364D01*
X153002499Y-68977254D01*
X153002489Y-68977258D01*
X152747006Y-69124761D01*
X152512959Y-69304352D01*
X152512952Y-69304358D01*
X152304358Y-69512952D01*
X152304352Y-69512959D01*
X152124761Y-69747006D01*
X151977258Y-70002489D01*
X151977254Y-70002499D01*
X151864364Y-70275038D01*
X151864361Y-70275048D01*
X151792460Y-70543390D01*
X151788008Y-70560004D01*
X151788006Y-70560015D01*
X151749500Y-70852486D01*
X116243680Y-70852486D01*
X116243796Y-70852331D01*
X116261412Y-70805101D01*
X116261413Y-70805099D01*
X116294090Y-70717485D01*
X116294091Y-70717483D01*
X116295552Y-70703891D01*
X116300500Y-70657873D01*
X116300499Y-68962128D01*
X116294091Y-68902517D01*
X116285784Y-68880246D01*
X116243797Y-68767671D01*
X116243793Y-68767664D01*
X116157547Y-68652455D01*
X116157544Y-68652452D01*
X116042335Y-68566206D01*
X116042328Y-68566202D01*
X115907482Y-68515908D01*
X115907483Y-68515908D01*
X115847883Y-68509501D01*
X115847881Y-68509500D01*
X115847873Y-68509500D01*
X115847864Y-68509500D01*
X114152129Y-68509500D01*
X114152123Y-68509501D01*
X114092516Y-68515908D01*
X113957671Y-68566202D01*
X113957664Y-68566206D01*
X113842455Y-68652452D01*
X113842452Y-68652455D01*
X113756206Y-68767664D01*
X113756202Y-68767671D01*
X113705908Y-68902517D01*
X113700403Y-68953726D01*
X113699501Y-68962123D01*
X113699500Y-68962135D01*
X99250499Y-68962135D01*
X99250499Y-68654354D01*
X99250499Y-68157129D01*
X99250498Y-68157123D01*
X99250497Y-68157116D01*
X99244091Y-68097517D01*
X99240746Y-68088549D01*
X99193797Y-67962671D01*
X99193793Y-67962664D01*
X99107547Y-67847455D01*
X99107544Y-67847452D01*
X98992335Y-67761206D01*
X98992328Y-67761202D01*
X98857482Y-67710908D01*
X98857483Y-67710908D01*
X98797883Y-67704501D01*
X98797881Y-67704500D01*
X98797873Y-67704500D01*
X98797864Y-67704500D01*
X97202129Y-67704500D01*
X97202123Y-67704501D01*
X97142516Y-67710908D01*
X97007671Y-67761202D01*
X97007664Y-67761206D01*
X96892455Y-67847452D01*
X96892452Y-67847455D01*
X96806206Y-67962664D01*
X96806202Y-67962671D01*
X96755908Y-68097517D01*
X96753190Y-68122802D01*
X96749501Y-68157123D01*
X96749500Y-68157135D01*
X74500500Y-68157135D01*
X74500500Y-59852486D01*
X78749500Y-59852486D01*
X78749500Y-60147513D01*
X78781571Y-60391113D01*
X78788007Y-60439993D01*
X78788008Y-60439995D01*
X78864361Y-60724951D01*
X78864364Y-60724961D01*
X78977254Y-60997500D01*
X78977258Y-60997510D01*
X79124761Y-61252993D01*
X79304352Y-61487040D01*
X79304358Y-61487047D01*
X79512952Y-61695641D01*
X79512959Y-61695647D01*
X79747006Y-61875238D01*
X80002489Y-62022741D01*
X80002490Y-62022741D01*
X80002493Y-62022743D01*
X80194672Y-62102346D01*
X80272078Y-62134409D01*
X80275048Y-62135639D01*
X80560007Y-62211993D01*
X80852494Y-62250500D01*
X80852501Y-62250500D01*
X81147499Y-62250500D01*
X81147506Y-62250500D01*
X81439993Y-62211993D01*
X81724952Y-62135639D01*
X81997507Y-62022743D01*
X82214179Y-61897648D01*
X88699500Y-61897648D01*
X88699500Y-62102351D01*
X88731522Y-62304534D01*
X88794781Y-62499223D01*
X88887152Y-62680510D01*
X88900048Y-62749180D01*
X88873772Y-62813920D01*
X88850982Y-62836069D01*
X88842457Y-62842450D01*
X88842451Y-62842457D01*
X88756206Y-62957664D01*
X88756202Y-62957671D01*
X88705908Y-63092517D01*
X88699501Y-63152116D01*
X88699501Y-63152123D01*
X88699500Y-63152135D01*
X88699500Y-64847870D01*
X88699501Y-64847876D01*
X88705908Y-64907483D01*
X88756202Y-65042328D01*
X88756206Y-65042335D01*
X88842452Y-65157544D01*
X88842455Y-65157547D01*
X88957664Y-65243793D01*
X88957671Y-65243797D01*
X89092517Y-65294091D01*
X89092516Y-65294091D01*
X89099444Y-65294835D01*
X89152127Y-65300500D01*
X90847872Y-65300499D01*
X90907483Y-65294091D01*
X91042331Y-65243796D01*
X91157546Y-65157546D01*
X91243796Y-65042331D01*
X91294091Y-64907483D01*
X91300500Y-64847873D01*
X91300499Y-63152128D01*
X91294091Y-63092517D01*
X91273466Y-63037219D01*
X91243797Y-62957671D01*
X91243793Y-62957664D01*
X91157547Y-62842455D01*
X91157546Y-62842454D01*
X91149018Y-62836070D01*
X91107149Y-62780137D01*
X91102165Y-62710446D01*
X91112847Y-62680510D01*
X91205220Y-62499219D01*
X91268477Y-62304534D01*
X91291823Y-62157135D01*
X96749500Y-62157135D01*
X96749500Y-63302870D01*
X96749501Y-63302876D01*
X96755908Y-63362483D01*
X96806202Y-63497328D01*
X96806203Y-63497330D01*
X96806204Y-63497331D01*
X96807028Y-63498432D01*
X96807509Y-63499721D01*
X96810454Y-63505114D01*
X96809678Y-63505537D01*
X96831448Y-63563895D01*
X96822325Y-63620198D01*
X96788910Y-63700868D01*
X96788907Y-63700880D01*
X96749500Y-63898992D01*
X96749500Y-64101007D01*
X96788907Y-64299119D01*
X96788909Y-64299127D01*
X96866213Y-64485755D01*
X96919904Y-64566109D01*
X96940782Y-64632787D01*
X96922297Y-64700167D01*
X96919904Y-64703891D01*
X96866213Y-64784244D01*
X96788909Y-64970872D01*
X96788907Y-64970880D01*
X96749500Y-65168992D01*
X96749500Y-65371007D01*
X96788907Y-65569119D01*
X96788909Y-65569127D01*
X96866212Y-65755752D01*
X96866217Y-65755762D01*
X96978441Y-65923718D01*
X97121281Y-66066558D01*
X97289237Y-66178782D01*
X97289241Y-66178784D01*
X97289244Y-66178786D01*
X97475873Y-66256091D01*
X97673992Y-66295499D01*
X97673996Y-66295500D01*
X97673997Y-66295500D01*
X98326004Y-66295500D01*
X98326005Y-66295499D01*
X98524127Y-66256091D01*
X98710756Y-66178786D01*
X98878718Y-66066558D01*
X99021558Y-65923718D01*
X99133786Y-65755756D01*
X99211091Y-65569127D01*
X99250500Y-65371003D01*
X99250500Y-65168997D01*
X99211091Y-64970873D01*
X99133786Y-64784244D01*
X99080094Y-64703889D01*
X99059217Y-64637214D01*
X99077701Y-64569834D01*
X99080078Y-64566134D01*
X99133786Y-64485756D01*
X99211091Y-64299127D01*
X99250500Y-64101003D01*
X99250500Y-63898997D01*
X99211091Y-63700873D01*
X99177673Y-63620198D01*
X99170205Y-63550730D01*
X99189964Y-63505340D01*
X99189547Y-63505112D01*
X99192095Y-63500444D01*
X99192972Y-63498431D01*
X99193796Y-63497331D01*
X99244091Y-63362483D01*
X99250500Y-63302873D01*
X99250499Y-62157128D01*
X99244091Y-62097517D01*
X99240410Y-62087648D01*
X113699500Y-62087648D01*
X113699500Y-62292352D01*
X113703878Y-62319995D01*
X113731522Y-62494534D01*
X113794781Y-62689223D01*
X113887715Y-62871613D01*
X114008028Y-63037213D01*
X114152786Y-63181971D01*
X114307749Y-63294556D01*
X114318390Y-63302287D01*
X114434607Y-63361503D01*
X114500776Y-63395218D01*
X114500778Y-63395218D01*
X114500781Y-63395220D01*
X114605137Y-63429127D01*
X114695465Y-63458477D01*
X114796557Y-63474488D01*
X114897648Y-63490500D01*
X114897649Y-63490500D01*
X115102351Y-63490500D01*
X115102352Y-63490500D01*
X115304534Y-63458477D01*
X115499219Y-63395220D01*
X115681610Y-63302287D01*
X115774590Y-63234732D01*
X115847213Y-63181971D01*
X115847215Y-63181968D01*
X115847219Y-63181966D01*
X115991966Y-63037219D01*
X115991968Y-63037215D01*
X115991971Y-63037213D01*
X116044732Y-62964590D01*
X116112287Y-62871610D01*
X116205220Y-62689219D01*
X116268477Y-62494534D01*
X116274005Y-62459635D01*
X119554500Y-62459635D01*
X119554500Y-64460370D01*
X119554501Y-64460376D01*
X119560908Y-64519983D01*
X119611202Y-64654828D01*
X119611206Y-64654835D01*
X119697452Y-64770044D01*
X119697455Y-64770047D01*
X119812664Y-64856293D01*
X119812669Y-64856296D01*
X119840539Y-64866690D01*
X119896473Y-64908561D01*
X119920891Y-64974024D01*
X119906040Y-65042298D01*
X119897525Y-65055759D01*
X119764783Y-65238461D01*
X119660950Y-65442244D01*
X119590278Y-65659750D01*
X119590278Y-65659753D01*
X119554500Y-65885646D01*
X119554500Y-66114353D01*
X119590278Y-66340246D01*
X119590278Y-66340249D01*
X119660950Y-66557755D01*
X119675491Y-66586293D01*
X119764783Y-66761538D01*
X119899214Y-66946566D01*
X120060934Y-67108286D01*
X120130423Y-67158773D01*
X120145438Y-67169682D01*
X120188103Y-67225013D01*
X120194082Y-67294626D01*
X120161476Y-67356421D01*
X120145438Y-67370318D01*
X120060932Y-67431715D01*
X119899216Y-67593431D01*
X119899216Y-67593432D01*
X119899214Y-67593434D01*
X119856504Y-67652219D01*
X119764783Y-67778461D01*
X119660950Y-67982244D01*
X119590278Y-68199750D01*
X119590278Y-68199753D01*
X119554500Y-68425646D01*
X119554500Y-68654353D01*
X119590278Y-68880246D01*
X119590278Y-68880249D01*
X119660950Y-69097755D01*
X119674711Y-69124762D01*
X119764783Y-69301538D01*
X119899214Y-69486566D01*
X120060934Y-69648286D01*
X120245962Y-69782717D01*
X120411777Y-69867204D01*
X120449744Y-69886549D01*
X120667251Y-69957221D01*
X120667252Y-69957221D01*
X120667255Y-69957222D01*
X120893146Y-69993000D01*
X120893147Y-69993000D01*
X121216853Y-69993000D01*
X121216854Y-69993000D01*
X121442745Y-69957222D01*
X121442748Y-69957221D01*
X121442749Y-69957221D01*
X121660255Y-69886549D01*
X121660255Y-69886548D01*
X121660258Y-69886548D01*
X121864038Y-69782717D01*
X122049066Y-69648286D01*
X122210786Y-69486566D01*
X122345217Y-69301538D01*
X122449048Y-69097758D01*
X122488202Y-68977254D01*
X122519721Y-68880249D01*
X122519721Y-68880248D01*
X122519722Y-68880245D01*
X122555500Y-68654354D01*
X122555500Y-68425646D01*
X122519722Y-68199755D01*
X122519721Y-68199751D01*
X122519721Y-68199750D01*
X122494719Y-68122802D01*
X122483590Y-68088549D01*
X134299500Y-68088549D01*
X134299500Y-68311450D01*
X134299501Y-68311466D01*
X134328594Y-68532452D01*
X134328595Y-68532457D01*
X134328596Y-68532463D01*
X134386290Y-68747780D01*
X134386293Y-68747790D01*
X134471593Y-68953722D01*
X134471595Y-68953726D01*
X134583052Y-69146774D01*
X134583057Y-69146780D01*
X134583058Y-69146782D01*
X134718751Y-69323622D01*
X134718757Y-69323629D01*
X134876370Y-69481242D01*
X134876377Y-69481248D01*
X134972445Y-69554963D01*
X135053226Y-69616948D01*
X135246274Y-69728405D01*
X135291181Y-69747006D01*
X135444471Y-69810501D01*
X135452219Y-69813710D01*
X135667537Y-69871404D01*
X135888543Y-69900500D01*
X135888550Y-69900500D01*
X136111450Y-69900500D01*
X136111457Y-69900500D01*
X136332463Y-69871404D01*
X136547781Y-69813710D01*
X136753726Y-69728405D01*
X136946774Y-69616948D01*
X137123624Y-69481247D01*
X137281247Y-69323624D01*
X137416948Y-69146774D01*
X137528405Y-68953726D01*
X137613710Y-68747781D01*
X137671404Y-68532463D01*
X137700500Y-68311457D01*
X137700500Y-68088543D01*
X137671404Y-67867537D01*
X137613710Y-67652219D01*
X137528405Y-67446274D01*
X137416948Y-67253226D01*
X137281247Y-67076376D01*
X137281242Y-67076370D01*
X137123629Y-66918757D01*
X137123622Y-66918751D01*
X136946782Y-66783058D01*
X136946780Y-66783057D01*
X136946774Y-66783052D01*
X136753726Y-66671595D01*
X136753722Y-66671593D01*
X136547790Y-66586293D01*
X136547783Y-66586291D01*
X136547781Y-66586290D01*
X136332463Y-66528596D01*
X136332457Y-66528595D01*
X136332452Y-66528594D01*
X136111466Y-66499501D01*
X136111463Y-66499500D01*
X136111457Y-66499500D01*
X135888543Y-66499500D01*
X135888537Y-66499500D01*
X135888533Y-66499501D01*
X135667547Y-66528594D01*
X135667540Y-66528595D01*
X135667537Y-66528596D01*
X135452219Y-66586290D01*
X135452209Y-66586293D01*
X135246277Y-66671593D01*
X135246273Y-66671595D01*
X135053226Y-66783052D01*
X135053217Y-66783058D01*
X134876377Y-66918751D01*
X134876370Y-66918757D01*
X134718757Y-67076370D01*
X134718751Y-67076377D01*
X134583058Y-67253217D01*
X134583052Y-67253226D01*
X134471595Y-67446273D01*
X134471593Y-67446277D01*
X134386293Y-67652209D01*
X134386290Y-67652219D01*
X134352464Y-67778462D01*
X134328597Y-67867534D01*
X134328594Y-67867547D01*
X134299501Y-68088533D01*
X134299500Y-68088549D01*
X122483590Y-68088549D01*
X122449049Y-67982244D01*
X122439075Y-67962669D01*
X122345217Y-67778462D01*
X122210786Y-67593434D01*
X122049066Y-67431714D01*
X121964559Y-67370316D01*
X121921896Y-67314988D01*
X121915917Y-67245375D01*
X121948523Y-67183580D01*
X121964556Y-67169685D01*
X122049066Y-67108286D01*
X122210786Y-66946566D01*
X122345217Y-66761538D01*
X122449048Y-66557758D01*
X122519722Y-66340245D01*
X122555500Y-66114354D01*
X122555500Y-65885646D01*
X122519722Y-65659755D01*
X122519721Y-65659751D01*
X122519721Y-65659750D01*
X122449049Y-65442244D01*
X122347935Y-65243797D01*
X122345217Y-65238462D01*
X122212472Y-65055755D01*
X122188994Y-64989953D01*
X122204819Y-64921899D01*
X122254925Y-64873204D01*
X122269455Y-64866692D01*
X122297331Y-64856296D01*
X122412546Y-64770046D01*
X122498796Y-64654831D01*
X122549091Y-64519983D01*
X122555500Y-64460373D01*
X122555499Y-62459628D01*
X122549091Y-62400017D01*
X122498796Y-62265169D01*
X122498795Y-62265168D01*
X122498793Y-62265164D01*
X122412547Y-62149955D01*
X122412544Y-62149952D01*
X122297335Y-62063706D01*
X122297328Y-62063702D01*
X122247152Y-62044988D01*
X122162482Y-62013408D01*
X122162483Y-62013408D01*
X122102883Y-62007001D01*
X122102881Y-62007000D01*
X122102873Y-62007000D01*
X122102864Y-62007000D01*
X120007129Y-62007000D01*
X120007123Y-62007001D01*
X119947516Y-62013408D01*
X119812671Y-62063702D01*
X119812664Y-62063706D01*
X119697455Y-62149952D01*
X119697452Y-62149955D01*
X119611206Y-62265164D01*
X119611202Y-62265171D01*
X119560908Y-62400017D01*
X119554501Y-62459616D01*
X119554501Y-62459623D01*
X119554500Y-62459635D01*
X116274005Y-62459635D01*
X116300500Y-62292352D01*
X116300500Y-62087648D01*
X116275869Y-61932135D01*
X142399500Y-61932135D01*
X142399500Y-64227870D01*
X142399501Y-64227876D01*
X142405908Y-64287483D01*
X142456202Y-64422328D01*
X142456206Y-64422335D01*
X142542452Y-64537544D01*
X142542455Y-64537547D01*
X142657664Y-64623793D01*
X142657671Y-64623797D01*
X142792517Y-64674091D01*
X142792516Y-64674091D01*
X142799444Y-64674835D01*
X142852127Y-64680500D01*
X145147872Y-64680499D01*
X145207483Y-64674091D01*
X145342331Y-64623796D01*
X145457546Y-64537546D01*
X145543796Y-64422331D01*
X145594091Y-64287483D01*
X145600500Y-64227873D01*
X145600499Y-61932128D01*
X145594384Y-61875241D01*
X145594091Y-61872516D01*
X145543797Y-61737671D01*
X145543793Y-61737664D01*
X145457547Y-61622455D01*
X145457544Y-61622452D01*
X145342335Y-61536206D01*
X145342328Y-61536202D01*
X145207482Y-61485908D01*
X145207483Y-61485908D01*
X145147883Y-61479501D01*
X145147881Y-61479500D01*
X145147873Y-61479500D01*
X145147864Y-61479500D01*
X142852129Y-61479500D01*
X142852123Y-61479501D01*
X142792516Y-61485908D01*
X142657671Y-61536202D01*
X142657664Y-61536206D01*
X142542455Y-61622452D01*
X142542452Y-61622455D01*
X142456206Y-61737664D01*
X142456202Y-61737671D01*
X142405908Y-61872517D01*
X142399501Y-61932116D01*
X142399501Y-61932123D01*
X142399500Y-61932135D01*
X116275869Y-61932135D01*
X116275868Y-61932128D01*
X116268477Y-61885465D01*
X116211760Y-61710909D01*
X116205220Y-61690781D01*
X116205218Y-61690778D01*
X116205218Y-61690776D01*
X116162700Y-61607331D01*
X116112287Y-61508390D01*
X116096777Y-61487042D01*
X115991971Y-61342786D01*
X115847213Y-61198028D01*
X115681613Y-61077715D01*
X115681612Y-61077714D01*
X115681610Y-61077713D01*
X115624653Y-61048691D01*
X115499223Y-60984781D01*
X115304534Y-60921522D01*
X115129995Y-60893878D01*
X115102352Y-60889500D01*
X114897648Y-60889500D01*
X114873329Y-60893351D01*
X114695465Y-60921522D01*
X114500776Y-60984781D01*
X114318386Y-61077715D01*
X114152786Y-61198028D01*
X114008028Y-61342786D01*
X113887715Y-61508386D01*
X113794781Y-61690776D01*
X113731522Y-61885465D01*
X113706257Y-62044988D01*
X113699500Y-62087648D01*
X99240410Y-62087648D01*
X99193796Y-61962669D01*
X99193795Y-61962668D01*
X99193793Y-61962664D01*
X99107547Y-61847455D01*
X99107544Y-61847452D01*
X98992335Y-61761206D01*
X98992328Y-61761202D01*
X98857482Y-61710908D01*
X98857483Y-61710908D01*
X98797883Y-61704501D01*
X98797881Y-61704500D01*
X98797873Y-61704500D01*
X98797864Y-61704500D01*
X97202129Y-61704500D01*
X97202123Y-61704501D01*
X97142516Y-61710908D01*
X97007671Y-61761202D01*
X97007664Y-61761206D01*
X96892455Y-61847452D01*
X96892452Y-61847455D01*
X96806206Y-61962664D01*
X96806202Y-61962671D01*
X96755908Y-62097517D01*
X96751810Y-62135638D01*
X96749501Y-62157125D01*
X96749500Y-62157135D01*
X91291823Y-62157135D01*
X91300500Y-62102352D01*
X91300500Y-61897648D01*
X91275162Y-61737671D01*
X91268477Y-61695465D01*
X91216730Y-61536206D01*
X91205220Y-61500781D01*
X91205218Y-61500778D01*
X91205218Y-61500776D01*
X91171503Y-61434607D01*
X91112287Y-61318390D01*
X91104556Y-61307749D01*
X90991971Y-61152786D01*
X90847213Y-61008028D01*
X90681613Y-60887715D01*
X90681612Y-60887714D01*
X90681610Y-60887713D01*
X90624653Y-60858691D01*
X90499223Y-60794781D01*
X90304534Y-60731522D01*
X90129995Y-60703878D01*
X90102352Y-60699500D01*
X89897648Y-60699500D01*
X89873329Y-60703351D01*
X89695465Y-60731522D01*
X89500776Y-60794781D01*
X89318386Y-60887715D01*
X89152786Y-61008028D01*
X89008028Y-61152786D01*
X88887715Y-61318386D01*
X88794781Y-61500776D01*
X88731522Y-61695465D01*
X88699500Y-61897648D01*
X82214179Y-61897648D01*
X82252994Y-61875238D01*
X82487042Y-61695646D01*
X82695646Y-61487042D01*
X82875238Y-61252994D01*
X83022743Y-60997507D01*
X83135639Y-60724952D01*
X83211993Y-60439993D01*
X83250500Y-60147506D01*
X83250500Y-59852494D01*
X83226097Y-59667135D01*
X154674500Y-59667135D01*
X154674500Y-61412870D01*
X154674501Y-61412876D01*
X154680908Y-61472483D01*
X154731202Y-61607328D01*
X154731206Y-61607335D01*
X154817452Y-61722544D01*
X154817455Y-61722547D01*
X154932664Y-61808793D01*
X154932671Y-61808797D01*
X155067517Y-61859091D01*
X155067516Y-61859091D01*
X155074444Y-61859835D01*
X155127127Y-61865500D01*
X156872872Y-61865499D01*
X156932483Y-61859091D01*
X157067331Y-61808796D01*
X157182546Y-61722546D01*
X157268796Y-61607331D01*
X157319091Y-61472483D01*
X157325500Y-61412873D01*
X157325499Y-59667128D01*
X157319091Y-59607517D01*
X157268796Y-59472669D01*
X157268795Y-59472668D01*
X157268793Y-59472664D01*
X157182547Y-59357455D01*
X157182544Y-59357452D01*
X157067335Y-59271206D01*
X157067328Y-59271202D01*
X156932482Y-59220908D01*
X156932483Y-59220908D01*
X156872883Y-59214501D01*
X156872881Y-59214500D01*
X156872873Y-59214500D01*
X156872864Y-59214500D01*
X155127129Y-59214500D01*
X155127123Y-59214501D01*
X155067516Y-59220908D01*
X154932671Y-59271202D01*
X154932664Y-59271206D01*
X154817455Y-59357452D01*
X154817452Y-59357455D01*
X154731206Y-59472664D01*
X154731202Y-59472671D01*
X154680908Y-59607517D01*
X154674501Y-59667116D01*
X154674501Y-59667123D01*
X154674500Y-59667135D01*
X83226097Y-59667135D01*
X83211993Y-59560007D01*
X83135639Y-59275048D01*
X83022743Y-59002493D01*
X82875238Y-58747006D01*
X82695646Y-58512958D01*
X82695641Y-58512952D01*
X82487047Y-58304358D01*
X82487040Y-58304352D01*
X82252993Y-58124761D01*
X81997510Y-57977258D01*
X81997500Y-57977254D01*
X81724961Y-57864364D01*
X81724954Y-57864362D01*
X81724952Y-57864361D01*
X81439993Y-57788007D01*
X81391113Y-57781571D01*
X81147513Y-57749500D01*
X81147506Y-57749500D01*
X80852494Y-57749500D01*
X80852486Y-57749500D01*
X80574085Y-57786153D01*
X80560007Y-57788007D01*
X80275048Y-57864361D01*
X80275038Y-57864364D01*
X80002499Y-57977254D01*
X80002489Y-57977258D01*
X79747006Y-58124761D01*
X79512959Y-58304352D01*
X79512952Y-58304358D01*
X79304358Y-58512952D01*
X79304352Y-58512959D01*
X79124761Y-58747006D01*
X78977258Y-59002489D01*
X78977254Y-59002499D01*
X78864364Y-59275038D01*
X78864361Y-59275048D01*
X78811409Y-59472671D01*
X78788008Y-59560004D01*
X78788006Y-59560015D01*
X78749500Y-59852486D01*
X74500500Y-59852486D01*
X74500500Y-53435675D01*
X77674500Y-53435675D01*
X77674500Y-53644324D01*
X77707137Y-53850389D01*
X77771612Y-54048820D01*
X77832147Y-54167626D01*
X77866330Y-54234714D01*
X77988965Y-54403505D01*
X78136495Y-54551035D01*
X78305286Y-54673670D01*
X78388715Y-54716179D01*
X78491179Y-54768387D01*
X78491181Y-54768387D01*
X78491184Y-54768389D01*
X78597545Y-54802948D01*
X78689610Y-54832862D01*
X78895676Y-54865500D01*
X78895681Y-54865500D01*
X79104324Y-54865500D01*
X79310389Y-54832862D01*
X79508816Y-54768389D01*
X79694714Y-54673670D01*
X79863505Y-54551035D01*
X80011035Y-54403505D01*
X80133670Y-54234714D01*
X80228389Y-54048816D01*
X80292862Y-53850389D01*
X80307403Y-53758583D01*
X80325500Y-53644324D01*
X80325500Y-53435675D01*
X80292862Y-53229610D01*
X80253596Y-53108764D01*
X80228389Y-53031184D01*
X80228387Y-53031181D01*
X80228387Y-53031179D01*
X80161034Y-52898992D01*
X80133670Y-52845286D01*
X80011035Y-52676495D01*
X79863505Y-52528965D01*
X79694714Y-52406330D01*
X79632242Y-52374499D01*
X79508820Y-52311612D01*
X79310389Y-52247137D01*
X79104324Y-52214500D01*
X79104319Y-52214500D01*
X78895681Y-52214500D01*
X78895676Y-52214500D01*
X78689610Y-52247137D01*
X78491179Y-52311612D01*
X78305285Y-52406330D01*
X78136493Y-52528966D01*
X77988966Y-52676493D01*
X77866330Y-52845285D01*
X77771612Y-53031179D01*
X77707137Y-53229610D01*
X77674500Y-53435675D01*
X74500500Y-53435675D01*
X74500500Y-50202135D01*
X100434500Y-50202135D01*
X100434500Y-51797870D01*
X100434501Y-51797876D01*
X100440908Y-51857483D01*
X100491202Y-51992328D01*
X100491206Y-51992335D01*
X100577452Y-52107544D01*
X100577455Y-52107547D01*
X100692664Y-52193793D01*
X100692671Y-52193797D01*
X100827517Y-52244091D01*
X100827516Y-52244091D01*
X100834444Y-52244835D01*
X100887127Y-52250500D01*
X101955500Y-52250499D01*
X102022539Y-52270183D01*
X102068294Y-52322987D01*
X102079500Y-52374499D01*
X102079500Y-53794071D01*
X102095698Y-53875500D01*
X102095698Y-53875501D01*
X102104496Y-53919737D01*
X102104498Y-53919742D01*
X102131981Y-53986090D01*
X102153535Y-54038127D01*
X102221877Y-54140409D01*
X102224726Y-54144673D01*
X102224727Y-54144674D01*
X104182984Y-56102930D01*
X104216469Y-56164253D01*
X104216920Y-56166420D01*
X104230261Y-56233489D01*
X104230264Y-56233501D01*
X104290602Y-56379172D01*
X104290609Y-56379185D01*
X104378210Y-56510288D01*
X104378213Y-56510292D01*
X104489707Y-56621786D01*
X104489711Y-56621789D01*
X104620814Y-56709390D01*
X104620827Y-56709397D01*
X104724582Y-56752373D01*
X104766503Y-56769737D01*
X104921153Y-56800499D01*
X104921156Y-56800500D01*
X104921158Y-56800500D01*
X105078844Y-56800500D01*
X105078845Y-56800499D01*
X105233497Y-56769737D01*
X105379179Y-56709394D01*
X105510289Y-56621789D01*
X105621789Y-56510289D01*
X105709394Y-56379179D01*
X105769737Y-56233497D01*
X105800500Y-56078842D01*
X105800500Y-55921158D01*
X105800500Y-55921155D01*
X105800499Y-55921153D01*
X105775944Y-55797708D01*
X105769737Y-55766503D01*
X105730714Y-55672292D01*
X105709397Y-55620827D01*
X105709390Y-55620814D01*
X105621789Y-55489711D01*
X105621786Y-55489707D01*
X105510292Y-55378213D01*
X105510288Y-55378210D01*
X105476630Y-55355720D01*
X154675000Y-55355720D01*
X154675000Y-55564279D01*
X154707626Y-55770272D01*
X154772075Y-55968627D01*
X154866759Y-56154451D01*
X154902627Y-56203818D01*
X154902627Y-56203819D01*
X155476212Y-55630234D01*
X155487482Y-55672292D01*
X155559890Y-55797708D01*
X155662292Y-55900110D01*
X155787708Y-55972518D01*
X155829765Y-55983787D01*
X155256179Y-56557371D01*
X155256180Y-56557372D01*
X155305543Y-56593236D01*
X155305556Y-56593244D01*
X155491372Y-56687924D01*
X155689727Y-56752373D01*
X155895721Y-56785000D01*
X156104279Y-56785000D01*
X156310272Y-56752373D01*
X156508627Y-56687924D01*
X156694451Y-56593240D01*
X156743818Y-56557372D01*
X156743818Y-56557371D01*
X156170234Y-55983787D01*
X156212292Y-55972518D01*
X156337708Y-55900110D01*
X156440110Y-55797708D01*
X156512518Y-55672292D01*
X156523787Y-55630234D01*
X157097371Y-56203818D01*
X157097372Y-56203818D01*
X157133240Y-56154451D01*
X157227924Y-55968627D01*
X157292373Y-55770272D01*
X157325000Y-55564279D01*
X157325000Y-55355720D01*
X157292373Y-55149727D01*
X157227924Y-54951372D01*
X157133244Y-54765556D01*
X157133236Y-54765543D01*
X157097372Y-54716180D01*
X157097371Y-54716179D01*
X156523787Y-55289764D01*
X156512518Y-55247708D01*
X156440110Y-55122292D01*
X156337708Y-55019890D01*
X156212292Y-54947482D01*
X156170233Y-54936212D01*
X156743819Y-54362627D01*
X156694451Y-54326759D01*
X156508627Y-54232075D01*
X156310272Y-54167626D01*
X156104279Y-54135000D01*
X155895721Y-54135000D01*
X155689727Y-54167626D01*
X155491372Y-54232075D01*
X155305552Y-54326757D01*
X155256180Y-54362627D01*
X155829766Y-54936212D01*
X155787708Y-54947482D01*
X155662292Y-55019890D01*
X155559890Y-55122292D01*
X155487482Y-55247708D01*
X155476212Y-55289765D01*
X154902627Y-54716180D01*
X154866757Y-54765552D01*
X154772075Y-54951372D01*
X154707626Y-55149727D01*
X154675000Y-55355720D01*
X105476630Y-55355720D01*
X105379185Y-55290609D01*
X105379172Y-55290602D01*
X105233501Y-55230264D01*
X105233489Y-55230261D01*
X105166420Y-55216920D01*
X105104509Y-55184535D01*
X105102930Y-55182984D01*
X103416819Y-53496873D01*
X103383334Y-53435550D01*
X103380500Y-53409192D01*
X103380500Y-52263966D01*
X103400185Y-52196927D01*
X103452989Y-52151172D01*
X103522147Y-52141228D01*
X103551947Y-52149403D01*
X103700873Y-52211091D01*
X103866777Y-52244091D01*
X103898992Y-52250499D01*
X103898996Y-52250500D01*
X103898997Y-52250500D01*
X104101004Y-52250500D01*
X104101005Y-52250499D01*
X104299127Y-52211091D01*
X104485756Y-52133786D01*
X104653718Y-52021558D01*
X104796558Y-51878718D01*
X104908786Y-51710756D01*
X104986091Y-51524127D01*
X105025500Y-51326003D01*
X105025500Y-50673997D01*
X105025300Y-50672990D01*
X105025300Y-50672987D01*
X105021152Y-50652135D01*
X111699500Y-50652135D01*
X111699500Y-52347870D01*
X111699501Y-52347876D01*
X111705908Y-52407483D01*
X111756202Y-52542328D01*
X111756206Y-52542335D01*
X111842452Y-52657544D01*
X111842455Y-52657547D01*
X111957664Y-52743793D01*
X111957671Y-52743797D01*
X112092514Y-52794090D01*
X112092517Y-52794091D01*
X112092519Y-52794091D01*
X112098033Y-52795394D01*
X112158751Y-52829965D01*
X112191139Y-52891874D01*
X112184915Y-52961466D01*
X112155033Y-53003396D01*
X112156226Y-53004589D01*
X112008032Y-53152782D01*
X112008028Y-53152786D01*
X111887715Y-53318386D01*
X111794781Y-53500776D01*
X111731522Y-53695465D01*
X111699500Y-53897648D01*
X111699500Y-54102351D01*
X111731522Y-54304534D01*
X111794781Y-54499223D01*
X111858691Y-54624653D01*
X111883667Y-54673670D01*
X111887715Y-54681613D01*
X112008028Y-54847213D01*
X112152786Y-54991971D01*
X112307749Y-55104556D01*
X112318390Y-55112287D01*
X112434607Y-55171503D01*
X112500776Y-55205218D01*
X112500778Y-55205218D01*
X112500781Y-55205220D01*
X112586024Y-55232917D01*
X112695465Y-55268477D01*
X112796557Y-55284488D01*
X112897648Y-55300500D01*
X112897649Y-55300500D01*
X113102351Y-55300500D01*
X113102352Y-55300500D01*
X113304534Y-55268477D01*
X113499219Y-55205220D01*
X113681610Y-55112287D01*
X113808785Y-55019890D01*
X113847213Y-54991971D01*
X113847215Y-54991968D01*
X113847219Y-54991966D01*
X113991966Y-54847219D01*
X113991968Y-54847215D01*
X113991971Y-54847213D01*
X114051307Y-54765543D01*
X114112287Y-54681610D01*
X114205220Y-54499219D01*
X114268477Y-54304534D01*
X114300500Y-54102352D01*
X114300500Y-53897648D01*
X114284095Y-53794071D01*
X114268477Y-53695465D01*
X114205218Y-53500776D01*
X114133544Y-53360110D01*
X114112287Y-53318390D01*
X114095052Y-53294668D01*
X113991971Y-53152786D01*
X113843774Y-53004589D01*
X113845219Y-53003143D01*
X113811737Y-52951806D01*
X113811268Y-52881938D01*
X113848646Y-52822907D01*
X113901967Y-52795394D01*
X113907478Y-52794091D01*
X113907483Y-52794091D01*
X114042331Y-52743796D01*
X114157546Y-52657546D01*
X114243796Y-52542331D01*
X114294091Y-52407483D01*
X114300500Y-52347873D01*
X114300499Y-50652128D01*
X114294091Y-50592517D01*
X114250588Y-50475880D01*
X114243797Y-50457671D01*
X114243793Y-50457664D01*
X114157547Y-50342455D01*
X114157544Y-50342452D01*
X114042335Y-50256206D01*
X114042328Y-50256202D01*
X113907482Y-50205908D01*
X113907483Y-50205908D01*
X113847883Y-50199501D01*
X113847881Y-50199500D01*
X113847873Y-50199500D01*
X113847864Y-50199500D01*
X112152129Y-50199500D01*
X112152123Y-50199501D01*
X112092516Y-50205908D01*
X111957671Y-50256202D01*
X111957664Y-50256206D01*
X111842455Y-50342452D01*
X111842452Y-50342455D01*
X111756206Y-50457664D01*
X111756202Y-50457671D01*
X111705908Y-50592517D01*
X111699501Y-50652116D01*
X111699501Y-50652123D01*
X111699500Y-50652135D01*
X105021152Y-50652135D01*
X104986092Y-50475880D01*
X104986091Y-50475873D01*
X104908786Y-50289244D01*
X104908784Y-50289241D01*
X104908782Y-50289237D01*
X104796558Y-50121281D01*
X104653720Y-49978443D01*
X104517068Y-49887135D01*
X125749500Y-49887135D01*
X125749500Y-51032870D01*
X125749501Y-51032876D01*
X125755908Y-51092483D01*
X125806202Y-51227328D01*
X125806203Y-51227330D01*
X125806204Y-51227331D01*
X125807028Y-51228432D01*
X125807509Y-51229721D01*
X125810454Y-51235114D01*
X125809678Y-51235537D01*
X125831448Y-51293895D01*
X125822325Y-51350198D01*
X125788910Y-51430868D01*
X125788907Y-51430880D01*
X125749500Y-51628992D01*
X125749500Y-51831007D01*
X125788907Y-52029119D01*
X125788909Y-52029127D01*
X125866213Y-52215755D01*
X125919904Y-52296109D01*
X125940782Y-52362787D01*
X125922297Y-52430167D01*
X125919904Y-52433891D01*
X125866213Y-52514244D01*
X125788909Y-52700872D01*
X125788907Y-52700880D01*
X125749500Y-52898992D01*
X125749500Y-53101007D01*
X125788907Y-53299119D01*
X125788909Y-53299127D01*
X125866212Y-53485752D01*
X125866217Y-53485762D01*
X125978441Y-53653718D01*
X126121281Y-53796558D01*
X126289237Y-53908782D01*
X126289241Y-53908784D01*
X126289244Y-53908786D01*
X126475873Y-53986091D01*
X126673992Y-54025499D01*
X126673996Y-54025500D01*
X126673997Y-54025500D01*
X127326004Y-54025500D01*
X127326005Y-54025499D01*
X127524127Y-53986091D01*
X127710756Y-53908786D01*
X127878718Y-53796558D01*
X128021558Y-53653718D01*
X128133786Y-53485756D01*
X128211091Y-53299127D01*
X128250500Y-53101003D01*
X128250500Y-52898997D01*
X128249083Y-52891874D01*
X128217135Y-52731254D01*
X128211092Y-52700878D01*
X128211091Y-52700877D01*
X128211091Y-52700873D01*
X128198303Y-52670000D01*
X142419652Y-52670000D01*
X143509252Y-52670000D01*
X143487482Y-52707708D01*
X143450000Y-52847591D01*
X143450000Y-52992409D01*
X143487482Y-53132292D01*
X143509252Y-53170000D01*
X142419652Y-53170000D01*
X142439397Y-53294668D01*
X142439397Y-53294671D01*
X142517219Y-53534184D01*
X142631557Y-53758583D01*
X142779590Y-53962331D01*
X142779590Y-53962332D01*
X142957667Y-54140409D01*
X143161416Y-54288442D01*
X143385815Y-54402780D01*
X143625329Y-54480602D01*
X143750000Y-54500348D01*
X143750000Y-53410747D01*
X143787708Y-53432518D01*
X143927591Y-53470000D01*
X144072409Y-53470000D01*
X144212292Y-53432518D01*
X144250000Y-53410747D01*
X144250000Y-54500347D01*
X144374668Y-54480602D01*
X144374671Y-54480602D01*
X144614184Y-54402780D01*
X144817077Y-54299401D01*
X144817078Y-54299400D01*
X144838580Y-54288444D01*
X145042331Y-54140409D01*
X145042332Y-54140409D01*
X145220409Y-53962332D01*
X145220409Y-53962331D01*
X145368442Y-53758583D01*
X145482780Y-53534184D01*
X145560602Y-53294671D01*
X145560602Y-53294668D01*
X145580348Y-53170000D01*
X144490748Y-53170000D01*
X144512518Y-53132292D01*
X144550000Y-52992409D01*
X144550000Y-52847591D01*
X144512518Y-52707708D01*
X144490748Y-52670000D01*
X145580348Y-52670000D01*
X145560602Y-52545331D01*
X145560602Y-52545328D01*
X145482780Y-52305815D01*
X145368442Y-52081416D01*
X145220409Y-51877668D01*
X145220409Y-51877667D01*
X145042332Y-51699590D01*
X144838583Y-51551557D01*
X144614184Y-51437219D01*
X144374670Y-51359397D01*
X144250000Y-51339650D01*
X144250000Y-52429252D01*
X144212292Y-52407482D01*
X144072409Y-52370000D01*
X143927591Y-52370000D01*
X143787708Y-52407482D01*
X143750000Y-52429252D01*
X143750000Y-51339650D01*
X143625330Y-51359397D01*
X143625327Y-51359397D01*
X143385815Y-51437219D01*
X143161416Y-51551557D01*
X142957668Y-51699590D01*
X142957667Y-51699590D01*
X142779590Y-51877667D01*
X142779590Y-51877668D01*
X142631557Y-52081416D01*
X142517219Y-52305815D01*
X142439397Y-52545328D01*
X142439397Y-52545331D01*
X142419652Y-52670000D01*
X128198303Y-52670000D01*
X128133786Y-52514244D01*
X128080094Y-52433889D01*
X128059217Y-52367214D01*
X128077701Y-52299834D01*
X128080078Y-52296134D01*
X128133786Y-52215756D01*
X128211091Y-52029127D01*
X128250500Y-51831003D01*
X128250500Y-51628997D01*
X128211091Y-51430873D01*
X128177673Y-51350198D01*
X128170205Y-51280730D01*
X128189964Y-51235340D01*
X128189547Y-51235112D01*
X128192095Y-51230444D01*
X128192972Y-51228431D01*
X128193796Y-51227331D01*
X128244091Y-51092483D01*
X128250500Y-51032873D01*
X128250499Y-49887128D01*
X128244091Y-49827517D01*
X128236776Y-49807905D01*
X128193797Y-49692671D01*
X128193793Y-49692664D01*
X128107547Y-49577455D01*
X128107544Y-49577452D01*
X127992335Y-49491206D01*
X127992328Y-49491202D01*
X127857482Y-49440908D01*
X127857483Y-49440908D01*
X127797883Y-49434501D01*
X127797881Y-49434500D01*
X127797873Y-49434500D01*
X127797864Y-49434500D01*
X126202129Y-49434500D01*
X126202123Y-49434501D01*
X126142516Y-49440908D01*
X126007671Y-49491202D01*
X126007664Y-49491206D01*
X125892455Y-49577452D01*
X125892452Y-49577455D01*
X125806206Y-49692664D01*
X125806202Y-49692671D01*
X125755908Y-49827517D01*
X125751748Y-49866214D01*
X125749501Y-49887123D01*
X125749500Y-49887135D01*
X104517068Y-49887135D01*
X104485762Y-49866217D01*
X104485752Y-49866212D01*
X104299127Y-49788909D01*
X104299119Y-49788907D01*
X104101007Y-49749500D01*
X104101003Y-49749500D01*
X103898997Y-49749500D01*
X103898992Y-49749500D01*
X103700880Y-49788907D01*
X103700872Y-49788909D01*
X103514244Y-49866213D01*
X103433891Y-49919904D01*
X103367213Y-49940782D01*
X103299833Y-49922297D01*
X103296109Y-49919904D01*
X103215755Y-49866213D01*
X103029127Y-49788909D01*
X103029119Y-49788907D01*
X102831007Y-49749500D01*
X102831003Y-49749500D01*
X102628997Y-49749500D01*
X102628992Y-49749500D01*
X102430880Y-49788907D01*
X102430868Y-49788910D01*
X102350198Y-49822325D01*
X102280729Y-49829794D01*
X102235342Y-49810036D01*
X102235114Y-49810454D01*
X102230447Y-49807905D01*
X102228432Y-49807028D01*
X102227331Y-49806204D01*
X102227330Y-49806203D01*
X102227328Y-49806202D01*
X102092482Y-49755908D01*
X102092483Y-49755908D01*
X102032883Y-49749501D01*
X102032881Y-49749500D01*
X102032873Y-49749500D01*
X102032864Y-49749500D01*
X100887129Y-49749500D01*
X100887123Y-49749501D01*
X100827516Y-49755908D01*
X100692671Y-49806202D01*
X100692664Y-49806206D01*
X100577455Y-49892452D01*
X100577452Y-49892455D01*
X100491206Y-50007664D01*
X100491202Y-50007671D01*
X100440908Y-50142517D01*
X100434501Y-50202116D01*
X100434500Y-50202135D01*
X74500500Y-50202135D01*
X74500500Y-47587155D01*
X77675000Y-47587155D01*
X77675000Y-48210000D01*
X78509252Y-48210000D01*
X78487482Y-48247708D01*
X78450000Y-48387591D01*
X78450000Y-48532409D01*
X78487482Y-48672292D01*
X78509252Y-48710000D01*
X77675000Y-48710000D01*
X77675000Y-49332844D01*
X77681401Y-49392372D01*
X77681403Y-49392379D01*
X77731645Y-49527086D01*
X77731649Y-49527093D01*
X77817809Y-49642187D01*
X77817812Y-49642190D01*
X77932906Y-49728350D01*
X77932913Y-49728354D01*
X78067620Y-49778596D01*
X78067627Y-49778598D01*
X78127155Y-49784999D01*
X78127172Y-49785000D01*
X78750000Y-49785000D01*
X78750000Y-48950747D01*
X78787708Y-48972518D01*
X78927591Y-49010000D01*
X79072409Y-49010000D01*
X79212292Y-48972518D01*
X79250000Y-48950747D01*
X79250000Y-49785000D01*
X79872828Y-49785000D01*
X79872844Y-49784999D01*
X79932372Y-49778598D01*
X79932379Y-49778596D01*
X80067086Y-49728354D01*
X80067093Y-49728350D01*
X80182187Y-49642190D01*
X80182190Y-49642187D01*
X80268350Y-49527093D01*
X80268354Y-49527086D01*
X80318596Y-49392379D01*
X80318598Y-49392372D01*
X80324999Y-49332844D01*
X80325000Y-49332827D01*
X80325000Y-48710000D01*
X79490748Y-48710000D01*
X79512518Y-48672292D01*
X79550000Y-48532409D01*
X79550000Y-48387591D01*
X79512518Y-48247708D01*
X79490748Y-48210000D01*
X80325000Y-48210000D01*
X80325000Y-47587172D01*
X80324999Y-47587155D01*
X80318598Y-47527627D01*
X80318596Y-47527620D01*
X80268354Y-47392913D01*
X80268350Y-47392906D01*
X80182190Y-47277812D01*
X80182187Y-47277809D01*
X80067093Y-47191649D01*
X80067086Y-47191645D01*
X79932379Y-47141403D01*
X79932372Y-47141401D01*
X79872844Y-47135000D01*
X79250000Y-47135000D01*
X79250000Y-47969252D01*
X79212292Y-47947482D01*
X79072409Y-47910000D01*
X78927591Y-47910000D01*
X78787708Y-47947482D01*
X78750000Y-47969252D01*
X78750000Y-47135000D01*
X78127155Y-47135000D01*
X78067627Y-47141401D01*
X78067620Y-47141403D01*
X77932913Y-47191645D01*
X77932906Y-47191649D01*
X77817812Y-47277809D01*
X77817809Y-47277812D01*
X77731649Y-47392906D01*
X77731645Y-47392913D01*
X77681403Y-47527620D01*
X77681401Y-47527627D01*
X77675000Y-47587155D01*
X74500500Y-47587155D01*
X74500500Y-46258676D01*
X74520185Y-46191637D01*
X74536819Y-46170995D01*
X75786661Y-44921153D01*
X99199500Y-44921153D01*
X99199500Y-45078846D01*
X99230261Y-45233489D01*
X99230264Y-45233501D01*
X99290602Y-45379172D01*
X99290609Y-45379185D01*
X99378210Y-45510288D01*
X99378213Y-45510292D01*
X99489707Y-45621786D01*
X99489711Y-45621789D01*
X99620814Y-45709390D01*
X99620827Y-45709397D01*
X99766498Y-45769735D01*
X99766503Y-45769737D01*
X99921153Y-45800499D01*
X99921156Y-45800500D01*
X99921158Y-45800500D01*
X100078844Y-45800500D01*
X100078845Y-45800499D01*
X100233497Y-45769737D01*
X100379179Y-45709394D01*
X100436044Y-45671397D01*
X100454091Y-45665746D01*
X100470000Y-45655523D01*
X100500959Y-45651071D01*
X100502721Y-45650520D01*
X100504935Y-45650500D01*
X100679192Y-45650500D01*
X100746231Y-45670185D01*
X100766873Y-45686819D01*
X102315324Y-47235271D01*
X102315327Y-47235274D01*
X102315330Y-47235276D01*
X102394386Y-47288099D01*
X102421873Y-47306465D01*
X102540256Y-47355501D01*
X102540260Y-47355501D01*
X102540261Y-47355502D01*
X102665928Y-47380500D01*
X102665931Y-47380500D01*
X118736033Y-47380500D01*
X118803072Y-47400185D01*
X118848827Y-47452989D01*
X118858771Y-47522147D01*
X118850594Y-47551953D01*
X118788909Y-47700872D01*
X118788907Y-47700880D01*
X118749500Y-47898992D01*
X118749500Y-48101007D01*
X118788907Y-48299119D01*
X118788909Y-48299127D01*
X118866212Y-48485752D01*
X118866217Y-48485762D01*
X118978441Y-48653718D01*
X119121281Y-48796558D01*
X119289237Y-48908782D01*
X119289241Y-48908784D01*
X119289244Y-48908786D01*
X119475873Y-48986091D01*
X119596073Y-49010000D01*
X119673992Y-49025499D01*
X119673996Y-49025500D01*
X119673997Y-49025500D01*
X120326004Y-49025500D01*
X120326005Y-49025499D01*
X120524127Y-48986091D01*
X120710756Y-48908786D01*
X120878718Y-48796558D01*
X121021558Y-48653718D01*
X121133786Y-48485756D01*
X121211091Y-48299127D01*
X121250500Y-48101003D01*
X121250500Y-47898997D01*
X121211091Y-47700873D01*
X121149406Y-47551953D01*
X121133787Y-47514246D01*
X121133786Y-47514244D01*
X121080094Y-47433889D01*
X121059217Y-47367214D01*
X121077701Y-47299834D01*
X121080078Y-47296134D01*
X121133786Y-47215756D01*
X121211091Y-47029127D01*
X121250500Y-46831003D01*
X121250500Y-46628997D01*
X121211091Y-46430873D01*
X121177673Y-46350198D01*
X121170205Y-46280730D01*
X121189964Y-46235340D01*
X121189547Y-46235112D01*
X121192095Y-46230444D01*
X121192972Y-46228431D01*
X121193796Y-46227331D01*
X121244091Y-46092483D01*
X121250500Y-46032873D01*
X121250499Y-45688549D01*
X134299500Y-45688549D01*
X134299500Y-45911450D01*
X134299501Y-45911466D01*
X134328594Y-46132452D01*
X134328595Y-46132457D01*
X134328596Y-46132463D01*
X134354014Y-46227324D01*
X134386290Y-46347780D01*
X134386293Y-46347790D01*
X134424485Y-46439993D01*
X134471595Y-46553726D01*
X134583052Y-46746774D01*
X134583057Y-46746780D01*
X134583058Y-46746782D01*
X134718751Y-46923622D01*
X134718757Y-46923629D01*
X134876370Y-47081242D01*
X134876376Y-47081247D01*
X135053226Y-47216948D01*
X135246274Y-47328405D01*
X135372043Y-47380500D01*
X135419566Y-47400185D01*
X135452219Y-47413710D01*
X135667537Y-47471404D01*
X135888543Y-47500500D01*
X135888550Y-47500500D01*
X136111450Y-47500500D01*
X136111457Y-47500500D01*
X136332463Y-47471404D01*
X136547781Y-47413710D01*
X136753726Y-47328405D01*
X136946774Y-47216948D01*
X137123624Y-47081247D01*
X137281247Y-46923624D01*
X137416948Y-46746774D01*
X137528405Y-46553726D01*
X137613710Y-46347781D01*
X137671404Y-46132463D01*
X137700500Y-45911457D01*
X137700500Y-45852486D01*
X151749500Y-45852486D01*
X151749500Y-46147513D01*
X151775867Y-46347780D01*
X151788007Y-46439993D01*
X151838649Y-46628992D01*
X151864361Y-46724951D01*
X151864364Y-46724961D01*
X151977254Y-46997500D01*
X151977258Y-46997510D01*
X152124761Y-47252993D01*
X152304352Y-47487040D01*
X152304358Y-47487047D01*
X152512952Y-47695641D01*
X152512959Y-47695647D01*
X152747006Y-47875238D01*
X153002489Y-48022741D01*
X153002490Y-48022741D01*
X153002493Y-48022743D01*
X153275048Y-48135639D01*
X153560007Y-48211993D01*
X153852494Y-48250500D01*
X153852501Y-48250500D01*
X154147499Y-48250500D01*
X154147506Y-48250500D01*
X154439993Y-48211993D01*
X154724952Y-48135639D01*
X154997507Y-48022743D01*
X155252994Y-47875238D01*
X155487042Y-47695646D01*
X155695646Y-47487042D01*
X155875238Y-47252994D01*
X156022743Y-46997507D01*
X156135639Y-46724952D01*
X156211993Y-46439993D01*
X156250500Y-46147506D01*
X156250500Y-45852494D01*
X156211993Y-45560007D01*
X156135639Y-45275048D01*
X156022743Y-45002493D01*
X155975784Y-44921158D01*
X155875238Y-44747006D01*
X155695647Y-44512959D01*
X155695641Y-44512952D01*
X155487047Y-44304358D01*
X155487040Y-44304352D01*
X155252993Y-44124761D01*
X154997510Y-43977258D01*
X154997500Y-43977254D01*
X154724961Y-43864364D01*
X154724954Y-43864362D01*
X154724952Y-43864361D01*
X154439993Y-43788007D01*
X154391113Y-43781571D01*
X154147513Y-43749500D01*
X154147506Y-43749500D01*
X153852494Y-43749500D01*
X153852486Y-43749500D01*
X153574085Y-43786153D01*
X153560007Y-43788007D01*
X153275048Y-43864361D01*
X153275038Y-43864364D01*
X153002499Y-43977254D01*
X153002489Y-43977258D01*
X152747006Y-44124761D01*
X152512959Y-44304352D01*
X152512952Y-44304358D01*
X152304358Y-44512952D01*
X152304352Y-44512959D01*
X152124761Y-44747006D01*
X151977258Y-45002489D01*
X151977254Y-45002499D01*
X151864364Y-45275038D01*
X151864361Y-45275048D01*
X151812782Y-45467547D01*
X151788008Y-45560004D01*
X151788006Y-45560015D01*
X151749500Y-45852486D01*
X137700500Y-45852486D01*
X137700500Y-45688543D01*
X137671404Y-45467537D01*
X137613710Y-45252219D01*
X137528405Y-45046274D01*
X137416948Y-44853226D01*
X137350409Y-44766510D01*
X137281248Y-44676377D01*
X137281242Y-44676370D01*
X137123629Y-44518757D01*
X137123622Y-44518751D01*
X136946782Y-44383058D01*
X136946780Y-44383057D01*
X136946774Y-44383052D01*
X136753726Y-44271595D01*
X136753722Y-44271593D01*
X136547790Y-44186293D01*
X136547783Y-44186291D01*
X136547781Y-44186290D01*
X136332463Y-44128596D01*
X136332457Y-44128595D01*
X136332452Y-44128594D01*
X136111466Y-44099501D01*
X136111463Y-44099500D01*
X136111457Y-44099500D01*
X135888543Y-44099500D01*
X135888537Y-44099500D01*
X135888533Y-44099501D01*
X135667547Y-44128594D01*
X135667540Y-44128595D01*
X135667537Y-44128596D01*
X135452219Y-44186290D01*
X135452209Y-44186293D01*
X135246277Y-44271593D01*
X135246273Y-44271595D01*
X135053226Y-44383052D01*
X135053217Y-44383058D01*
X134876377Y-44518751D01*
X134876370Y-44518757D01*
X134718757Y-44676370D01*
X134718751Y-44676377D01*
X134583058Y-44853217D01*
X134583052Y-44853226D01*
X134471595Y-45046273D01*
X134471593Y-45046277D01*
X134386293Y-45252209D01*
X134386290Y-45252219D01*
X134328597Y-45467534D01*
X134328594Y-45467547D01*
X134299501Y-45688533D01*
X134299500Y-45688549D01*
X121250499Y-45688549D01*
X121250499Y-45379185D01*
X121250499Y-44887129D01*
X121250498Y-44887123D01*
X121250497Y-44887116D01*
X121244091Y-44827517D01*
X121221334Y-44766503D01*
X121193797Y-44692671D01*
X121193793Y-44692664D01*
X121107547Y-44577455D01*
X121107544Y-44577452D01*
X120992335Y-44491206D01*
X120992328Y-44491202D01*
X120857482Y-44440908D01*
X120857483Y-44440908D01*
X120797883Y-44434501D01*
X120797881Y-44434500D01*
X120797873Y-44434500D01*
X120797864Y-44434500D01*
X119202129Y-44434500D01*
X119202123Y-44434501D01*
X119142516Y-44440908D01*
X119007671Y-44491202D01*
X119007664Y-44491206D01*
X118892455Y-44577452D01*
X118892452Y-44577455D01*
X118806206Y-44692664D01*
X118806202Y-44692671D01*
X118755908Y-44827517D01*
X118749501Y-44887116D01*
X118749501Y-44887123D01*
X118749500Y-44887135D01*
X118749501Y-45955500D01*
X118729817Y-46022539D01*
X118677013Y-46068294D01*
X118625501Y-46079500D01*
X103050808Y-46079500D01*
X102983769Y-46059815D01*
X102963127Y-46043181D01*
X101414674Y-44494727D01*
X101414673Y-44494726D01*
X101409399Y-44491202D01*
X101308127Y-44423535D01*
X101189744Y-44374499D01*
X101189738Y-44374497D01*
X101064071Y-44349500D01*
X101064069Y-44349500D01*
X100504935Y-44349500D01*
X100437896Y-44329815D01*
X100436090Y-44328633D01*
X100379179Y-44290606D01*
X100379172Y-44290602D01*
X100233501Y-44230264D01*
X100233489Y-44230261D01*
X100078845Y-44199500D01*
X100078842Y-44199500D01*
X99921158Y-44199500D01*
X99921155Y-44199500D01*
X99766510Y-44230261D01*
X99766498Y-44230264D01*
X99620827Y-44290602D01*
X99620814Y-44290609D01*
X99489711Y-44378210D01*
X99489707Y-44378213D01*
X99378213Y-44489707D01*
X99378210Y-44489711D01*
X99290609Y-44620814D01*
X99290602Y-44620827D01*
X99230264Y-44766498D01*
X99230261Y-44766510D01*
X99199500Y-44921153D01*
X75786661Y-44921153D01*
X81170995Y-39536819D01*
X81232318Y-39503334D01*
X81258676Y-39500500D01*
X153741324Y-39500500D01*
X153808363Y-39520185D01*
G37*
%TD.AperFunction*%
%TD*%
M02*
