%TF.GenerationSoftware,KiCad,Pcbnew,9.0.1*%
%TF.CreationDate,2025-04-21T16:50:23+01:00*%
%TF.ProjectId,PCB_ControlLamparasSonido,5043425f-436f-46e7-9472-6f6c4c616d70,rev?*%
%TF.SameCoordinates,Original*%
%TF.FileFunction,Copper,L1,Top*%
%TF.FilePolarity,Positive*%
%FSLAX46Y46*%
G04 Gerber Fmt 4.6, Leading zero omitted, Abs format (unit mm)*
G04 Created by KiCad (PCBNEW 9.0.1) date 2025-04-21 16:50:23*
%MOMM*%
%LPD*%
G01*
G04 APERTURE LIST*
G04 Aperture macros list*
%AMRoundRect*
0 Rectangle with rounded corners*
0 $1 Rounding radius*
0 $2 $3 $4 $5 $6 $7 $8 $9 X,Y pos of 4 corners*
0 Add a 4 corners polygon primitive as box body*
4,1,4,$2,$3,$4,$5,$6,$7,$8,$9,$2,$3,0*
0 Add four circle primitives for the rounded corners*
1,1,$1+$1,$2,$3*
1,1,$1+$1,$4,$5*
1,1,$1+$1,$6,$7*
1,1,$1+$1,$8,$9*
0 Add four rect primitives between the rounded corners*
20,1,$1+$1,$2,$3,$4,$5,0*
20,1,$1+$1,$4,$5,$6,$7,0*
20,1,$1+$1,$6,$7,$8,$9,0*
20,1,$1+$1,$8,$9,$2,$3,0*%
G04 Aperture macros list end*
%ADD10C,0.100000*%
%ADD11C,0.150000*%
%ADD12C,0.300000*%
%ADD13C,0.400000*%
%TA.AperFunction,EtchedComponent*%
%ADD14C,0.381000*%
%TD*%
%TA.AperFunction,EtchedComponent*%
%ADD15C,0.200000*%
%TD*%
%TA.AperFunction,EtchedComponent*%
%ADD16C,0.400000*%
%TD*%
%TA.AperFunction,EtchedComponent*%
%ADD17C,0.100000*%
%TD*%
%TA.AperFunction,ComponentPad*%
%ADD18R,2.000000X1.905000*%
%TD*%
%TA.AperFunction,ComponentPad*%
%ADD19O,2.000000X1.905000*%
%TD*%
%TA.AperFunction,ComponentPad*%
%ADD20C,3.500000*%
%TD*%
%TA.AperFunction,SMDPad,CuDef*%
%ADD21RoundRect,0.250000X-0.262500X-0.450000X0.262500X-0.450000X0.262500X0.450000X-0.262500X0.450000X0*%
%TD*%
%TA.AperFunction,ComponentPad*%
%ADD22R,1.500000X1.050000*%
%TD*%
%TA.AperFunction,ComponentPad*%
%ADD23O,1.500000X1.050000*%
%TD*%
%TA.AperFunction,SMDPad,CuDef*%
%ADD24RoundRect,0.250000X-0.450000X0.262500X-0.450000X-0.262500X0.450000X-0.262500X0.450000X0.262500X0*%
%TD*%
%TA.AperFunction,SMDPad,CuDef*%
%ADD25RoundRect,0.250000X0.650000X-0.325000X0.650000X0.325000X-0.650000X0.325000X-0.650000X-0.325000X0*%
%TD*%
%TA.AperFunction,ComponentPad*%
%ADD26R,1.378000X1.378000*%
%TD*%
%TA.AperFunction,ComponentPad*%
%ADD27C,1.378000*%
%TD*%
%TA.AperFunction,SMDPad,CuDef*%
%ADD28RoundRect,0.250000X-0.250000X-0.475000X0.250000X-0.475000X0.250000X0.475000X-0.250000X0.475000X0*%
%TD*%
%TA.AperFunction,SMDPad,CuDef*%
%ADD29RoundRect,0.250000X0.450000X-0.262500X0.450000X0.262500X-0.450000X0.262500X-0.450000X-0.262500X0*%
%TD*%
%TA.AperFunction,ComponentPad*%
%ADD30R,1.650000X1.650000*%
%TD*%
%TA.AperFunction,ComponentPad*%
%ADD31C,1.650000*%
%TD*%
%TA.AperFunction,SMDPad,CuDef*%
%ADD32RoundRect,0.250000X0.250000X0.475000X-0.250000X0.475000X-0.250000X-0.475000X0.250000X-0.475000X0*%
%TD*%
%TA.AperFunction,ComponentPad*%
%ADD33R,2.200000X2.200000*%
%TD*%
%TA.AperFunction,ComponentPad*%
%ADD34O,2.200000X2.200000*%
%TD*%
%TA.AperFunction,ComponentPad*%
%ADD35R,1.600000X1.600000*%
%TD*%
%TA.AperFunction,ComponentPad*%
%ADD36C,1.600000*%
%TD*%
%TA.AperFunction,SMDPad,CuDef*%
%ADD37RoundRect,0.250000X0.262500X0.450000X-0.262500X0.450000X-0.262500X-0.450000X0.262500X-0.450000X0*%
%TD*%
%TA.AperFunction,ComponentPad*%
%ADD38O,1.600000X1.600000*%
%TD*%
%TA.AperFunction,ComponentPad*%
%ADD39C,2.400000*%
%TD*%
%TA.AperFunction,ComponentPad*%
%ADD40O,2.400000X2.400000*%
%TD*%
%TA.AperFunction,SMDPad,CuDef*%
%ADD41RoundRect,0.250000X0.400000X0.600000X-0.400000X0.600000X-0.400000X-0.600000X0.400000X-0.600000X0*%
%TD*%
%TA.AperFunction,ComponentPad*%
%ADD42R,1.050000X1.500000*%
%TD*%
%TA.AperFunction,ComponentPad*%
%ADD43O,1.050000X1.500000*%
%TD*%
%TA.AperFunction,ViaPad*%
%ADD44C,0.600000*%
%TD*%
%TA.AperFunction,Conductor*%
%ADD45C,0.900000*%
%TD*%
%TA.AperFunction,Conductor*%
%ADD46C,0.300000*%
%TD*%
G04 APERTURE END LIST*
D10*
D11*
X177002200Y-166007200D02*
X285002200Y-166007200D01*
X285002200Y-198007200D01*
X177002200Y-198007200D01*
X177002200Y-166007200D01*
D10*
D11*
X10000000Y-10000000D02*
X287002200Y-10000000D01*
X287002200Y-200007200D01*
X10000000Y-200007200D01*
X10000000Y-10000000D01*
D10*
D11*
X12000000Y-12000000D02*
X285002200Y-12000000D01*
X285002200Y-198007200D01*
X12000000Y-198007200D01*
X12000000Y-12000000D01*
D10*
D11*
X60000000Y-12000000D02*
X60000000Y-10000000D01*
D10*
D11*
X110000000Y-12000000D02*
X110000000Y-10000000D01*
D10*
D11*
X160000000Y-12000000D02*
X160000000Y-10000000D01*
D10*
D11*
X210000000Y-12000000D02*
X210000000Y-10000000D01*
D10*
D11*
X260000000Y-12000000D02*
X260000000Y-10000000D01*
D10*
D11*
X36089160Y-11593604D02*
X35346303Y-11593604D01*
X35717731Y-11593604D02*
X35717731Y-10293604D01*
X35717731Y-10293604D02*
X35593922Y-10479319D01*
X35593922Y-10479319D02*
X35470112Y-10603128D01*
X35470112Y-10603128D02*
X35346303Y-10665033D01*
D10*
D11*
X85346303Y-10417414D02*
X85408207Y-10355509D01*
X85408207Y-10355509D02*
X85532017Y-10293604D01*
X85532017Y-10293604D02*
X85841541Y-10293604D01*
X85841541Y-10293604D02*
X85965350Y-10355509D01*
X85965350Y-10355509D02*
X86027255Y-10417414D01*
X86027255Y-10417414D02*
X86089160Y-10541223D01*
X86089160Y-10541223D02*
X86089160Y-10665033D01*
X86089160Y-10665033D02*
X86027255Y-10850747D01*
X86027255Y-10850747D02*
X85284398Y-11593604D01*
X85284398Y-11593604D02*
X86089160Y-11593604D01*
D10*
D11*
X135284398Y-10293604D02*
X136089160Y-10293604D01*
X136089160Y-10293604D02*
X135655826Y-10788842D01*
X135655826Y-10788842D02*
X135841541Y-10788842D01*
X135841541Y-10788842D02*
X135965350Y-10850747D01*
X135965350Y-10850747D02*
X136027255Y-10912652D01*
X136027255Y-10912652D02*
X136089160Y-11036461D01*
X136089160Y-11036461D02*
X136089160Y-11345985D01*
X136089160Y-11345985D02*
X136027255Y-11469795D01*
X136027255Y-11469795D02*
X135965350Y-11531700D01*
X135965350Y-11531700D02*
X135841541Y-11593604D01*
X135841541Y-11593604D02*
X135470112Y-11593604D01*
X135470112Y-11593604D02*
X135346303Y-11531700D01*
X135346303Y-11531700D02*
X135284398Y-11469795D01*
D10*
D11*
X185965350Y-10726938D02*
X185965350Y-11593604D01*
X185655826Y-10231700D02*
X185346303Y-11160271D01*
X185346303Y-11160271D02*
X186151064Y-11160271D01*
D10*
D11*
X236027255Y-10293604D02*
X235408207Y-10293604D01*
X235408207Y-10293604D02*
X235346303Y-10912652D01*
X235346303Y-10912652D02*
X235408207Y-10850747D01*
X235408207Y-10850747D02*
X235532017Y-10788842D01*
X235532017Y-10788842D02*
X235841541Y-10788842D01*
X235841541Y-10788842D02*
X235965350Y-10850747D01*
X235965350Y-10850747D02*
X236027255Y-10912652D01*
X236027255Y-10912652D02*
X236089160Y-11036461D01*
X236089160Y-11036461D02*
X236089160Y-11345985D01*
X236089160Y-11345985D02*
X236027255Y-11469795D01*
X236027255Y-11469795D02*
X235965350Y-11531700D01*
X235965350Y-11531700D02*
X235841541Y-11593604D01*
X235841541Y-11593604D02*
X235532017Y-11593604D01*
X235532017Y-11593604D02*
X235408207Y-11531700D01*
X235408207Y-11531700D02*
X235346303Y-11469795D01*
D10*
D11*
X285965350Y-10293604D02*
X285717731Y-10293604D01*
X285717731Y-10293604D02*
X285593922Y-10355509D01*
X285593922Y-10355509D02*
X285532017Y-10417414D01*
X285532017Y-10417414D02*
X285408207Y-10603128D01*
X285408207Y-10603128D02*
X285346303Y-10850747D01*
X285346303Y-10850747D02*
X285346303Y-11345985D01*
X285346303Y-11345985D02*
X285408207Y-11469795D01*
X285408207Y-11469795D02*
X285470112Y-11531700D01*
X285470112Y-11531700D02*
X285593922Y-11593604D01*
X285593922Y-11593604D02*
X285841541Y-11593604D01*
X285841541Y-11593604D02*
X285965350Y-11531700D01*
X285965350Y-11531700D02*
X286027255Y-11469795D01*
X286027255Y-11469795D02*
X286089160Y-11345985D01*
X286089160Y-11345985D02*
X286089160Y-11036461D01*
X286089160Y-11036461D02*
X286027255Y-10912652D01*
X286027255Y-10912652D02*
X285965350Y-10850747D01*
X285965350Y-10850747D02*
X285841541Y-10788842D01*
X285841541Y-10788842D02*
X285593922Y-10788842D01*
X285593922Y-10788842D02*
X285470112Y-10850747D01*
X285470112Y-10850747D02*
X285408207Y-10912652D01*
X285408207Y-10912652D02*
X285346303Y-11036461D01*
D10*
D11*
X60000000Y-198007200D02*
X60000000Y-200007200D01*
D10*
D11*
X110000000Y-198007200D02*
X110000000Y-200007200D01*
D10*
D11*
X160000000Y-198007200D02*
X160000000Y-200007200D01*
D10*
D11*
X210000000Y-198007200D02*
X210000000Y-200007200D01*
D10*
D11*
X260000000Y-198007200D02*
X260000000Y-200007200D01*
D10*
D11*
X36089160Y-199600804D02*
X35346303Y-199600804D01*
X35717731Y-199600804D02*
X35717731Y-198300804D01*
X35717731Y-198300804D02*
X35593922Y-198486519D01*
X35593922Y-198486519D02*
X35470112Y-198610328D01*
X35470112Y-198610328D02*
X35346303Y-198672233D01*
D10*
D11*
X85346303Y-198424614D02*
X85408207Y-198362709D01*
X85408207Y-198362709D02*
X85532017Y-198300804D01*
X85532017Y-198300804D02*
X85841541Y-198300804D01*
X85841541Y-198300804D02*
X85965350Y-198362709D01*
X85965350Y-198362709D02*
X86027255Y-198424614D01*
X86027255Y-198424614D02*
X86089160Y-198548423D01*
X86089160Y-198548423D02*
X86089160Y-198672233D01*
X86089160Y-198672233D02*
X86027255Y-198857947D01*
X86027255Y-198857947D02*
X85284398Y-199600804D01*
X85284398Y-199600804D02*
X86089160Y-199600804D01*
D10*
D11*
X135284398Y-198300804D02*
X136089160Y-198300804D01*
X136089160Y-198300804D02*
X135655826Y-198796042D01*
X135655826Y-198796042D02*
X135841541Y-198796042D01*
X135841541Y-198796042D02*
X135965350Y-198857947D01*
X135965350Y-198857947D02*
X136027255Y-198919852D01*
X136027255Y-198919852D02*
X136089160Y-199043661D01*
X136089160Y-199043661D02*
X136089160Y-199353185D01*
X136089160Y-199353185D02*
X136027255Y-199476995D01*
X136027255Y-199476995D02*
X135965350Y-199538900D01*
X135965350Y-199538900D02*
X135841541Y-199600804D01*
X135841541Y-199600804D02*
X135470112Y-199600804D01*
X135470112Y-199600804D02*
X135346303Y-199538900D01*
X135346303Y-199538900D02*
X135284398Y-199476995D01*
D10*
D11*
X185965350Y-198734138D02*
X185965350Y-199600804D01*
X185655826Y-198238900D02*
X185346303Y-199167471D01*
X185346303Y-199167471D02*
X186151064Y-199167471D01*
D10*
D11*
X236027255Y-198300804D02*
X235408207Y-198300804D01*
X235408207Y-198300804D02*
X235346303Y-198919852D01*
X235346303Y-198919852D02*
X235408207Y-198857947D01*
X235408207Y-198857947D02*
X235532017Y-198796042D01*
X235532017Y-198796042D02*
X235841541Y-198796042D01*
X235841541Y-198796042D02*
X235965350Y-198857947D01*
X235965350Y-198857947D02*
X236027255Y-198919852D01*
X236027255Y-198919852D02*
X236089160Y-199043661D01*
X236089160Y-199043661D02*
X236089160Y-199353185D01*
X236089160Y-199353185D02*
X236027255Y-199476995D01*
X236027255Y-199476995D02*
X235965350Y-199538900D01*
X235965350Y-199538900D02*
X235841541Y-199600804D01*
X235841541Y-199600804D02*
X235532017Y-199600804D01*
X235532017Y-199600804D02*
X235408207Y-199538900D01*
X235408207Y-199538900D02*
X235346303Y-199476995D01*
D10*
D11*
X285965350Y-198300804D02*
X285717731Y-198300804D01*
X285717731Y-198300804D02*
X285593922Y-198362709D01*
X285593922Y-198362709D02*
X285532017Y-198424614D01*
X285532017Y-198424614D02*
X285408207Y-198610328D01*
X285408207Y-198610328D02*
X285346303Y-198857947D01*
X285346303Y-198857947D02*
X285346303Y-199353185D01*
X285346303Y-199353185D02*
X285408207Y-199476995D01*
X285408207Y-199476995D02*
X285470112Y-199538900D01*
X285470112Y-199538900D02*
X285593922Y-199600804D01*
X285593922Y-199600804D02*
X285841541Y-199600804D01*
X285841541Y-199600804D02*
X285965350Y-199538900D01*
X285965350Y-199538900D02*
X286027255Y-199476995D01*
X286027255Y-199476995D02*
X286089160Y-199353185D01*
X286089160Y-199353185D02*
X286089160Y-199043661D01*
X286089160Y-199043661D02*
X286027255Y-198919852D01*
X286027255Y-198919852D02*
X285965350Y-198857947D01*
X285965350Y-198857947D02*
X285841541Y-198796042D01*
X285841541Y-198796042D02*
X285593922Y-198796042D01*
X285593922Y-198796042D02*
X285470112Y-198857947D01*
X285470112Y-198857947D02*
X285408207Y-198919852D01*
X285408207Y-198919852D02*
X285346303Y-199043661D01*
D10*
D11*
X10000000Y-60000000D02*
X12000000Y-60000000D01*
D10*
D11*
X10000000Y-110000000D02*
X12000000Y-110000000D01*
D10*
D11*
X10000000Y-160000000D02*
X12000000Y-160000000D01*
D10*
D11*
X10690476Y-35222176D02*
X11309523Y-35222176D01*
X10566666Y-35593604D02*
X10999999Y-34293604D01*
X10999999Y-34293604D02*
X11433333Y-35593604D01*
D10*
D11*
X11092857Y-84912652D02*
X11278571Y-84974557D01*
X11278571Y-84974557D02*
X11340476Y-85036461D01*
X11340476Y-85036461D02*
X11402380Y-85160271D01*
X11402380Y-85160271D02*
X11402380Y-85345985D01*
X11402380Y-85345985D02*
X11340476Y-85469795D01*
X11340476Y-85469795D02*
X11278571Y-85531700D01*
X11278571Y-85531700D02*
X11154761Y-85593604D01*
X11154761Y-85593604D02*
X10659523Y-85593604D01*
X10659523Y-85593604D02*
X10659523Y-84293604D01*
X10659523Y-84293604D02*
X11092857Y-84293604D01*
X11092857Y-84293604D02*
X11216666Y-84355509D01*
X11216666Y-84355509D02*
X11278571Y-84417414D01*
X11278571Y-84417414D02*
X11340476Y-84541223D01*
X11340476Y-84541223D02*
X11340476Y-84665033D01*
X11340476Y-84665033D02*
X11278571Y-84788842D01*
X11278571Y-84788842D02*
X11216666Y-84850747D01*
X11216666Y-84850747D02*
X11092857Y-84912652D01*
X11092857Y-84912652D02*
X10659523Y-84912652D01*
D10*
D11*
X11402380Y-135469795D02*
X11340476Y-135531700D01*
X11340476Y-135531700D02*
X11154761Y-135593604D01*
X11154761Y-135593604D02*
X11030952Y-135593604D01*
X11030952Y-135593604D02*
X10845238Y-135531700D01*
X10845238Y-135531700D02*
X10721428Y-135407890D01*
X10721428Y-135407890D02*
X10659523Y-135284080D01*
X10659523Y-135284080D02*
X10597619Y-135036461D01*
X10597619Y-135036461D02*
X10597619Y-134850747D01*
X10597619Y-134850747D02*
X10659523Y-134603128D01*
X10659523Y-134603128D02*
X10721428Y-134479319D01*
X10721428Y-134479319D02*
X10845238Y-134355509D01*
X10845238Y-134355509D02*
X11030952Y-134293604D01*
X11030952Y-134293604D02*
X11154761Y-134293604D01*
X11154761Y-134293604D02*
X11340476Y-134355509D01*
X11340476Y-134355509D02*
X11402380Y-134417414D01*
D10*
D11*
X10659523Y-185593604D02*
X10659523Y-184293604D01*
X10659523Y-184293604D02*
X10969047Y-184293604D01*
X10969047Y-184293604D02*
X11154761Y-184355509D01*
X11154761Y-184355509D02*
X11278571Y-184479319D01*
X11278571Y-184479319D02*
X11340476Y-184603128D01*
X11340476Y-184603128D02*
X11402380Y-184850747D01*
X11402380Y-184850747D02*
X11402380Y-185036461D01*
X11402380Y-185036461D02*
X11340476Y-185284080D01*
X11340476Y-185284080D02*
X11278571Y-185407890D01*
X11278571Y-185407890D02*
X11154761Y-185531700D01*
X11154761Y-185531700D02*
X10969047Y-185593604D01*
X10969047Y-185593604D02*
X10659523Y-185593604D01*
D10*
D11*
X287002200Y-60000000D02*
X285002200Y-60000000D01*
D10*
D11*
X287002200Y-110000000D02*
X285002200Y-110000000D01*
D10*
D11*
X287002200Y-160000000D02*
X285002200Y-160000000D01*
D10*
D11*
X285692676Y-35222176D02*
X286311723Y-35222176D01*
X285568866Y-35593604D02*
X286002199Y-34293604D01*
X286002199Y-34293604D02*
X286435533Y-35593604D01*
D10*
D11*
X286095057Y-84912652D02*
X286280771Y-84974557D01*
X286280771Y-84974557D02*
X286342676Y-85036461D01*
X286342676Y-85036461D02*
X286404580Y-85160271D01*
X286404580Y-85160271D02*
X286404580Y-85345985D01*
X286404580Y-85345985D02*
X286342676Y-85469795D01*
X286342676Y-85469795D02*
X286280771Y-85531700D01*
X286280771Y-85531700D02*
X286156961Y-85593604D01*
X286156961Y-85593604D02*
X285661723Y-85593604D01*
X285661723Y-85593604D02*
X285661723Y-84293604D01*
X285661723Y-84293604D02*
X286095057Y-84293604D01*
X286095057Y-84293604D02*
X286218866Y-84355509D01*
X286218866Y-84355509D02*
X286280771Y-84417414D01*
X286280771Y-84417414D02*
X286342676Y-84541223D01*
X286342676Y-84541223D02*
X286342676Y-84665033D01*
X286342676Y-84665033D02*
X286280771Y-84788842D01*
X286280771Y-84788842D02*
X286218866Y-84850747D01*
X286218866Y-84850747D02*
X286095057Y-84912652D01*
X286095057Y-84912652D02*
X285661723Y-84912652D01*
D10*
D11*
X286404580Y-135469795D02*
X286342676Y-135531700D01*
X286342676Y-135531700D02*
X286156961Y-135593604D01*
X286156961Y-135593604D02*
X286033152Y-135593604D01*
X286033152Y-135593604D02*
X285847438Y-135531700D01*
X285847438Y-135531700D02*
X285723628Y-135407890D01*
X285723628Y-135407890D02*
X285661723Y-135284080D01*
X285661723Y-135284080D02*
X285599819Y-135036461D01*
X285599819Y-135036461D02*
X285599819Y-134850747D01*
X285599819Y-134850747D02*
X285661723Y-134603128D01*
X285661723Y-134603128D02*
X285723628Y-134479319D01*
X285723628Y-134479319D02*
X285847438Y-134355509D01*
X285847438Y-134355509D02*
X286033152Y-134293604D01*
X286033152Y-134293604D02*
X286156961Y-134293604D01*
X286156961Y-134293604D02*
X286342676Y-134355509D01*
X286342676Y-134355509D02*
X286404580Y-134417414D01*
D10*
D11*
X285661723Y-185593604D02*
X285661723Y-184293604D01*
X285661723Y-184293604D02*
X285971247Y-184293604D01*
X285971247Y-184293604D02*
X286156961Y-184355509D01*
X286156961Y-184355509D02*
X286280771Y-184479319D01*
X286280771Y-184479319D02*
X286342676Y-184603128D01*
X286342676Y-184603128D02*
X286404580Y-184850747D01*
X286404580Y-184850747D02*
X286404580Y-185036461D01*
X286404580Y-185036461D02*
X286342676Y-185284080D01*
X286342676Y-185284080D02*
X286280771Y-185407890D01*
X286280771Y-185407890D02*
X286156961Y-185531700D01*
X286156961Y-185531700D02*
X285971247Y-185593604D01*
X285971247Y-185593604D02*
X285661723Y-185593604D01*
D10*
D11*
X200458026Y-193793328D02*
X200458026Y-192293328D01*
X200458026Y-192293328D02*
X200815169Y-192293328D01*
X200815169Y-192293328D02*
X201029455Y-192364757D01*
X201029455Y-192364757D02*
X201172312Y-192507614D01*
X201172312Y-192507614D02*
X201243741Y-192650471D01*
X201243741Y-192650471D02*
X201315169Y-192936185D01*
X201315169Y-192936185D02*
X201315169Y-193150471D01*
X201315169Y-193150471D02*
X201243741Y-193436185D01*
X201243741Y-193436185D02*
X201172312Y-193579042D01*
X201172312Y-193579042D02*
X201029455Y-193721900D01*
X201029455Y-193721900D02*
X200815169Y-193793328D01*
X200815169Y-193793328D02*
X200458026Y-193793328D01*
X202600884Y-193793328D02*
X202600884Y-193007614D01*
X202600884Y-193007614D02*
X202529455Y-192864757D01*
X202529455Y-192864757D02*
X202386598Y-192793328D01*
X202386598Y-192793328D02*
X202100884Y-192793328D01*
X202100884Y-192793328D02*
X201958026Y-192864757D01*
X202600884Y-193721900D02*
X202458026Y-193793328D01*
X202458026Y-193793328D02*
X202100884Y-193793328D01*
X202100884Y-193793328D02*
X201958026Y-193721900D01*
X201958026Y-193721900D02*
X201886598Y-193579042D01*
X201886598Y-193579042D02*
X201886598Y-193436185D01*
X201886598Y-193436185D02*
X201958026Y-193293328D01*
X201958026Y-193293328D02*
X202100884Y-193221900D01*
X202100884Y-193221900D02*
X202458026Y-193221900D01*
X202458026Y-193221900D02*
X202600884Y-193150471D01*
X203100884Y-192793328D02*
X203672312Y-192793328D01*
X203315169Y-192293328D02*
X203315169Y-193579042D01*
X203315169Y-193579042D02*
X203386598Y-193721900D01*
X203386598Y-193721900D02*
X203529455Y-193793328D01*
X203529455Y-193793328D02*
X203672312Y-193793328D01*
X204743741Y-193721900D02*
X204600884Y-193793328D01*
X204600884Y-193793328D02*
X204315170Y-193793328D01*
X204315170Y-193793328D02*
X204172312Y-193721900D01*
X204172312Y-193721900D02*
X204100884Y-193579042D01*
X204100884Y-193579042D02*
X204100884Y-193007614D01*
X204100884Y-193007614D02*
X204172312Y-192864757D01*
X204172312Y-192864757D02*
X204315170Y-192793328D01*
X204315170Y-192793328D02*
X204600884Y-192793328D01*
X204600884Y-192793328D02*
X204743741Y-192864757D01*
X204743741Y-192864757D02*
X204815170Y-193007614D01*
X204815170Y-193007614D02*
X204815170Y-193150471D01*
X204815170Y-193150471D02*
X204100884Y-193293328D01*
X205458026Y-193650471D02*
X205529455Y-193721900D01*
X205529455Y-193721900D02*
X205458026Y-193793328D01*
X205458026Y-193793328D02*
X205386598Y-193721900D01*
X205386598Y-193721900D02*
X205458026Y-193650471D01*
X205458026Y-193650471D02*
X205458026Y-193793328D01*
X205458026Y-192864757D02*
X205529455Y-192936185D01*
X205529455Y-192936185D02*
X205458026Y-193007614D01*
X205458026Y-193007614D02*
X205386598Y-192936185D01*
X205386598Y-192936185D02*
X205458026Y-192864757D01*
X205458026Y-192864757D02*
X205458026Y-193007614D01*
D10*
D11*
X177002200Y-194507200D02*
X285002200Y-194507200D01*
D10*
D11*
X178458026Y-196593328D02*
X178458026Y-195093328D01*
X179315169Y-196593328D02*
X178672312Y-195736185D01*
X179315169Y-195093328D02*
X178458026Y-195950471D01*
X179958026Y-196593328D02*
X179958026Y-195593328D01*
X179958026Y-195093328D02*
X179886598Y-195164757D01*
X179886598Y-195164757D02*
X179958026Y-195236185D01*
X179958026Y-195236185D02*
X180029455Y-195164757D01*
X180029455Y-195164757D02*
X179958026Y-195093328D01*
X179958026Y-195093328D02*
X179958026Y-195236185D01*
X181529455Y-196450471D02*
X181458027Y-196521900D01*
X181458027Y-196521900D02*
X181243741Y-196593328D01*
X181243741Y-196593328D02*
X181100884Y-196593328D01*
X181100884Y-196593328D02*
X180886598Y-196521900D01*
X180886598Y-196521900D02*
X180743741Y-196379042D01*
X180743741Y-196379042D02*
X180672312Y-196236185D01*
X180672312Y-196236185D02*
X180600884Y-195950471D01*
X180600884Y-195950471D02*
X180600884Y-195736185D01*
X180600884Y-195736185D02*
X180672312Y-195450471D01*
X180672312Y-195450471D02*
X180743741Y-195307614D01*
X180743741Y-195307614D02*
X180886598Y-195164757D01*
X180886598Y-195164757D02*
X181100884Y-195093328D01*
X181100884Y-195093328D02*
X181243741Y-195093328D01*
X181243741Y-195093328D02*
X181458027Y-195164757D01*
X181458027Y-195164757D02*
X181529455Y-195236185D01*
X182815170Y-196593328D02*
X182815170Y-195807614D01*
X182815170Y-195807614D02*
X182743741Y-195664757D01*
X182743741Y-195664757D02*
X182600884Y-195593328D01*
X182600884Y-195593328D02*
X182315170Y-195593328D01*
X182315170Y-195593328D02*
X182172312Y-195664757D01*
X182815170Y-196521900D02*
X182672312Y-196593328D01*
X182672312Y-196593328D02*
X182315170Y-196593328D01*
X182315170Y-196593328D02*
X182172312Y-196521900D01*
X182172312Y-196521900D02*
X182100884Y-196379042D01*
X182100884Y-196379042D02*
X182100884Y-196236185D01*
X182100884Y-196236185D02*
X182172312Y-196093328D01*
X182172312Y-196093328D02*
X182315170Y-196021900D01*
X182315170Y-196021900D02*
X182672312Y-196021900D01*
X182672312Y-196021900D02*
X182815170Y-195950471D01*
X184172313Y-196593328D02*
X184172313Y-195093328D01*
X184172313Y-196521900D02*
X184029455Y-196593328D01*
X184029455Y-196593328D02*
X183743741Y-196593328D01*
X183743741Y-196593328D02*
X183600884Y-196521900D01*
X183600884Y-196521900D02*
X183529455Y-196450471D01*
X183529455Y-196450471D02*
X183458027Y-196307614D01*
X183458027Y-196307614D02*
X183458027Y-195879042D01*
X183458027Y-195879042D02*
X183529455Y-195736185D01*
X183529455Y-195736185D02*
X183600884Y-195664757D01*
X183600884Y-195664757D02*
X183743741Y-195593328D01*
X183743741Y-195593328D02*
X184029455Y-195593328D01*
X184029455Y-195593328D02*
X184172313Y-195664757D01*
X186029455Y-195807614D02*
X186529455Y-195807614D01*
X186743741Y-196593328D02*
X186029455Y-196593328D01*
X186029455Y-196593328D02*
X186029455Y-195093328D01*
X186029455Y-195093328D02*
X186743741Y-195093328D01*
X187386598Y-196450471D02*
X187458027Y-196521900D01*
X187458027Y-196521900D02*
X187386598Y-196593328D01*
X187386598Y-196593328D02*
X187315170Y-196521900D01*
X187315170Y-196521900D02*
X187386598Y-196450471D01*
X187386598Y-196450471D02*
X187386598Y-196593328D01*
X188100884Y-196593328D02*
X188100884Y-195093328D01*
X188100884Y-195093328D02*
X188458027Y-195093328D01*
X188458027Y-195093328D02*
X188672313Y-195164757D01*
X188672313Y-195164757D02*
X188815170Y-195307614D01*
X188815170Y-195307614D02*
X188886599Y-195450471D01*
X188886599Y-195450471D02*
X188958027Y-195736185D01*
X188958027Y-195736185D02*
X188958027Y-195950471D01*
X188958027Y-195950471D02*
X188886599Y-196236185D01*
X188886599Y-196236185D02*
X188815170Y-196379042D01*
X188815170Y-196379042D02*
X188672313Y-196521900D01*
X188672313Y-196521900D02*
X188458027Y-196593328D01*
X188458027Y-196593328D02*
X188100884Y-196593328D01*
X189600884Y-196450471D02*
X189672313Y-196521900D01*
X189672313Y-196521900D02*
X189600884Y-196593328D01*
X189600884Y-196593328D02*
X189529456Y-196521900D01*
X189529456Y-196521900D02*
X189600884Y-196450471D01*
X189600884Y-196450471D02*
X189600884Y-196593328D01*
X190243742Y-196164757D02*
X190958028Y-196164757D01*
X190100885Y-196593328D02*
X190600885Y-195093328D01*
X190600885Y-195093328D02*
X191100885Y-196593328D01*
X191600884Y-196450471D02*
X191672313Y-196521900D01*
X191672313Y-196521900D02*
X191600884Y-196593328D01*
X191600884Y-196593328D02*
X191529456Y-196521900D01*
X191529456Y-196521900D02*
X191600884Y-196450471D01*
X191600884Y-196450471D02*
X191600884Y-196593328D01*
X193529456Y-196593328D02*
X193815170Y-196593328D01*
X193815170Y-196593328D02*
X193958027Y-196521900D01*
X193958027Y-196521900D02*
X194029456Y-196450471D01*
X194029456Y-196450471D02*
X194172313Y-196236185D01*
X194172313Y-196236185D02*
X194243742Y-195950471D01*
X194243742Y-195950471D02*
X194243742Y-195379042D01*
X194243742Y-195379042D02*
X194172313Y-195236185D01*
X194172313Y-195236185D02*
X194100885Y-195164757D01*
X194100885Y-195164757D02*
X193958027Y-195093328D01*
X193958027Y-195093328D02*
X193672313Y-195093328D01*
X193672313Y-195093328D02*
X193529456Y-195164757D01*
X193529456Y-195164757D02*
X193458027Y-195236185D01*
X193458027Y-195236185D02*
X193386599Y-195379042D01*
X193386599Y-195379042D02*
X193386599Y-195736185D01*
X193386599Y-195736185D02*
X193458027Y-195879042D01*
X193458027Y-195879042D02*
X193529456Y-195950471D01*
X193529456Y-195950471D02*
X193672313Y-196021900D01*
X193672313Y-196021900D02*
X193958027Y-196021900D01*
X193958027Y-196021900D02*
X194100885Y-195950471D01*
X194100885Y-195950471D02*
X194172313Y-195879042D01*
X194172313Y-195879042D02*
X194243742Y-195736185D01*
X194886598Y-196450471D02*
X194958027Y-196521900D01*
X194958027Y-196521900D02*
X194886598Y-196593328D01*
X194886598Y-196593328D02*
X194815170Y-196521900D01*
X194815170Y-196521900D02*
X194886598Y-196450471D01*
X194886598Y-196450471D02*
X194886598Y-196593328D01*
X195886599Y-195093328D02*
X196029456Y-195093328D01*
X196029456Y-195093328D02*
X196172313Y-195164757D01*
X196172313Y-195164757D02*
X196243742Y-195236185D01*
X196243742Y-195236185D02*
X196315170Y-195379042D01*
X196315170Y-195379042D02*
X196386599Y-195664757D01*
X196386599Y-195664757D02*
X196386599Y-196021900D01*
X196386599Y-196021900D02*
X196315170Y-196307614D01*
X196315170Y-196307614D02*
X196243742Y-196450471D01*
X196243742Y-196450471D02*
X196172313Y-196521900D01*
X196172313Y-196521900D02*
X196029456Y-196593328D01*
X196029456Y-196593328D02*
X195886599Y-196593328D01*
X195886599Y-196593328D02*
X195743742Y-196521900D01*
X195743742Y-196521900D02*
X195672313Y-196450471D01*
X195672313Y-196450471D02*
X195600884Y-196307614D01*
X195600884Y-196307614D02*
X195529456Y-196021900D01*
X195529456Y-196021900D02*
X195529456Y-195664757D01*
X195529456Y-195664757D02*
X195600884Y-195379042D01*
X195600884Y-195379042D02*
X195672313Y-195236185D01*
X195672313Y-195236185D02*
X195743742Y-195164757D01*
X195743742Y-195164757D02*
X195886599Y-195093328D01*
X197029455Y-196450471D02*
X197100884Y-196521900D01*
X197100884Y-196521900D02*
X197029455Y-196593328D01*
X197029455Y-196593328D02*
X196958027Y-196521900D01*
X196958027Y-196521900D02*
X197029455Y-196450471D01*
X197029455Y-196450471D02*
X197029455Y-196593328D01*
X198529456Y-196593328D02*
X197672313Y-196593328D01*
X198100884Y-196593328D02*
X198100884Y-195093328D01*
X198100884Y-195093328D02*
X197958027Y-195307614D01*
X197958027Y-195307614D02*
X197815170Y-195450471D01*
X197815170Y-195450471D02*
X197672313Y-195521900D01*
D10*
D11*
X177002200Y-191507200D02*
X285002200Y-191507200D01*
D10*
D12*
X264413853Y-193785528D02*
X263913853Y-193071242D01*
X263556710Y-193785528D02*
X263556710Y-192285528D01*
X263556710Y-192285528D02*
X264128139Y-192285528D01*
X264128139Y-192285528D02*
X264270996Y-192356957D01*
X264270996Y-192356957D02*
X264342425Y-192428385D01*
X264342425Y-192428385D02*
X264413853Y-192571242D01*
X264413853Y-192571242D02*
X264413853Y-192785528D01*
X264413853Y-192785528D02*
X264342425Y-192928385D01*
X264342425Y-192928385D02*
X264270996Y-192999814D01*
X264270996Y-192999814D02*
X264128139Y-193071242D01*
X264128139Y-193071242D02*
X263556710Y-193071242D01*
X265628139Y-193714100D02*
X265485282Y-193785528D01*
X265485282Y-193785528D02*
X265199568Y-193785528D01*
X265199568Y-193785528D02*
X265056710Y-193714100D01*
X265056710Y-193714100D02*
X264985282Y-193571242D01*
X264985282Y-193571242D02*
X264985282Y-192999814D01*
X264985282Y-192999814D02*
X265056710Y-192856957D01*
X265056710Y-192856957D02*
X265199568Y-192785528D01*
X265199568Y-192785528D02*
X265485282Y-192785528D01*
X265485282Y-192785528D02*
X265628139Y-192856957D01*
X265628139Y-192856957D02*
X265699568Y-192999814D01*
X265699568Y-192999814D02*
X265699568Y-193142671D01*
X265699568Y-193142671D02*
X264985282Y-193285528D01*
X266199567Y-192785528D02*
X266556710Y-193785528D01*
X266556710Y-193785528D02*
X266913853Y-192785528D01*
X267485281Y-193642671D02*
X267556710Y-193714100D01*
X267556710Y-193714100D02*
X267485281Y-193785528D01*
X267485281Y-193785528D02*
X267413853Y-193714100D01*
X267413853Y-193714100D02*
X267485281Y-193642671D01*
X267485281Y-193642671D02*
X267485281Y-193785528D01*
X267485281Y-192856957D02*
X267556710Y-192928385D01*
X267556710Y-192928385D02*
X267485281Y-192999814D01*
X267485281Y-192999814D02*
X267413853Y-192928385D01*
X267413853Y-192928385D02*
X267485281Y-192856957D01*
X267485281Y-192856957D02*
X267485281Y-192999814D01*
D10*
D11*
X178386598Y-193721900D02*
X178600884Y-193793328D01*
X178600884Y-193793328D02*
X178958026Y-193793328D01*
X178958026Y-193793328D02*
X179100884Y-193721900D01*
X179100884Y-193721900D02*
X179172312Y-193650471D01*
X179172312Y-193650471D02*
X179243741Y-193507614D01*
X179243741Y-193507614D02*
X179243741Y-193364757D01*
X179243741Y-193364757D02*
X179172312Y-193221900D01*
X179172312Y-193221900D02*
X179100884Y-193150471D01*
X179100884Y-193150471D02*
X178958026Y-193079042D01*
X178958026Y-193079042D02*
X178672312Y-193007614D01*
X178672312Y-193007614D02*
X178529455Y-192936185D01*
X178529455Y-192936185D02*
X178458026Y-192864757D01*
X178458026Y-192864757D02*
X178386598Y-192721900D01*
X178386598Y-192721900D02*
X178386598Y-192579042D01*
X178386598Y-192579042D02*
X178458026Y-192436185D01*
X178458026Y-192436185D02*
X178529455Y-192364757D01*
X178529455Y-192364757D02*
X178672312Y-192293328D01*
X178672312Y-192293328D02*
X179029455Y-192293328D01*
X179029455Y-192293328D02*
X179243741Y-192364757D01*
X179886597Y-193793328D02*
X179886597Y-192793328D01*
X179886597Y-192293328D02*
X179815169Y-192364757D01*
X179815169Y-192364757D02*
X179886597Y-192436185D01*
X179886597Y-192436185D02*
X179958026Y-192364757D01*
X179958026Y-192364757D02*
X179886597Y-192293328D01*
X179886597Y-192293328D02*
X179886597Y-192436185D01*
X180458026Y-192793328D02*
X181243741Y-192793328D01*
X181243741Y-192793328D02*
X180458026Y-193793328D01*
X180458026Y-193793328D02*
X181243741Y-193793328D01*
X182386598Y-193721900D02*
X182243741Y-193793328D01*
X182243741Y-193793328D02*
X181958027Y-193793328D01*
X181958027Y-193793328D02*
X181815169Y-193721900D01*
X181815169Y-193721900D02*
X181743741Y-193579042D01*
X181743741Y-193579042D02*
X181743741Y-193007614D01*
X181743741Y-193007614D02*
X181815169Y-192864757D01*
X181815169Y-192864757D02*
X181958027Y-192793328D01*
X181958027Y-192793328D02*
X182243741Y-192793328D01*
X182243741Y-192793328D02*
X182386598Y-192864757D01*
X182386598Y-192864757D02*
X182458027Y-193007614D01*
X182458027Y-193007614D02*
X182458027Y-193150471D01*
X182458027Y-193150471D02*
X181743741Y-193293328D01*
X183100883Y-193650471D02*
X183172312Y-193721900D01*
X183172312Y-193721900D02*
X183100883Y-193793328D01*
X183100883Y-193793328D02*
X183029455Y-193721900D01*
X183029455Y-193721900D02*
X183100883Y-193650471D01*
X183100883Y-193650471D02*
X183100883Y-193793328D01*
X183100883Y-192864757D02*
X183172312Y-192936185D01*
X183172312Y-192936185D02*
X183100883Y-193007614D01*
X183100883Y-193007614D02*
X183029455Y-192936185D01*
X183029455Y-192936185D02*
X183100883Y-192864757D01*
X183100883Y-192864757D02*
X183100883Y-193007614D01*
X184886598Y-193364757D02*
X185600884Y-193364757D01*
X184743741Y-193793328D02*
X185243741Y-192293328D01*
X185243741Y-192293328D02*
X185743741Y-193793328D01*
X186886598Y-192793328D02*
X186886598Y-193793328D01*
X186529455Y-192221900D02*
X186172312Y-193293328D01*
X186172312Y-193293328D02*
X187100883Y-193293328D01*
D10*
D11*
X263458026Y-196593328D02*
X263458026Y-195093328D01*
X264815170Y-196593328D02*
X264815170Y-195093328D01*
X264815170Y-196521900D02*
X264672312Y-196593328D01*
X264672312Y-196593328D02*
X264386598Y-196593328D01*
X264386598Y-196593328D02*
X264243741Y-196521900D01*
X264243741Y-196521900D02*
X264172312Y-196450471D01*
X264172312Y-196450471D02*
X264100884Y-196307614D01*
X264100884Y-196307614D02*
X264100884Y-195879042D01*
X264100884Y-195879042D02*
X264172312Y-195736185D01*
X264172312Y-195736185D02*
X264243741Y-195664757D01*
X264243741Y-195664757D02*
X264386598Y-195593328D01*
X264386598Y-195593328D02*
X264672312Y-195593328D01*
X264672312Y-195593328D02*
X264815170Y-195664757D01*
X265529455Y-196450471D02*
X265600884Y-196521900D01*
X265600884Y-196521900D02*
X265529455Y-196593328D01*
X265529455Y-196593328D02*
X265458027Y-196521900D01*
X265458027Y-196521900D02*
X265529455Y-196450471D01*
X265529455Y-196450471D02*
X265529455Y-196593328D01*
X265529455Y-195664757D02*
X265600884Y-195736185D01*
X265600884Y-195736185D02*
X265529455Y-195807614D01*
X265529455Y-195807614D02*
X265458027Y-195736185D01*
X265458027Y-195736185D02*
X265529455Y-195664757D01*
X265529455Y-195664757D02*
X265529455Y-195807614D01*
X268172313Y-196593328D02*
X267315170Y-196593328D01*
X267743741Y-196593328D02*
X267743741Y-195093328D01*
X267743741Y-195093328D02*
X267600884Y-195307614D01*
X267600884Y-195307614D02*
X267458027Y-195450471D01*
X267458027Y-195450471D02*
X267315170Y-195521900D01*
X269886598Y-195021900D02*
X268600884Y-196950471D01*
X270458027Y-196593328D02*
X270743741Y-196593328D01*
X270743741Y-196593328D02*
X270886598Y-196521900D01*
X270886598Y-196521900D02*
X270958027Y-196450471D01*
X270958027Y-196450471D02*
X271100884Y-196236185D01*
X271100884Y-196236185D02*
X271172313Y-195950471D01*
X271172313Y-195950471D02*
X271172313Y-195379042D01*
X271172313Y-195379042D02*
X271100884Y-195236185D01*
X271100884Y-195236185D02*
X271029456Y-195164757D01*
X271029456Y-195164757D02*
X270886598Y-195093328D01*
X270886598Y-195093328D02*
X270600884Y-195093328D01*
X270600884Y-195093328D02*
X270458027Y-195164757D01*
X270458027Y-195164757D02*
X270386598Y-195236185D01*
X270386598Y-195236185D02*
X270315170Y-195379042D01*
X270315170Y-195379042D02*
X270315170Y-195736185D01*
X270315170Y-195736185D02*
X270386598Y-195879042D01*
X270386598Y-195879042D02*
X270458027Y-195950471D01*
X270458027Y-195950471D02*
X270600884Y-196021900D01*
X270600884Y-196021900D02*
X270886598Y-196021900D01*
X270886598Y-196021900D02*
X271029456Y-195950471D01*
X271029456Y-195950471D02*
X271100884Y-195879042D01*
X271100884Y-195879042D02*
X271172313Y-195736185D01*
D10*
D11*
X177002200Y-187507200D02*
X285002200Y-187507200D01*
D10*
D13*
X178693928Y-188211638D02*
X179836785Y-188211638D01*
X179015357Y-190211638D02*
X179265357Y-188211638D01*
X180253452Y-190211638D02*
X180420119Y-188878304D01*
X180503452Y-188211638D02*
X180396309Y-188306876D01*
X180396309Y-188306876D02*
X180479643Y-188402114D01*
X180479643Y-188402114D02*
X180586786Y-188306876D01*
X180586786Y-188306876D02*
X180503452Y-188211638D01*
X180503452Y-188211638D02*
X180479643Y-188402114D01*
X181086786Y-188878304D02*
X181848690Y-188878304D01*
X181455833Y-188211638D02*
X181241548Y-189925923D01*
X181241548Y-189925923D02*
X181312976Y-190116400D01*
X181312976Y-190116400D02*
X181491548Y-190211638D01*
X181491548Y-190211638D02*
X181682024Y-190211638D01*
X182634405Y-190211638D02*
X182455833Y-190116400D01*
X182455833Y-190116400D02*
X182384405Y-189925923D01*
X182384405Y-189925923D02*
X182598690Y-188211638D01*
X184170119Y-190116400D02*
X183967738Y-190211638D01*
X183967738Y-190211638D02*
X183586785Y-190211638D01*
X183586785Y-190211638D02*
X183408214Y-190116400D01*
X183408214Y-190116400D02*
X183336785Y-189925923D01*
X183336785Y-189925923D02*
X183432024Y-189164019D01*
X183432024Y-189164019D02*
X183551071Y-188973542D01*
X183551071Y-188973542D02*
X183753452Y-188878304D01*
X183753452Y-188878304D02*
X184134404Y-188878304D01*
X184134404Y-188878304D02*
X184312976Y-188973542D01*
X184312976Y-188973542D02*
X184384404Y-189164019D01*
X184384404Y-189164019D02*
X184360595Y-189354495D01*
X184360595Y-189354495D02*
X183384404Y-189544971D01*
X185134405Y-190021161D02*
X185217738Y-190116400D01*
X185217738Y-190116400D02*
X185110595Y-190211638D01*
X185110595Y-190211638D02*
X185027262Y-190116400D01*
X185027262Y-190116400D02*
X185134405Y-190021161D01*
X185134405Y-190021161D02*
X185110595Y-190211638D01*
X185265357Y-188973542D02*
X185348690Y-189068780D01*
X185348690Y-189068780D02*
X185241548Y-189164019D01*
X185241548Y-189164019D02*
X185158214Y-189068780D01*
X185158214Y-189068780D02*
X185265357Y-188973542D01*
X185265357Y-188973542D02*
X185241548Y-189164019D01*
D10*
D11*
X178958026Y-185607614D02*
X178458026Y-185607614D01*
X178458026Y-186393328D02*
X178458026Y-184893328D01*
X178458026Y-184893328D02*
X179172312Y-184893328D01*
X179743740Y-186393328D02*
X179743740Y-185393328D01*
X179743740Y-184893328D02*
X179672312Y-184964757D01*
X179672312Y-184964757D02*
X179743740Y-185036185D01*
X179743740Y-185036185D02*
X179815169Y-184964757D01*
X179815169Y-184964757D02*
X179743740Y-184893328D01*
X179743740Y-184893328D02*
X179743740Y-185036185D01*
X180672312Y-186393328D02*
X180529455Y-186321900D01*
X180529455Y-186321900D02*
X180458026Y-186179042D01*
X180458026Y-186179042D02*
X180458026Y-184893328D01*
X181815169Y-186321900D02*
X181672312Y-186393328D01*
X181672312Y-186393328D02*
X181386598Y-186393328D01*
X181386598Y-186393328D02*
X181243740Y-186321900D01*
X181243740Y-186321900D02*
X181172312Y-186179042D01*
X181172312Y-186179042D02*
X181172312Y-185607614D01*
X181172312Y-185607614D02*
X181243740Y-185464757D01*
X181243740Y-185464757D02*
X181386598Y-185393328D01*
X181386598Y-185393328D02*
X181672312Y-185393328D01*
X181672312Y-185393328D02*
X181815169Y-185464757D01*
X181815169Y-185464757D02*
X181886598Y-185607614D01*
X181886598Y-185607614D02*
X181886598Y-185750471D01*
X181886598Y-185750471D02*
X181172312Y-185893328D01*
X182529454Y-186250471D02*
X182600883Y-186321900D01*
X182600883Y-186321900D02*
X182529454Y-186393328D01*
X182529454Y-186393328D02*
X182458026Y-186321900D01*
X182458026Y-186321900D02*
X182529454Y-186250471D01*
X182529454Y-186250471D02*
X182529454Y-186393328D01*
X182529454Y-185464757D02*
X182600883Y-185536185D01*
X182600883Y-185536185D02*
X182529454Y-185607614D01*
X182529454Y-185607614D02*
X182458026Y-185536185D01*
X182458026Y-185536185D02*
X182529454Y-185464757D01*
X182529454Y-185464757D02*
X182529454Y-185607614D01*
X184386597Y-186393328D02*
X184386597Y-184893328D01*
X184386597Y-184893328D02*
X184958026Y-184893328D01*
X184958026Y-184893328D02*
X185100883Y-184964757D01*
X185100883Y-184964757D02*
X185172312Y-185036185D01*
X185172312Y-185036185D02*
X185243740Y-185179042D01*
X185243740Y-185179042D02*
X185243740Y-185393328D01*
X185243740Y-185393328D02*
X185172312Y-185536185D01*
X185172312Y-185536185D02*
X185100883Y-185607614D01*
X185100883Y-185607614D02*
X184958026Y-185679042D01*
X184958026Y-185679042D02*
X184386597Y-185679042D01*
X186743740Y-186250471D02*
X186672312Y-186321900D01*
X186672312Y-186321900D02*
X186458026Y-186393328D01*
X186458026Y-186393328D02*
X186315169Y-186393328D01*
X186315169Y-186393328D02*
X186100883Y-186321900D01*
X186100883Y-186321900D02*
X185958026Y-186179042D01*
X185958026Y-186179042D02*
X185886597Y-186036185D01*
X185886597Y-186036185D02*
X185815169Y-185750471D01*
X185815169Y-185750471D02*
X185815169Y-185536185D01*
X185815169Y-185536185D02*
X185886597Y-185250471D01*
X185886597Y-185250471D02*
X185958026Y-185107614D01*
X185958026Y-185107614D02*
X186100883Y-184964757D01*
X186100883Y-184964757D02*
X186315169Y-184893328D01*
X186315169Y-184893328D02*
X186458026Y-184893328D01*
X186458026Y-184893328D02*
X186672312Y-184964757D01*
X186672312Y-184964757D02*
X186743740Y-185036185D01*
X187886597Y-185607614D02*
X188100883Y-185679042D01*
X188100883Y-185679042D02*
X188172312Y-185750471D01*
X188172312Y-185750471D02*
X188243740Y-185893328D01*
X188243740Y-185893328D02*
X188243740Y-186107614D01*
X188243740Y-186107614D02*
X188172312Y-186250471D01*
X188172312Y-186250471D02*
X188100883Y-186321900D01*
X188100883Y-186321900D02*
X187958026Y-186393328D01*
X187958026Y-186393328D02*
X187386597Y-186393328D01*
X187386597Y-186393328D02*
X187386597Y-184893328D01*
X187386597Y-184893328D02*
X187886597Y-184893328D01*
X187886597Y-184893328D02*
X188029455Y-184964757D01*
X188029455Y-184964757D02*
X188100883Y-185036185D01*
X188100883Y-185036185D02*
X188172312Y-185179042D01*
X188172312Y-185179042D02*
X188172312Y-185321900D01*
X188172312Y-185321900D02*
X188100883Y-185464757D01*
X188100883Y-185464757D02*
X188029455Y-185536185D01*
X188029455Y-185536185D02*
X187886597Y-185607614D01*
X187886597Y-185607614D02*
X187386597Y-185607614D01*
X188529455Y-186536185D02*
X189672312Y-186536185D01*
X190886597Y-186250471D02*
X190815169Y-186321900D01*
X190815169Y-186321900D02*
X190600883Y-186393328D01*
X190600883Y-186393328D02*
X190458026Y-186393328D01*
X190458026Y-186393328D02*
X190243740Y-186321900D01*
X190243740Y-186321900D02*
X190100883Y-186179042D01*
X190100883Y-186179042D02*
X190029454Y-186036185D01*
X190029454Y-186036185D02*
X189958026Y-185750471D01*
X189958026Y-185750471D02*
X189958026Y-185536185D01*
X189958026Y-185536185D02*
X190029454Y-185250471D01*
X190029454Y-185250471D02*
X190100883Y-185107614D01*
X190100883Y-185107614D02*
X190243740Y-184964757D01*
X190243740Y-184964757D02*
X190458026Y-184893328D01*
X190458026Y-184893328D02*
X190600883Y-184893328D01*
X190600883Y-184893328D02*
X190815169Y-184964757D01*
X190815169Y-184964757D02*
X190886597Y-185036185D01*
X191743740Y-186393328D02*
X191600883Y-186321900D01*
X191600883Y-186321900D02*
X191529454Y-186250471D01*
X191529454Y-186250471D02*
X191458026Y-186107614D01*
X191458026Y-186107614D02*
X191458026Y-185679042D01*
X191458026Y-185679042D02*
X191529454Y-185536185D01*
X191529454Y-185536185D02*
X191600883Y-185464757D01*
X191600883Y-185464757D02*
X191743740Y-185393328D01*
X191743740Y-185393328D02*
X191958026Y-185393328D01*
X191958026Y-185393328D02*
X192100883Y-185464757D01*
X192100883Y-185464757D02*
X192172312Y-185536185D01*
X192172312Y-185536185D02*
X192243740Y-185679042D01*
X192243740Y-185679042D02*
X192243740Y-186107614D01*
X192243740Y-186107614D02*
X192172312Y-186250471D01*
X192172312Y-186250471D02*
X192100883Y-186321900D01*
X192100883Y-186321900D02*
X191958026Y-186393328D01*
X191958026Y-186393328D02*
X191743740Y-186393328D01*
X192886597Y-185393328D02*
X192886597Y-186393328D01*
X192886597Y-185536185D02*
X192958026Y-185464757D01*
X192958026Y-185464757D02*
X193100883Y-185393328D01*
X193100883Y-185393328D02*
X193315169Y-185393328D01*
X193315169Y-185393328D02*
X193458026Y-185464757D01*
X193458026Y-185464757D02*
X193529455Y-185607614D01*
X193529455Y-185607614D02*
X193529455Y-186393328D01*
X194029455Y-185393328D02*
X194600883Y-185393328D01*
X194243740Y-184893328D02*
X194243740Y-186179042D01*
X194243740Y-186179042D02*
X194315169Y-186321900D01*
X194315169Y-186321900D02*
X194458026Y-186393328D01*
X194458026Y-186393328D02*
X194600883Y-186393328D01*
X195100883Y-186393328D02*
X195100883Y-185393328D01*
X195100883Y-185679042D02*
X195172312Y-185536185D01*
X195172312Y-185536185D02*
X195243741Y-185464757D01*
X195243741Y-185464757D02*
X195386598Y-185393328D01*
X195386598Y-185393328D02*
X195529455Y-185393328D01*
X196243740Y-186393328D02*
X196100883Y-186321900D01*
X196100883Y-186321900D02*
X196029454Y-186250471D01*
X196029454Y-186250471D02*
X195958026Y-186107614D01*
X195958026Y-186107614D02*
X195958026Y-185679042D01*
X195958026Y-185679042D02*
X196029454Y-185536185D01*
X196029454Y-185536185D02*
X196100883Y-185464757D01*
X196100883Y-185464757D02*
X196243740Y-185393328D01*
X196243740Y-185393328D02*
X196458026Y-185393328D01*
X196458026Y-185393328D02*
X196600883Y-185464757D01*
X196600883Y-185464757D02*
X196672312Y-185536185D01*
X196672312Y-185536185D02*
X196743740Y-185679042D01*
X196743740Y-185679042D02*
X196743740Y-186107614D01*
X196743740Y-186107614D02*
X196672312Y-186250471D01*
X196672312Y-186250471D02*
X196600883Y-186321900D01*
X196600883Y-186321900D02*
X196458026Y-186393328D01*
X196458026Y-186393328D02*
X196243740Y-186393328D01*
X197600883Y-186393328D02*
X197458026Y-186321900D01*
X197458026Y-186321900D02*
X197386597Y-186179042D01*
X197386597Y-186179042D02*
X197386597Y-184893328D01*
X198886597Y-186393328D02*
X198172311Y-186393328D01*
X198172311Y-186393328D02*
X198172311Y-184893328D01*
X200029455Y-186393328D02*
X200029455Y-185607614D01*
X200029455Y-185607614D02*
X199958026Y-185464757D01*
X199958026Y-185464757D02*
X199815169Y-185393328D01*
X199815169Y-185393328D02*
X199529455Y-185393328D01*
X199529455Y-185393328D02*
X199386597Y-185464757D01*
X200029455Y-186321900D02*
X199886597Y-186393328D01*
X199886597Y-186393328D02*
X199529455Y-186393328D01*
X199529455Y-186393328D02*
X199386597Y-186321900D01*
X199386597Y-186321900D02*
X199315169Y-186179042D01*
X199315169Y-186179042D02*
X199315169Y-186036185D01*
X199315169Y-186036185D02*
X199386597Y-185893328D01*
X199386597Y-185893328D02*
X199529455Y-185821900D01*
X199529455Y-185821900D02*
X199886597Y-185821900D01*
X199886597Y-185821900D02*
X200029455Y-185750471D01*
X200743740Y-186393328D02*
X200743740Y-185393328D01*
X200743740Y-185536185D02*
X200815169Y-185464757D01*
X200815169Y-185464757D02*
X200958026Y-185393328D01*
X200958026Y-185393328D02*
X201172312Y-185393328D01*
X201172312Y-185393328D02*
X201315169Y-185464757D01*
X201315169Y-185464757D02*
X201386598Y-185607614D01*
X201386598Y-185607614D02*
X201386598Y-186393328D01*
X201386598Y-185607614D02*
X201458026Y-185464757D01*
X201458026Y-185464757D02*
X201600883Y-185393328D01*
X201600883Y-185393328D02*
X201815169Y-185393328D01*
X201815169Y-185393328D02*
X201958026Y-185464757D01*
X201958026Y-185464757D02*
X202029455Y-185607614D01*
X202029455Y-185607614D02*
X202029455Y-186393328D01*
X202743740Y-185393328D02*
X202743740Y-186893328D01*
X202743740Y-185464757D02*
X202886598Y-185393328D01*
X202886598Y-185393328D02*
X203172312Y-185393328D01*
X203172312Y-185393328D02*
X203315169Y-185464757D01*
X203315169Y-185464757D02*
X203386598Y-185536185D01*
X203386598Y-185536185D02*
X203458026Y-185679042D01*
X203458026Y-185679042D02*
X203458026Y-186107614D01*
X203458026Y-186107614D02*
X203386598Y-186250471D01*
X203386598Y-186250471D02*
X203315169Y-186321900D01*
X203315169Y-186321900D02*
X203172312Y-186393328D01*
X203172312Y-186393328D02*
X202886598Y-186393328D01*
X202886598Y-186393328D02*
X202743740Y-186321900D01*
X204743741Y-186393328D02*
X204743741Y-185607614D01*
X204743741Y-185607614D02*
X204672312Y-185464757D01*
X204672312Y-185464757D02*
X204529455Y-185393328D01*
X204529455Y-185393328D02*
X204243741Y-185393328D01*
X204243741Y-185393328D02*
X204100883Y-185464757D01*
X204743741Y-186321900D02*
X204600883Y-186393328D01*
X204600883Y-186393328D02*
X204243741Y-186393328D01*
X204243741Y-186393328D02*
X204100883Y-186321900D01*
X204100883Y-186321900D02*
X204029455Y-186179042D01*
X204029455Y-186179042D02*
X204029455Y-186036185D01*
X204029455Y-186036185D02*
X204100883Y-185893328D01*
X204100883Y-185893328D02*
X204243741Y-185821900D01*
X204243741Y-185821900D02*
X204600883Y-185821900D01*
X204600883Y-185821900D02*
X204743741Y-185750471D01*
X205458026Y-186393328D02*
X205458026Y-185393328D01*
X205458026Y-185679042D02*
X205529455Y-185536185D01*
X205529455Y-185536185D02*
X205600884Y-185464757D01*
X205600884Y-185464757D02*
X205743741Y-185393328D01*
X205743741Y-185393328D02*
X205886598Y-185393328D01*
X207029455Y-186393328D02*
X207029455Y-185607614D01*
X207029455Y-185607614D02*
X206958026Y-185464757D01*
X206958026Y-185464757D02*
X206815169Y-185393328D01*
X206815169Y-185393328D02*
X206529455Y-185393328D01*
X206529455Y-185393328D02*
X206386597Y-185464757D01*
X207029455Y-186321900D02*
X206886597Y-186393328D01*
X206886597Y-186393328D02*
X206529455Y-186393328D01*
X206529455Y-186393328D02*
X206386597Y-186321900D01*
X206386597Y-186321900D02*
X206315169Y-186179042D01*
X206315169Y-186179042D02*
X206315169Y-186036185D01*
X206315169Y-186036185D02*
X206386597Y-185893328D01*
X206386597Y-185893328D02*
X206529455Y-185821900D01*
X206529455Y-185821900D02*
X206886597Y-185821900D01*
X206886597Y-185821900D02*
X207029455Y-185750471D01*
X207672312Y-186321900D02*
X207815169Y-186393328D01*
X207815169Y-186393328D02*
X208100883Y-186393328D01*
X208100883Y-186393328D02*
X208243740Y-186321900D01*
X208243740Y-186321900D02*
X208315169Y-186179042D01*
X208315169Y-186179042D02*
X208315169Y-186107614D01*
X208315169Y-186107614D02*
X208243740Y-185964757D01*
X208243740Y-185964757D02*
X208100883Y-185893328D01*
X208100883Y-185893328D02*
X207886598Y-185893328D01*
X207886598Y-185893328D02*
X207743740Y-185821900D01*
X207743740Y-185821900D02*
X207672312Y-185679042D01*
X207672312Y-185679042D02*
X207672312Y-185607614D01*
X207672312Y-185607614D02*
X207743740Y-185464757D01*
X207743740Y-185464757D02*
X207886598Y-185393328D01*
X207886598Y-185393328D02*
X208100883Y-185393328D01*
X208100883Y-185393328D02*
X208243740Y-185464757D01*
X208886598Y-186321900D02*
X209100884Y-186393328D01*
X209100884Y-186393328D02*
X209458026Y-186393328D01*
X209458026Y-186393328D02*
X209600884Y-186321900D01*
X209600884Y-186321900D02*
X209672312Y-186250471D01*
X209672312Y-186250471D02*
X209743741Y-186107614D01*
X209743741Y-186107614D02*
X209743741Y-185964757D01*
X209743741Y-185964757D02*
X209672312Y-185821900D01*
X209672312Y-185821900D02*
X209600884Y-185750471D01*
X209600884Y-185750471D02*
X209458026Y-185679042D01*
X209458026Y-185679042D02*
X209172312Y-185607614D01*
X209172312Y-185607614D02*
X209029455Y-185536185D01*
X209029455Y-185536185D02*
X208958026Y-185464757D01*
X208958026Y-185464757D02*
X208886598Y-185321900D01*
X208886598Y-185321900D02*
X208886598Y-185179042D01*
X208886598Y-185179042D02*
X208958026Y-185036185D01*
X208958026Y-185036185D02*
X209029455Y-184964757D01*
X209029455Y-184964757D02*
X209172312Y-184893328D01*
X209172312Y-184893328D02*
X209529455Y-184893328D01*
X209529455Y-184893328D02*
X209743741Y-184964757D01*
X210600883Y-186393328D02*
X210458026Y-186321900D01*
X210458026Y-186321900D02*
X210386597Y-186250471D01*
X210386597Y-186250471D02*
X210315169Y-186107614D01*
X210315169Y-186107614D02*
X210315169Y-185679042D01*
X210315169Y-185679042D02*
X210386597Y-185536185D01*
X210386597Y-185536185D02*
X210458026Y-185464757D01*
X210458026Y-185464757D02*
X210600883Y-185393328D01*
X210600883Y-185393328D02*
X210815169Y-185393328D01*
X210815169Y-185393328D02*
X210958026Y-185464757D01*
X210958026Y-185464757D02*
X211029455Y-185536185D01*
X211029455Y-185536185D02*
X211100883Y-185679042D01*
X211100883Y-185679042D02*
X211100883Y-186107614D01*
X211100883Y-186107614D02*
X211029455Y-186250471D01*
X211029455Y-186250471D02*
X210958026Y-186321900D01*
X210958026Y-186321900D02*
X210815169Y-186393328D01*
X210815169Y-186393328D02*
X210600883Y-186393328D01*
X211743740Y-185393328D02*
X211743740Y-186393328D01*
X211743740Y-185536185D02*
X211815169Y-185464757D01*
X211815169Y-185464757D02*
X211958026Y-185393328D01*
X211958026Y-185393328D02*
X212172312Y-185393328D01*
X212172312Y-185393328D02*
X212315169Y-185464757D01*
X212315169Y-185464757D02*
X212386598Y-185607614D01*
X212386598Y-185607614D02*
X212386598Y-186393328D01*
X213100883Y-186393328D02*
X213100883Y-185393328D01*
X213100883Y-184893328D02*
X213029455Y-184964757D01*
X213029455Y-184964757D02*
X213100883Y-185036185D01*
X213100883Y-185036185D02*
X213172312Y-184964757D01*
X213172312Y-184964757D02*
X213100883Y-184893328D01*
X213100883Y-184893328D02*
X213100883Y-185036185D01*
X214458027Y-186393328D02*
X214458027Y-184893328D01*
X214458027Y-186321900D02*
X214315169Y-186393328D01*
X214315169Y-186393328D02*
X214029455Y-186393328D01*
X214029455Y-186393328D02*
X213886598Y-186321900D01*
X213886598Y-186321900D02*
X213815169Y-186250471D01*
X213815169Y-186250471D02*
X213743741Y-186107614D01*
X213743741Y-186107614D02*
X213743741Y-185679042D01*
X213743741Y-185679042D02*
X213815169Y-185536185D01*
X213815169Y-185536185D02*
X213886598Y-185464757D01*
X213886598Y-185464757D02*
X214029455Y-185393328D01*
X214029455Y-185393328D02*
X214315169Y-185393328D01*
X214315169Y-185393328D02*
X214458027Y-185464757D01*
X215386598Y-186393328D02*
X215243741Y-186321900D01*
X215243741Y-186321900D02*
X215172312Y-186250471D01*
X215172312Y-186250471D02*
X215100884Y-186107614D01*
X215100884Y-186107614D02*
X215100884Y-185679042D01*
X215100884Y-185679042D02*
X215172312Y-185536185D01*
X215172312Y-185536185D02*
X215243741Y-185464757D01*
X215243741Y-185464757D02*
X215386598Y-185393328D01*
X215386598Y-185393328D02*
X215600884Y-185393328D01*
X215600884Y-185393328D02*
X215743741Y-185464757D01*
X215743741Y-185464757D02*
X215815170Y-185536185D01*
X215815170Y-185536185D02*
X215886598Y-185679042D01*
X215886598Y-185679042D02*
X215886598Y-186107614D01*
X215886598Y-186107614D02*
X215815170Y-186250471D01*
X215815170Y-186250471D02*
X215743741Y-186321900D01*
X215743741Y-186321900D02*
X215600884Y-186393328D01*
X215600884Y-186393328D02*
X215386598Y-186393328D01*
X216529455Y-186250471D02*
X216600884Y-186321900D01*
X216600884Y-186321900D02*
X216529455Y-186393328D01*
X216529455Y-186393328D02*
X216458027Y-186321900D01*
X216458027Y-186321900D02*
X216529455Y-186250471D01*
X216529455Y-186250471D02*
X216529455Y-186393328D01*
X217243741Y-186393328D02*
X217243741Y-184893328D01*
X217386599Y-185821900D02*
X217815170Y-186393328D01*
X217815170Y-185393328D02*
X217243741Y-185964757D01*
X218458027Y-186393328D02*
X218458027Y-185393328D01*
X218458027Y-184893328D02*
X218386599Y-184964757D01*
X218386599Y-184964757D02*
X218458027Y-185036185D01*
X218458027Y-185036185D02*
X218529456Y-184964757D01*
X218529456Y-184964757D02*
X218458027Y-184893328D01*
X218458027Y-184893328D02*
X218458027Y-185036185D01*
X219815171Y-186321900D02*
X219672313Y-186393328D01*
X219672313Y-186393328D02*
X219386599Y-186393328D01*
X219386599Y-186393328D02*
X219243742Y-186321900D01*
X219243742Y-186321900D02*
X219172313Y-186250471D01*
X219172313Y-186250471D02*
X219100885Y-186107614D01*
X219100885Y-186107614D02*
X219100885Y-185679042D01*
X219100885Y-185679042D02*
X219172313Y-185536185D01*
X219172313Y-185536185D02*
X219243742Y-185464757D01*
X219243742Y-185464757D02*
X219386599Y-185393328D01*
X219386599Y-185393328D02*
X219672313Y-185393328D01*
X219672313Y-185393328D02*
X219815171Y-185464757D01*
X221100885Y-186393328D02*
X221100885Y-185607614D01*
X221100885Y-185607614D02*
X221029456Y-185464757D01*
X221029456Y-185464757D02*
X220886599Y-185393328D01*
X220886599Y-185393328D02*
X220600885Y-185393328D01*
X220600885Y-185393328D02*
X220458027Y-185464757D01*
X221100885Y-186321900D02*
X220958027Y-186393328D01*
X220958027Y-186393328D02*
X220600885Y-186393328D01*
X220600885Y-186393328D02*
X220458027Y-186321900D01*
X220458027Y-186321900D02*
X220386599Y-186179042D01*
X220386599Y-186179042D02*
X220386599Y-186036185D01*
X220386599Y-186036185D02*
X220458027Y-185893328D01*
X220458027Y-185893328D02*
X220600885Y-185821900D01*
X220600885Y-185821900D02*
X220958027Y-185821900D01*
X220958027Y-185821900D02*
X221100885Y-185750471D01*
X222458028Y-186393328D02*
X222458028Y-184893328D01*
X222458028Y-186321900D02*
X222315170Y-186393328D01*
X222315170Y-186393328D02*
X222029456Y-186393328D01*
X222029456Y-186393328D02*
X221886599Y-186321900D01*
X221886599Y-186321900D02*
X221815170Y-186250471D01*
X221815170Y-186250471D02*
X221743742Y-186107614D01*
X221743742Y-186107614D02*
X221743742Y-185679042D01*
X221743742Y-185679042D02*
X221815170Y-185536185D01*
X221815170Y-185536185D02*
X221886599Y-185464757D01*
X221886599Y-185464757D02*
X222029456Y-185393328D01*
X222029456Y-185393328D02*
X222315170Y-185393328D01*
X222315170Y-185393328D02*
X222458028Y-185464757D01*
X222815171Y-186536185D02*
X223958028Y-186536185D01*
X224315170Y-185393328D02*
X224315170Y-186893328D01*
X224315170Y-185464757D02*
X224458028Y-185393328D01*
X224458028Y-185393328D02*
X224743742Y-185393328D01*
X224743742Y-185393328D02*
X224886599Y-185464757D01*
X224886599Y-185464757D02*
X224958028Y-185536185D01*
X224958028Y-185536185D02*
X225029456Y-185679042D01*
X225029456Y-185679042D02*
X225029456Y-186107614D01*
X225029456Y-186107614D02*
X224958028Y-186250471D01*
X224958028Y-186250471D02*
X224886599Y-186321900D01*
X224886599Y-186321900D02*
X224743742Y-186393328D01*
X224743742Y-186393328D02*
X224458028Y-186393328D01*
X224458028Y-186393328D02*
X224315170Y-186321900D01*
X226315171Y-186321900D02*
X226172313Y-186393328D01*
X226172313Y-186393328D02*
X225886599Y-186393328D01*
X225886599Y-186393328D02*
X225743742Y-186321900D01*
X225743742Y-186321900D02*
X225672313Y-186250471D01*
X225672313Y-186250471D02*
X225600885Y-186107614D01*
X225600885Y-186107614D02*
X225600885Y-185679042D01*
X225600885Y-185679042D02*
X225672313Y-185536185D01*
X225672313Y-185536185D02*
X225743742Y-185464757D01*
X225743742Y-185464757D02*
X225886599Y-185393328D01*
X225886599Y-185393328D02*
X226172313Y-185393328D01*
X226172313Y-185393328D02*
X226315171Y-185464757D01*
X226958027Y-186393328D02*
X226958027Y-184893328D01*
X226958027Y-185464757D02*
X227100885Y-185393328D01*
X227100885Y-185393328D02*
X227386599Y-185393328D01*
X227386599Y-185393328D02*
X227529456Y-185464757D01*
X227529456Y-185464757D02*
X227600885Y-185536185D01*
X227600885Y-185536185D02*
X227672313Y-185679042D01*
X227672313Y-185679042D02*
X227672313Y-186107614D01*
X227672313Y-186107614D02*
X227600885Y-186250471D01*
X227600885Y-186250471D02*
X227529456Y-186321900D01*
X227529456Y-186321900D02*
X227386599Y-186393328D01*
X227386599Y-186393328D02*
X227100885Y-186393328D01*
X227100885Y-186393328D02*
X226958027Y-186321900D01*
D10*
D11*
X177002200Y-181507200D02*
X285002200Y-181507200D01*
D10*
D11*
X178386598Y-183621900D02*
X178600884Y-183693328D01*
X178600884Y-183693328D02*
X178958026Y-183693328D01*
X178958026Y-183693328D02*
X179100884Y-183621900D01*
X179100884Y-183621900D02*
X179172312Y-183550471D01*
X179172312Y-183550471D02*
X179243741Y-183407614D01*
X179243741Y-183407614D02*
X179243741Y-183264757D01*
X179243741Y-183264757D02*
X179172312Y-183121900D01*
X179172312Y-183121900D02*
X179100884Y-183050471D01*
X179100884Y-183050471D02*
X178958026Y-182979042D01*
X178958026Y-182979042D02*
X178672312Y-182907614D01*
X178672312Y-182907614D02*
X178529455Y-182836185D01*
X178529455Y-182836185D02*
X178458026Y-182764757D01*
X178458026Y-182764757D02*
X178386598Y-182621900D01*
X178386598Y-182621900D02*
X178386598Y-182479042D01*
X178386598Y-182479042D02*
X178458026Y-182336185D01*
X178458026Y-182336185D02*
X178529455Y-182264757D01*
X178529455Y-182264757D02*
X178672312Y-182193328D01*
X178672312Y-182193328D02*
X179029455Y-182193328D01*
X179029455Y-182193328D02*
X179243741Y-182264757D01*
X179886597Y-183693328D02*
X179886597Y-182193328D01*
X180529455Y-183693328D02*
X180529455Y-182907614D01*
X180529455Y-182907614D02*
X180458026Y-182764757D01*
X180458026Y-182764757D02*
X180315169Y-182693328D01*
X180315169Y-182693328D02*
X180100883Y-182693328D01*
X180100883Y-182693328D02*
X179958026Y-182764757D01*
X179958026Y-182764757D02*
X179886597Y-182836185D01*
X181815169Y-183621900D02*
X181672312Y-183693328D01*
X181672312Y-183693328D02*
X181386598Y-183693328D01*
X181386598Y-183693328D02*
X181243740Y-183621900D01*
X181243740Y-183621900D02*
X181172312Y-183479042D01*
X181172312Y-183479042D02*
X181172312Y-182907614D01*
X181172312Y-182907614D02*
X181243740Y-182764757D01*
X181243740Y-182764757D02*
X181386598Y-182693328D01*
X181386598Y-182693328D02*
X181672312Y-182693328D01*
X181672312Y-182693328D02*
X181815169Y-182764757D01*
X181815169Y-182764757D02*
X181886598Y-182907614D01*
X181886598Y-182907614D02*
X181886598Y-183050471D01*
X181886598Y-183050471D02*
X181172312Y-183193328D01*
X183100883Y-183621900D02*
X182958026Y-183693328D01*
X182958026Y-183693328D02*
X182672312Y-183693328D01*
X182672312Y-183693328D02*
X182529454Y-183621900D01*
X182529454Y-183621900D02*
X182458026Y-183479042D01*
X182458026Y-183479042D02*
X182458026Y-182907614D01*
X182458026Y-182907614D02*
X182529454Y-182764757D01*
X182529454Y-182764757D02*
X182672312Y-182693328D01*
X182672312Y-182693328D02*
X182958026Y-182693328D01*
X182958026Y-182693328D02*
X183100883Y-182764757D01*
X183100883Y-182764757D02*
X183172312Y-182907614D01*
X183172312Y-182907614D02*
X183172312Y-183050471D01*
X183172312Y-183050471D02*
X182458026Y-183193328D01*
X183600883Y-182693328D02*
X184172311Y-182693328D01*
X183815168Y-182193328D02*
X183815168Y-183479042D01*
X183815168Y-183479042D02*
X183886597Y-183621900D01*
X183886597Y-183621900D02*
X184029454Y-183693328D01*
X184029454Y-183693328D02*
X184172311Y-183693328D01*
X184672311Y-183550471D02*
X184743740Y-183621900D01*
X184743740Y-183621900D02*
X184672311Y-183693328D01*
X184672311Y-183693328D02*
X184600883Y-183621900D01*
X184600883Y-183621900D02*
X184672311Y-183550471D01*
X184672311Y-183550471D02*
X184672311Y-183693328D01*
X184672311Y-182764757D02*
X184743740Y-182836185D01*
X184743740Y-182836185D02*
X184672311Y-182907614D01*
X184672311Y-182907614D02*
X184600883Y-182836185D01*
X184600883Y-182836185D02*
X184672311Y-182764757D01*
X184672311Y-182764757D02*
X184672311Y-182907614D01*
D10*
D11*
X197002200Y-191507200D02*
X197002200Y-194507200D01*
D10*
D11*
X261002200Y-191507200D02*
X261002200Y-198007200D01*
D14*
%TO.C,REF\u002A\u002A*%
X142000000Y-75460000D02*
X146000000Y-68540000D01*
D15*
X142490000Y-75440000D02*
X142223678Y-75030736D01*
X145550000Y-72215000D02*
X145760000Y-72440000D01*
X145660000Y-74095000D02*
X146170000Y-74185000D01*
X145850000Y-68960000D02*
X146160000Y-68960000D01*
X145867101Y-72479099D02*
X146112899Y-72680901D01*
D14*
X146000000Y-68540000D02*
X150000000Y-75460000D01*
D15*
X149510000Y-75440000D02*
X149776322Y-75030736D01*
D16*
X150000000Y-75460000D02*
X142000000Y-75460000D01*
D17*
X145500000Y-72500000D02*
X146664167Y-71874260D01*
X146009323Y-74260802D01*
X146344021Y-74057073D01*
X145747385Y-74944750D01*
X145529104Y-73897000D01*
X145761938Y-74217146D01*
X146038427Y-72485448D01*
X144917917Y-73082083D01*
X145645521Y-70506364D01*
X146358573Y-70506364D01*
X145500000Y-72500000D01*
%TA.AperFunction,EtchedComponent*%
G36*
X145500000Y-72500000D02*
G01*
X146664167Y-71874260D01*
X146009323Y-74260802D01*
X146344021Y-74057073D01*
X145747385Y-74944750D01*
X145529104Y-73897000D01*
X145761938Y-74217146D01*
X146038427Y-72485448D01*
X144917917Y-73082083D01*
X145645521Y-70506364D01*
X146358573Y-70506364D01*
X145500000Y-72500000D01*
G37*
%TD.AperFunction*%
%TD*%
D18*
%TO.P,Q6,1,A1*%
%TO.N,GND*%
X121055000Y-63460000D03*
D19*
%TO.P,Q6,2,A2*%
%TO.N,Net-(Q6-A2)*%
X121055000Y-66000000D03*
%TO.P,Q6,3,G*%
%TO.N,Net-(D2-K)*%
X121055000Y-68540000D03*
%TD*%
D20*
%TO.P,H3,1,1*%
%TO.N,GND*%
X81000000Y-60000000D03*
%TD*%
D21*
%TO.P,R4,1*%
%TO.N,Net-(Q2-E)*%
X107087500Y-68050000D03*
%TO.P,R4,2*%
%TO.N,GND*%
X108912500Y-68050000D03*
%TD*%
D22*
%TO.P,Q1,1,C*%
%TO.N,Net-(Q1-C)*%
X98000000Y-68730000D03*
D23*
%TO.P,Q1,2,B*%
%TO.N,Net-(Q1-B)*%
X98000000Y-70000000D03*
%TO.P,Q1,3,E*%
%TO.N,GND*%
X98000000Y-71270000D03*
%TD*%
D24*
%TO.P,R9,1*%
%TO.N,Net-(Q4-B)*%
X98000000Y-45087500D03*
%TO.P,R9,2*%
%TO.N,Net-(C7-Pad1)*%
X98000000Y-46912500D03*
%TD*%
D25*
%TO.P,C7,1*%
%TO.N,Net-(C7-Pad1)*%
X94000000Y-52475000D03*
%TO.P,C7,2*%
%TO.N,GND*%
X94000000Y-49525000D03*
%TD*%
D26*
%TO.P,MK1,1,-*%
%TO.N,GND*%
X79730000Y-71000000D03*
D27*
%TO.P,MK1,2,+*%
%TO.N,Net-(MK1-+)*%
X82270000Y-71000000D03*
%TD*%
D21*
%TO.P,R6,1*%
%TO.N,Net-(C2-Pad1)*%
X93000000Y-56000000D03*
%TO.P,R6,2*%
%TO.N,Net-(D1-K)*%
X94825000Y-56000000D03*
%TD*%
D28*
%TO.P,C3,1*%
%TO.N,Net-(Q1-B)*%
X92100000Y-72000000D03*
%TO.P,C3,2*%
%TO.N,Net-(Q1-C)*%
X94000000Y-72000000D03*
%TD*%
D29*
%TO.P,R7,1*%
%TO.N,Net-(Q3-B)*%
X103000000Y-55912500D03*
%TO.P,R7,2*%
%TO.N,Net-(D1-K)*%
X103000000Y-54087500D03*
%TD*%
D30*
%TO.P,P2,1,1*%
%TO.N,Net-(Q6-A2)*%
X156000000Y-60540000D03*
D31*
%TO.P,P2,2,2*%
%TO.N,LINE*%
X156000000Y-55460000D03*
%TD*%
D22*
%TO.P,Q5,1,C*%
%TO.N,Net-(Q5-C)*%
X127000000Y-50460000D03*
D23*
%TO.P,Q5,2,B*%
%TO.N,Net-(Q4-E)*%
X127000000Y-51730000D03*
%TO.P,Q5,3,E*%
%TO.N,Net-(D2-A)*%
X127000000Y-53000000D03*
%TD*%
D32*
%TO.P,C6,1*%
%TO.N,GND*%
X104000000Y-60000000D03*
%TO.P,C6,2*%
%TO.N,Net-(Q3-B)*%
X102100000Y-60000000D03*
%TD*%
D33*
%TO.P,D3,1,K*%
%TO.N,Net-(D3-K)*%
X144000000Y-63080000D03*
D34*
%TO.P,D3,2,A*%
%TO.N,LINE*%
X144000000Y-52920000D03*
%TD*%
D20*
%TO.P,H1,1,1*%
%TO.N,GND*%
X154000000Y-46000000D03*
%TD*%
D22*
%TO.P,Q4,1,C*%
%TO.N,Net-(Q4-C)*%
X120000000Y-45460000D03*
D23*
%TO.P,Q4,2,B*%
%TO.N,Net-(Q4-B)*%
X120000000Y-46730000D03*
%TO.P,Q4,3,E*%
%TO.N,Net-(Q4-E)*%
X120000000Y-48000000D03*
%TD*%
D29*
%TO.P,R10,1*%
%TO.N,GND*%
X94000000Y-46912500D03*
%TO.P,R10,2*%
%TO.N,Net-(Q4-B)*%
X94000000Y-45087500D03*
%TD*%
D21*
%TO.P,R5,1*%
%TO.N,Net-(C2-Pad1)*%
X93087500Y-60000000D03*
%TO.P,R5,2*%
%TO.N,Net-(Q2-C)*%
X94912500Y-60000000D03*
%TD*%
D22*
%TO.P,Q2,1,C*%
%TO.N,Net-(Q2-C)*%
X98000000Y-62730000D03*
D23*
%TO.P,Q2,2,B*%
%TO.N,Net-(Q1-C)*%
X98000000Y-64000000D03*
%TO.P,Q2,3,E*%
%TO.N,Net-(Q2-E)*%
X98000000Y-65270000D03*
%TD*%
D20*
%TO.P,H2,1,1*%
%TO.N,GND*%
X154000000Y-71000000D03*
%TD*%
D30*
%TO.P,P1,1,1*%
%TO.N,LINE*%
X79000000Y-48460000D03*
D31*
%TO.P,P1,2,2*%
%TO.N,GND*%
X79000000Y-53540000D03*
%TD*%
D35*
%TO.P,C8,1*%
%TO.N,Net-(D1-K)*%
X113000000Y-51500000D03*
D36*
%TO.P,C8,2*%
%TO.N,GND*%
X113000000Y-54000000D03*
%TD*%
D35*
%TO.P,C2,1*%
%TO.N,Net-(C2-Pad1)*%
X90000000Y-64000000D03*
D36*
%TO.P,C2,2*%
%TO.N,GND*%
X90000000Y-62000000D03*
%TD*%
D37*
%TO.P,R11,1*%
%TO.N,Net-(Q4-C)*%
X114912500Y-45000000D03*
%TO.P,R11,2*%
%TO.N,Net-(D1-K)*%
X113087500Y-45000000D03*
%TD*%
%TO.P,R1,1*%
%TO.N,Net-(C2-Pad1)*%
X90000000Y-68000000D03*
%TO.P,R1,2*%
%TO.N,Net-(MK1-+)*%
X88175000Y-68000000D03*
%TD*%
D24*
%TO.P,R8,1*%
%TO.N,Net-(C7-Pad1)*%
X98000000Y-49087500D03*
%TO.P,R8,2*%
%TO.N,Net-(Q3-C)*%
X98000000Y-50912500D03*
%TD*%
D32*
%TO.P,C4,1*%
%TO.N,GND*%
X108950000Y-71000000D03*
%TO.P,C4,2*%
%TO.N,Net-(Q2-E)*%
X107050000Y-71000000D03*
%TD*%
D28*
%TO.P,C1,1*%
%TO.N,Net-(MK1-+)*%
X88100000Y-72000000D03*
%TO.P,C1,2*%
%TO.N,Net-(Q1-B)*%
X90000000Y-72000000D03*
%TD*%
%TO.P,C5,1*%
%TO.N,Net-(Q2-C)*%
X98000000Y-60000000D03*
%TO.P,C5,2*%
%TO.N,Net-(Q3-B)*%
X99900000Y-60000000D03*
%TD*%
D29*
%TO.P,R12,1*%
%TO.N,GND*%
X121000000Y-53825000D03*
%TO.P,R12,2*%
%TO.N,Net-(Q4-E)*%
X121000000Y-52000000D03*
%TD*%
D21*
%TO.P,R3,1*%
%TO.N,Net-(Q1-B)*%
X103087500Y-68050000D03*
%TO.P,R3,2*%
%TO.N,Net-(Q2-E)*%
X104912500Y-68050000D03*
%TD*%
D35*
%TO.P,D2,1,K*%
%TO.N,Net-(D2-K)*%
X115000000Y-69810000D03*
D38*
%TO.P,D2,2,A*%
%TO.N,Net-(D2-A)*%
X115000000Y-62190000D03*
%TD*%
D39*
%TO.P,R14,1*%
%TO.N,Net-(D3-K)*%
X136000000Y-68200000D03*
D40*
%TO.P,R14,2*%
%TO.N,Net-(D1-K)*%
X136000000Y-45800000D03*
%TD*%
D41*
%TO.P,D1,1,K*%
%TO.N,Net-(D1-K)*%
X110750000Y-45000000D03*
%TO.P,D1,2,A*%
%TO.N,GND*%
X107250000Y-45000000D03*
%TD*%
D42*
%TO.P,Q3,1,C*%
%TO.N,Net-(Q3-C)*%
X101460000Y-51000000D03*
D43*
%TO.P,Q3,2,B*%
%TO.N,Net-(Q3-B)*%
X102730000Y-51000000D03*
%TO.P,Q3,3,E*%
%TO.N,Net-(D1-K)*%
X104000000Y-51000000D03*
%TD*%
D21*
%TO.P,R2,1*%
%TO.N,Net-(C2-Pad1)*%
X92087500Y-68000000D03*
%TO.P,R2,2*%
%TO.N,Net-(Q1-C)*%
X93912500Y-68000000D03*
%TD*%
%TO.P,R13,1*%
%TO.N,Net-(Q5-C)*%
X127087500Y-46000000D03*
%TO.P,R13,2*%
%TO.N,Net-(D1-K)*%
X128912500Y-46000000D03*
%TD*%
D44*
%TO.N,Net-(Q3-B)*%
X105000000Y-56000000D03*
%TO.N,Net-(Q4-B)*%
X100000000Y-45000000D03*
%TD*%
D45*
%TO.N,Net-(Q6-A2)*%
X140460000Y-60540000D02*
X156000000Y-60540000D01*
X135000000Y-66000000D02*
X140460000Y-60540000D01*
X121055000Y-66000000D02*
X135000000Y-66000000D01*
D46*
%TO.N,Net-(Q1-B)*%
X94547292Y-73176000D02*
X96000000Y-71723292D01*
X93276000Y-73176000D02*
X94547292Y-73176000D01*
X92100000Y-72000000D02*
X93276000Y-73176000D01*
X90000000Y-72000000D02*
X92100000Y-72000000D01*
X96000000Y-71723292D02*
X96000000Y-71000000D01*
X98000000Y-70000000D02*
X101137500Y-70000000D01*
X96000000Y-71000000D02*
X97000000Y-70000000D01*
X101137500Y-70000000D02*
X103087500Y-68050000D01*
X97000000Y-70000000D02*
X98000000Y-70000000D01*
%TO.N,Net-(MK1-+)*%
X82270000Y-71000000D02*
X87100000Y-71000000D01*
X87100000Y-71000000D02*
X88100000Y-72000000D01*
X88100000Y-68075000D02*
X88175000Y-68000000D01*
X88100000Y-72000000D02*
X88100000Y-68075000D01*
%TO.N,Net-(C2-Pad1)*%
X93087500Y-60912500D02*
X93087500Y-60000000D01*
X90000000Y-68000000D02*
X92087500Y-68000000D01*
X90000000Y-68000000D02*
X90000000Y-64000000D01*
X90000000Y-64000000D02*
X93087500Y-60912500D01*
X93000000Y-56000000D02*
X93000000Y-59912500D01*
X93000000Y-59912500D02*
X93087500Y-60000000D01*
%TO.N,Net-(Q1-C)*%
X93912500Y-67300000D02*
X97212500Y-64000000D01*
X93912500Y-68000000D02*
X97270000Y-68000000D01*
X97270000Y-68000000D02*
X98000000Y-68730000D01*
X93912500Y-68000000D02*
X93912500Y-67300000D01*
X94000000Y-72000000D02*
X94000000Y-68087500D01*
X97212500Y-64000000D02*
X98000000Y-64000000D01*
X94000000Y-68087500D02*
X93912500Y-68000000D01*
%TO.N,Net-(Q2-E)*%
X98000000Y-65270000D02*
X102132500Y-65270000D01*
X107050000Y-68087500D02*
X107087500Y-68050000D01*
X107050000Y-71000000D02*
X107050000Y-68087500D01*
X104912500Y-68050000D02*
X107087500Y-68050000D01*
X102132500Y-65270000D02*
X104912500Y-68050000D01*
%TO.N,Net-(Q3-B)*%
X102730000Y-51000000D02*
X102730000Y-50664728D01*
X105000000Y-56000000D02*
X103087500Y-56000000D01*
X102100000Y-60000000D02*
X102100000Y-59900000D01*
X99900000Y-60000000D02*
X102100000Y-60000000D01*
X102100000Y-59900000D02*
X103000000Y-59000000D01*
X103000000Y-59000000D02*
X103000000Y-55912500D01*
X103087500Y-56000000D02*
X103000000Y-55912500D01*
%TO.N,Net-(Q2-C)*%
X98000000Y-62730000D02*
X98000000Y-60000000D01*
X94912500Y-60000000D02*
X98000000Y-60000000D01*
%TO.N,Net-(C7-Pad1)*%
X97387500Y-49087500D02*
X98000000Y-49087500D01*
X94000000Y-52475000D02*
X97387500Y-49087500D01*
X98000000Y-49087500D02*
X98000000Y-46912500D01*
%TO.N,Net-(D1-K)*%
X110750000Y-45000000D02*
X113087500Y-45000000D01*
X113000000Y-51500000D02*
X113000000Y-45087500D01*
X126761500Y-43849000D02*
X128912500Y-46000000D01*
X113000000Y-45087500D02*
X113087500Y-45000000D01*
X104000000Y-51000000D02*
X112500000Y-51000000D01*
X114238500Y-43849000D02*
X126761500Y-43849000D01*
X112500000Y-51000000D02*
X113000000Y-51500000D01*
X104000000Y-53087500D02*
X104000000Y-51000000D01*
X101087500Y-56000000D02*
X103000000Y-54087500D01*
D45*
X129112500Y-45800000D02*
X128912500Y-46000000D01*
D46*
X113087500Y-45000000D02*
X114238500Y-43849000D01*
D45*
X136000000Y-45800000D02*
X129112500Y-45800000D01*
D46*
X94825000Y-56000000D02*
X101087500Y-56000000D01*
X103000000Y-54087500D02*
X104000000Y-53087500D01*
%TO.N,Net-(D2-K)*%
X115000000Y-69810000D02*
X119785000Y-69810000D01*
X119785000Y-69810000D02*
X121055000Y-68540000D01*
%TO.N,Net-(D2-A)*%
X124190000Y-53000000D02*
X115000000Y-62190000D01*
X127000000Y-53000000D02*
X124190000Y-53000000D01*
D45*
%TO.N,Net-(D3-K)*%
X138880000Y-68200000D02*
X144000000Y-63080000D01*
X136000000Y-68200000D02*
X138880000Y-68200000D01*
D46*
%TO.N,Net-(Q3-C)*%
X98087500Y-51000000D02*
X98000000Y-50912500D01*
X101460000Y-51000000D02*
X98087500Y-51000000D01*
%TO.N,Net-(Q4-E)*%
X121270000Y-51730000D02*
X121000000Y-52000000D01*
X121000000Y-49000000D02*
X120000000Y-48000000D01*
X127000000Y-51730000D02*
X121270000Y-51730000D01*
X121000000Y-52000000D02*
X121000000Y-49000000D01*
%TO.N,Net-(Q4-B)*%
X94000000Y-45087500D02*
X98000000Y-45087500D01*
X98087500Y-45000000D02*
X98000000Y-45087500D01*
X100000000Y-45000000D02*
X98087500Y-45000000D01*
%TO.N,Net-(Q4-C)*%
X114912500Y-45000000D02*
X119540000Y-45000000D01*
X119540000Y-45000000D02*
X120000000Y-45460000D01*
%TO.N,Net-(Q5-C)*%
X127000000Y-50460000D02*
X127000000Y-46087500D01*
X127000000Y-46087500D02*
X127087500Y-46000000D01*
%TD*%
%TA.AperFunction,Conductor*%
%TO.N,GND*%
G36*
X153808363Y-39520185D02*
G01*
X153829005Y-39536819D01*
X160463181Y-46170995D01*
X160496666Y-46232318D01*
X160499500Y-46258676D01*
X160499500Y-70741324D01*
X160479815Y-70808363D01*
X160463181Y-70829005D01*
X153829005Y-77463181D01*
X153767682Y-77496666D01*
X153741324Y-77499500D01*
X81258676Y-77499500D01*
X81191637Y-77479815D01*
X81170995Y-77463181D01*
X79236809Y-75528995D01*
X141299499Y-75528995D01*
X141326418Y-75664322D01*
X141326421Y-75664332D01*
X141379221Y-75791804D01*
X141379228Y-75791817D01*
X141455885Y-75906541D01*
X141455888Y-75906545D01*
X141553454Y-76004111D01*
X141553458Y-76004114D01*
X141668182Y-76080771D01*
X141668195Y-76080778D01*
X141795667Y-76133578D01*
X141795672Y-76133580D01*
X141795676Y-76133580D01*
X141795677Y-76133581D01*
X141931004Y-76160500D01*
X141931007Y-76160500D01*
X150068995Y-76160500D01*
X150160041Y-76142389D01*
X150204328Y-76133580D01*
X150331811Y-76080775D01*
X150446542Y-76004114D01*
X150544114Y-75906542D01*
X150620775Y-75791811D01*
X150673580Y-75664328D01*
X150700500Y-75528993D01*
X150700500Y-75391007D01*
X150700500Y-75391004D01*
X150673581Y-75255677D01*
X150673580Y-75255676D01*
X150673580Y-75255672D01*
X150673578Y-75255667D01*
X150620778Y-75128195D01*
X150620771Y-75128182D01*
X150544114Y-75013458D01*
X150540249Y-75008748D01*
X150540660Y-75008410D01*
X150526250Y-74989641D01*
X150379300Y-74735418D01*
X148282712Y-71108319D01*
X148168379Y-70910523D01*
X148134859Y-70852533D01*
X151750000Y-70852533D01*
X151750000Y-71147466D01*
X151750001Y-71147483D01*
X151788496Y-71439884D01*
X151788499Y-71439897D01*
X151864835Y-71724790D01*
X151864838Y-71724800D01*
X151977704Y-71997281D01*
X151977709Y-71997292D01*
X152125174Y-72252707D01*
X152125180Y-72252715D01*
X152241777Y-72404667D01*
X153063708Y-71582735D01*
X153160967Y-71716602D01*
X153283398Y-71839033D01*
X153417262Y-71936290D01*
X152595331Y-72758221D01*
X152747284Y-72874819D01*
X152747292Y-72874825D01*
X153002707Y-73022290D01*
X153002718Y-73022295D01*
X153275199Y-73135161D01*
X153275209Y-73135164D01*
X153560102Y-73211500D01*
X153560115Y-73211503D01*
X153852516Y-73249998D01*
X153852534Y-73250000D01*
X154147466Y-73250000D01*
X154147483Y-73249998D01*
X154439884Y-73211503D01*
X154439897Y-73211500D01*
X154724790Y-73135164D01*
X154724800Y-73135161D01*
X154997281Y-73022295D01*
X154997292Y-73022290D01*
X155252707Y-72874825D01*
X155252725Y-72874813D01*
X155404667Y-72758222D01*
X155404667Y-72758220D01*
X154582737Y-71936290D01*
X154716602Y-71839033D01*
X154839033Y-71716602D01*
X154936290Y-71582737D01*
X155758220Y-72404667D01*
X155758222Y-72404667D01*
X155874813Y-72252725D01*
X155874825Y-72252707D01*
X156022290Y-71997292D01*
X156022295Y-71997281D01*
X156135161Y-71724800D01*
X156135164Y-71724790D01*
X156211500Y-71439897D01*
X156211503Y-71439884D01*
X156249998Y-71147483D01*
X156250000Y-71147466D01*
X156250000Y-70852533D01*
X156249998Y-70852516D01*
X156211503Y-70560115D01*
X156211500Y-70560102D01*
X156135164Y-70275209D01*
X156135161Y-70275199D01*
X156022295Y-70002718D01*
X156022290Y-70002707D01*
X155874825Y-69747292D01*
X155874819Y-69747284D01*
X155758221Y-69595331D01*
X154936290Y-70417262D01*
X154839033Y-70283398D01*
X154716602Y-70160967D01*
X154582736Y-70063709D01*
X155404667Y-69241777D01*
X155252715Y-69125180D01*
X155252707Y-69125174D01*
X154997292Y-68977709D01*
X154997281Y-68977704D01*
X154724800Y-68864838D01*
X154724790Y-68864835D01*
X154439897Y-68788499D01*
X154439884Y-68788496D01*
X154147483Y-68750001D01*
X154147466Y-68750000D01*
X153852534Y-68750000D01*
X153852516Y-68750001D01*
X153560115Y-68788496D01*
X153560102Y-68788499D01*
X153275209Y-68864835D01*
X153275199Y-68864838D01*
X153002718Y-68977704D01*
X153002707Y-68977709D01*
X152747292Y-69125174D01*
X152747276Y-69125185D01*
X152595331Y-69241775D01*
X152595331Y-69241777D01*
X153417263Y-70063709D01*
X153283398Y-70160967D01*
X153160967Y-70283398D01*
X153063709Y-70417263D01*
X152241777Y-69595331D01*
X152241775Y-69595331D01*
X152125185Y-69747276D01*
X152125174Y-69747292D01*
X151977709Y-70002707D01*
X151977704Y-70002718D01*
X151864838Y-70275199D01*
X151864835Y-70275209D01*
X151788499Y-70560102D01*
X151788496Y-70560115D01*
X151750001Y-70852516D01*
X151750000Y-70852533D01*
X148134859Y-70852533D01*
X148022339Y-70657874D01*
X146609740Y-68214077D01*
X146589826Y-68173642D01*
X146575759Y-68155291D01*
X146564187Y-68135270D01*
X146537171Y-68104497D01*
X146531942Y-68098125D01*
X146507020Y-68065612D01*
X146495694Y-68055669D01*
X146489636Y-68050351D01*
X146474388Y-68032981D01*
X146438616Y-68005561D01*
X146404730Y-67975813D01*
X146404729Y-67975812D01*
X146404726Y-67975810D01*
X146391689Y-67968274D01*
X146391689Y-67968273D01*
X146384697Y-67964231D01*
X146366358Y-67950174D01*
X146325929Y-67930262D01*
X146322354Y-67928196D01*
X146286886Y-67907694D01*
X146286887Y-67907694D01*
X146272612Y-67902840D01*
X146272612Y-67902839D01*
X146264973Y-67900241D01*
X146244248Y-67890035D01*
X146200722Y-67878395D01*
X146196809Y-67877065D01*
X146196807Y-67877063D01*
X146158018Y-67863876D01*
X146143086Y-67861901D01*
X146143086Y-67861902D01*
X146135088Y-67860844D01*
X146112754Y-67854873D01*
X146067770Y-67851947D01*
X146063675Y-67851405D01*
X146023072Y-67846039D01*
X146008043Y-67847017D01*
X145991957Y-67847017D01*
X145976925Y-67846039D01*
X145936322Y-67851406D01*
X145928127Y-67852213D01*
X145887253Y-67854872D01*
X145887240Y-67854874D01*
X145872689Y-67858764D01*
X145856926Y-67861900D01*
X145841985Y-67863875D01*
X145818645Y-67871811D01*
X145803203Y-67877061D01*
X145799282Y-67878394D01*
X145755752Y-67890035D01*
X145735022Y-67900243D01*
X145727384Y-67902841D01*
X145727384Y-67902842D01*
X145713116Y-67907694D01*
X145713106Y-67907698D01*
X145677647Y-67928193D01*
X145677648Y-67928194D01*
X145674072Y-67930260D01*
X145633642Y-67950174D01*
X145615298Y-67964233D01*
X145608322Y-67968266D01*
X145608320Y-67968268D01*
X145595270Y-67975812D01*
X145564485Y-68002837D01*
X145561392Y-68005554D01*
X145525612Y-68032980D01*
X145510360Y-68050352D01*
X145504301Y-68055672D01*
X145504299Y-68055675D01*
X145492980Y-68065612D01*
X145492977Y-68065615D01*
X145468061Y-68098120D01*
X145462839Y-68104482D01*
X145435813Y-68135270D01*
X145435811Y-68135272D01*
X145435811Y-68135273D01*
X145428270Y-68148317D01*
X145428269Y-68148316D01*
X145424229Y-68155303D01*
X145410174Y-68173642D01*
X145390264Y-68214065D01*
X145388191Y-68217653D01*
X141473745Y-74989646D01*
X141459336Y-75008418D01*
X141459746Y-75008755D01*
X141455881Y-75013463D01*
X141379228Y-75128182D01*
X141379221Y-75128195D01*
X141326421Y-75255667D01*
X141326418Y-75255677D01*
X141299500Y-75391004D01*
X141299500Y-75391007D01*
X141299500Y-75528993D01*
X141299500Y-75528995D01*
X141299499Y-75528995D01*
X79236809Y-75528995D01*
X74536819Y-70829005D01*
X74503334Y-70767682D01*
X74500500Y-70741324D01*
X74500500Y-70263155D01*
X78541000Y-70263155D01*
X78541000Y-70750000D01*
X79372042Y-70750000D01*
X79324644Y-70832096D01*
X79295000Y-70942731D01*
X79295000Y-71057269D01*
X79324644Y-71167904D01*
X79372042Y-71250000D01*
X78541000Y-71250000D01*
X78541000Y-71736844D01*
X78547401Y-71796372D01*
X78547403Y-71796379D01*
X78597645Y-71931086D01*
X78597649Y-71931093D01*
X78683809Y-72046187D01*
X78683812Y-72046190D01*
X78798906Y-72132350D01*
X78798913Y-72132354D01*
X78933620Y-72182596D01*
X78933627Y-72182598D01*
X78993155Y-72188999D01*
X78993172Y-72189000D01*
X79480000Y-72189000D01*
X79480000Y-71357957D01*
X79562096Y-71405356D01*
X79672731Y-71435000D01*
X79787269Y-71435000D01*
X79897904Y-71405356D01*
X79980000Y-71357957D01*
X79980000Y-72189000D01*
X80466828Y-72189000D01*
X80466844Y-72188999D01*
X80526372Y-72182598D01*
X80526379Y-72182596D01*
X80661086Y-72132354D01*
X80661093Y-72132350D01*
X80776187Y-72046190D01*
X80776190Y-72046187D01*
X80862350Y-71931093D01*
X80862354Y-71931086D01*
X80912596Y-71796379D01*
X80912598Y-71796372D01*
X80918999Y-71736844D01*
X80919000Y-71736827D01*
X80919000Y-71474258D01*
X80938685Y-71407219D01*
X80991489Y-71361464D01*
X81060647Y-71351520D01*
X81124203Y-71380545D01*
X81160931Y-71435940D01*
X81167645Y-71456606D01*
X81167646Y-71456609D01*
X81224900Y-71568974D01*
X81250729Y-71619666D01*
X81252651Y-71623437D01*
X81362694Y-71774900D01*
X81362698Y-71774905D01*
X81495094Y-71907301D01*
X81495099Y-71907305D01*
X81618942Y-71997281D01*
X81646566Y-72017351D01*
X81745401Y-72067710D01*
X81813390Y-72102353D01*
X81813393Y-72102354D01*
X81902424Y-72131281D01*
X81991458Y-72160210D01*
X82176384Y-72189500D01*
X82176385Y-72189500D01*
X82363615Y-72189500D01*
X82363616Y-72189500D01*
X82548542Y-72160210D01*
X82726609Y-72102353D01*
X82893434Y-72017351D01*
X83044907Y-71907300D01*
X83177300Y-71774907D01*
X83230551Y-71701613D01*
X83285880Y-71658949D01*
X83330868Y-71650500D01*
X86779192Y-71650500D01*
X86846231Y-71670185D01*
X86866873Y-71686819D01*
X87063181Y-71883127D01*
X87096666Y-71944450D01*
X87099500Y-71970808D01*
X87099500Y-72525001D01*
X87099501Y-72525019D01*
X87110000Y-72627796D01*
X87110001Y-72627799D01*
X87157893Y-72772324D01*
X87165186Y-72794334D01*
X87257288Y-72943656D01*
X87381344Y-73067712D01*
X87530666Y-73159814D01*
X87697203Y-73214999D01*
X87799991Y-73225500D01*
X88400008Y-73225499D01*
X88400016Y-73225498D01*
X88400019Y-73225498D01*
X88456302Y-73219748D01*
X88502797Y-73214999D01*
X88669334Y-73159814D01*
X88818656Y-73067712D01*
X88942712Y-72943656D01*
X88944461Y-72940819D01*
X88946169Y-72939283D01*
X88947193Y-72937989D01*
X88947414Y-72938163D01*
X88996406Y-72894096D01*
X89065368Y-72882872D01*
X89129451Y-72910713D01*
X89155537Y-72940817D01*
X89157288Y-72943656D01*
X89281344Y-73067712D01*
X89430666Y-73159814D01*
X89597203Y-73214999D01*
X89699991Y-73225500D01*
X90300008Y-73225499D01*
X90300016Y-73225498D01*
X90300019Y-73225498D01*
X90356302Y-73219748D01*
X90402797Y-73214999D01*
X90569334Y-73159814D01*
X90718656Y-73067712D01*
X90842712Y-72943656D01*
X90934814Y-72794334D01*
X90934817Y-72794322D01*
X90937615Y-72788325D01*
X90983785Y-72735884D01*
X91050977Y-72716728D01*
X91117859Y-72736940D01*
X91162385Y-72788325D01*
X91165184Y-72794330D01*
X91165186Y-72794334D01*
X91257288Y-72943656D01*
X91381344Y-73067712D01*
X91530666Y-73159814D01*
X91697203Y-73214999D01*
X91799991Y-73225500D01*
X92354191Y-73225499D01*
X92421230Y-73245183D01*
X92441872Y-73261818D01*
X92770724Y-73590669D01*
X92816733Y-73636678D01*
X92861332Y-73681277D01*
X92967866Y-73752461D01*
X92967872Y-73752464D01*
X92967873Y-73752465D01*
X93086256Y-73801501D01*
X93086260Y-73801501D01*
X93086261Y-73801502D01*
X93211928Y-73826500D01*
X93211931Y-73826500D01*
X94611363Y-73826500D01*
X94695907Y-73809682D01*
X94737036Y-73801501D01*
X94855419Y-73752465D01*
X94961961Y-73681277D01*
X96505276Y-72137962D01*
X96553247Y-72066167D01*
X96576464Y-72031421D01*
X96576465Y-72031419D01*
X96625501Y-71913036D01*
X96630240Y-71889212D01*
X96631451Y-71883127D01*
X96635600Y-71862263D01*
X96646564Y-71807144D01*
X96678949Y-71745235D01*
X96739664Y-71710661D01*
X96809434Y-71714400D01*
X96866106Y-71755266D01*
X96871283Y-71762446D01*
X96978829Y-71923399D01*
X96978832Y-71923403D01*
X97121596Y-72066167D01*
X97121600Y-72066170D01*
X97289473Y-72178340D01*
X97289486Y-72178347D01*
X97476016Y-72255609D01*
X97476025Y-72255612D01*
X97674041Y-72294999D01*
X97674045Y-72295000D01*
X97750000Y-72295000D01*
X97750000Y-71550330D01*
X97769745Y-71570075D01*
X97855255Y-71619444D01*
X97950630Y-71645000D01*
X98049370Y-71645000D01*
X98144745Y-71619444D01*
X98230255Y-71570075D01*
X98250000Y-71550330D01*
X98250000Y-72295000D01*
X98325955Y-72295000D01*
X98325958Y-72294999D01*
X98523974Y-72255612D01*
X98523983Y-72255609D01*
X98710513Y-72178347D01*
X98710526Y-72178340D01*
X98878399Y-72066170D01*
X98878403Y-72066167D01*
X99021167Y-71923403D01*
X99021170Y-71923399D01*
X99133340Y-71755526D01*
X99133347Y-71755513D01*
X99210609Y-71568983D01*
X99210612Y-71568974D01*
X99220353Y-71520000D01*
X98280330Y-71520000D01*
X98300075Y-71500255D01*
X98349444Y-71414745D01*
X98375000Y-71319370D01*
X98375000Y-71220630D01*
X98349444Y-71125255D01*
X98300075Y-71039745D01*
X98285830Y-71025500D01*
X98326003Y-71025500D01*
X98352259Y-71020277D01*
X98363047Y-71020032D01*
X98363715Y-71020211D01*
X98365866Y-71020000D01*
X99220353Y-71020000D01*
X99210612Y-70971025D01*
X99210609Y-70971016D01*
X99148866Y-70821952D01*
X99141397Y-70752482D01*
X99172673Y-70690003D01*
X99232762Y-70654352D01*
X99263427Y-70650500D01*
X101201571Y-70650500D01*
X101286115Y-70633682D01*
X101327244Y-70625501D01*
X101445627Y-70576465D01*
X101495126Y-70543391D01*
X101495126Y-70543390D01*
X101495128Y-70543390D01*
X101533934Y-70517461D01*
X101552169Y-70505277D01*
X102770627Y-69286817D01*
X102831950Y-69253333D01*
X102858308Y-69250499D01*
X103400002Y-69250499D01*
X103400008Y-69250499D01*
X103502797Y-69239999D01*
X103669334Y-69184814D01*
X103818656Y-69092712D01*
X103912319Y-68999049D01*
X103973642Y-68965564D01*
X104043334Y-68970548D01*
X104087681Y-68999049D01*
X104181344Y-69092712D01*
X104330666Y-69184814D01*
X104497203Y-69239999D01*
X104599991Y-69250500D01*
X105225008Y-69250499D01*
X105225016Y-69250498D01*
X105225019Y-69250498D01*
X105310391Y-69241777D01*
X105327797Y-69239999D01*
X105494334Y-69184814D01*
X105643656Y-69092712D01*
X105767712Y-68968656D01*
X105859814Y-68819334D01*
X105871028Y-68785494D01*
X105884897Y-68765462D01*
X105895020Y-68743297D01*
X105904432Y-68737248D01*
X105910801Y-68728050D01*
X105933299Y-68718696D01*
X105953798Y-68705523D01*
X105970901Y-68703063D01*
X105975317Y-68701228D01*
X105988733Y-68700500D01*
X106011267Y-68700500D01*
X106078306Y-68720185D01*
X106124061Y-68772989D01*
X106128972Y-68785494D01*
X106140186Y-68819334D01*
X106232096Y-68968345D01*
X106232289Y-68968657D01*
X106361451Y-69097819D01*
X106359559Y-69099710D01*
X106392774Y-69146583D01*
X106399500Y-69186867D01*
X106399500Y-69821042D01*
X106379815Y-69888081D01*
X106340598Y-69926580D01*
X106331344Y-69932287D01*
X106207289Y-70056342D01*
X106115187Y-70205663D01*
X106115185Y-70205668D01*
X106098585Y-70255765D01*
X106060001Y-70372203D01*
X106060001Y-70372204D01*
X106060000Y-70372204D01*
X106049500Y-70474983D01*
X106049500Y-71525001D01*
X106049501Y-71525019D01*
X106060000Y-71627796D01*
X106060001Y-71627799D01*
X106108749Y-71774909D01*
X106115186Y-71794334D01*
X106207288Y-71943656D01*
X106331344Y-72067712D01*
X106480666Y-72159814D01*
X106647203Y-72214999D01*
X106749991Y-72225500D01*
X107350008Y-72225499D01*
X107350016Y-72225498D01*
X107350019Y-72225498D01*
X107406302Y-72219748D01*
X107452797Y-72214999D01*
X107619334Y-72159814D01*
X107768656Y-72067712D01*
X107892712Y-71943656D01*
X107894752Y-71940347D01*
X107896745Y-71938555D01*
X107897193Y-71937989D01*
X107897289Y-71938065D01*
X107946694Y-71893623D01*
X108015656Y-71882395D01*
X108079740Y-71910234D01*
X108105829Y-71940339D01*
X108107681Y-71943341D01*
X108107683Y-71943344D01*
X108231654Y-72067315D01*
X108380875Y-72159356D01*
X108380880Y-72159358D01*
X108547302Y-72214505D01*
X108547309Y-72214506D01*
X108650019Y-72224999D01*
X109200000Y-72224999D01*
X109249972Y-72224999D01*
X109249986Y-72224998D01*
X109352697Y-72214505D01*
X109519119Y-72159358D01*
X109519124Y-72159356D01*
X109668345Y-72067315D01*
X109792315Y-71943345D01*
X109884356Y-71794124D01*
X109884358Y-71794119D01*
X109939505Y-71627697D01*
X109939506Y-71627690D01*
X109949999Y-71524986D01*
X109950000Y-71524973D01*
X109950000Y-71250000D01*
X109200000Y-71250000D01*
X109200000Y-72224999D01*
X108650019Y-72224999D01*
X108699999Y-72224998D01*
X108700000Y-72224998D01*
X108700000Y-70750000D01*
X109200000Y-70750000D01*
X109949999Y-70750000D01*
X109949999Y-70475028D01*
X109949998Y-70475013D01*
X109939505Y-70372302D01*
X109884358Y-70205880D01*
X109884356Y-70205875D01*
X109792315Y-70056654D01*
X109668345Y-69932684D01*
X109519124Y-69840643D01*
X109519119Y-69840641D01*
X109352697Y-69785494D01*
X109352690Y-69785493D01*
X109249986Y-69775000D01*
X109200000Y-69775000D01*
X109200000Y-70750000D01*
X108700000Y-70750000D01*
X108700000Y-69775000D01*
X108699999Y-69774999D01*
X108650029Y-69775000D01*
X108650011Y-69775001D01*
X108547302Y-69785494D01*
X108380880Y-69840641D01*
X108380875Y-69840643D01*
X108231654Y-69932684D01*
X108107683Y-70056655D01*
X108107679Y-70056660D01*
X108105826Y-70059665D01*
X108104018Y-70061290D01*
X108103202Y-70062323D01*
X108103025Y-70062183D01*
X108053874Y-70106385D01*
X107984911Y-70117601D01*
X107920831Y-70089752D01*
X107913185Y-70082810D01*
X107902579Y-70072341D01*
X107892712Y-70056344D01*
X107768656Y-69932288D01*
X107747415Y-69919186D01*
X107737392Y-69909293D01*
X107727003Y-69890559D01*
X107712678Y-69874632D01*
X107708863Y-69857847D01*
X107703508Y-69848189D01*
X107704210Y-69837371D01*
X107700500Y-69821042D01*
X107700500Y-69234797D01*
X107720185Y-69167758D01*
X107759403Y-69129258D01*
X107818656Y-69092712D01*
X107912675Y-68998692D01*
X107973994Y-68965210D01*
X108043686Y-68970194D01*
X108088034Y-68998695D01*
X108181654Y-69092315D01*
X108330875Y-69184356D01*
X108330880Y-69184358D01*
X108497302Y-69239505D01*
X108497309Y-69239506D01*
X108600019Y-69249999D01*
X109162500Y-69249999D01*
X109224972Y-69249999D01*
X109224986Y-69249998D01*
X109327697Y-69239505D01*
X109494119Y-69184358D01*
X109494124Y-69184356D01*
X109643345Y-69092315D01*
X109767315Y-68968345D01*
X109771145Y-68962135D01*
X113699500Y-68962135D01*
X113699500Y-70657870D01*
X113699501Y-70657872D01*
X113705908Y-70717483D01*
X113756202Y-70852328D01*
X113756206Y-70852335D01*
X113842452Y-70967544D01*
X113842455Y-70967547D01*
X113957664Y-71053793D01*
X113957671Y-71053797D01*
X114092517Y-71104091D01*
X114092516Y-71104091D01*
X114099444Y-71104835D01*
X114152127Y-71110500D01*
X115847872Y-71110499D01*
X115907483Y-71104091D01*
X116042331Y-71053796D01*
X116157546Y-70967546D01*
X116243796Y-70852331D01*
X116294091Y-70717483D01*
X116300500Y-70657873D01*
X116300500Y-70584500D01*
X116320185Y-70517461D01*
X116372989Y-70471706D01*
X116424500Y-70460500D01*
X119849071Y-70460500D01*
X119933615Y-70443682D01*
X119974744Y-70435501D01*
X120093127Y-70386465D01*
X120107942Y-70376566D01*
X120114471Y-70372204D01*
X120177911Y-70329815D01*
X120199669Y-70315277D01*
X120530856Y-69984088D01*
X120592174Y-69950606D01*
X120656849Y-69953840D01*
X120667255Y-69957222D01*
X120893146Y-69993000D01*
X120893147Y-69993000D01*
X121216853Y-69993000D01*
X121216854Y-69993000D01*
X121442745Y-69957222D01*
X121442748Y-69957221D01*
X121442749Y-69957221D01*
X121660255Y-69886549D01*
X121660255Y-69886548D01*
X121660258Y-69886548D01*
X121864038Y-69782717D01*
X122049066Y-69648286D01*
X122210786Y-69486566D01*
X122345217Y-69301538D01*
X122449048Y-69097758D01*
X122454243Y-69081769D01*
X122519721Y-68880249D01*
X122519721Y-68880248D01*
X122519722Y-68880245D01*
X122555500Y-68654354D01*
X122555500Y-68425646D01*
X122519722Y-68199755D01*
X122519721Y-68199751D01*
X122519721Y-68199750D01*
X122449049Y-67982244D01*
X122441927Y-67968266D01*
X122345217Y-67778462D01*
X122210786Y-67593434D01*
X122049066Y-67431714D01*
X121964559Y-67370316D01*
X121921896Y-67314988D01*
X121915917Y-67245375D01*
X121948523Y-67183580D01*
X121964556Y-67169685D01*
X122049066Y-67108286D01*
X122170533Y-66986819D01*
X122231856Y-66953334D01*
X122258214Y-66950500D01*
X134563894Y-66950500D01*
X134630933Y-66970185D01*
X134676688Y-67022989D01*
X134686632Y-67092147D01*
X134662270Y-67149986D01*
X134583058Y-67253217D01*
X134583052Y-67253226D01*
X134471595Y-67446273D01*
X134471593Y-67446277D01*
X134386293Y-67652209D01*
X134386290Y-67652219D01*
X134330107Y-67861900D01*
X134328597Y-67867534D01*
X134328594Y-67867547D01*
X134299501Y-68088533D01*
X134299500Y-68088549D01*
X134299500Y-68311450D01*
X134299501Y-68311466D01*
X134328594Y-68532452D01*
X134328595Y-68532457D01*
X134328596Y-68532463D01*
X134381003Y-68728050D01*
X134386290Y-68747780D01*
X134386293Y-68747790D01*
X134471593Y-68953722D01*
X134471595Y-68953726D01*
X134583052Y-69146774D01*
X134583057Y-69146780D01*
X134583058Y-69146782D01*
X134718751Y-69323622D01*
X134718757Y-69323629D01*
X134876370Y-69481242D01*
X134876377Y-69481248D01*
X135002294Y-69577867D01*
X135053226Y-69616948D01*
X135246274Y-69728405D01*
X135452219Y-69813710D01*
X135667537Y-69871404D01*
X135888543Y-69900500D01*
X135888550Y-69900500D01*
X136111450Y-69900500D01*
X136111457Y-69900500D01*
X136332463Y-69871404D01*
X136547781Y-69813710D01*
X136753726Y-69728405D01*
X136946774Y-69616948D01*
X137123624Y-69481247D01*
X137281247Y-69323624D01*
X137376863Y-69199013D01*
X137433290Y-69157811D01*
X137475239Y-69150500D01*
X138973618Y-69150500D01*
X138985286Y-69148178D01*
X139065433Y-69132236D01*
X139157251Y-69113973D01*
X139228901Y-69084294D01*
X139330230Y-69042323D01*
X139485908Y-68938302D01*
X143707391Y-64716817D01*
X143768714Y-64683333D01*
X143795072Y-64680499D01*
X145147871Y-64680499D01*
X145147872Y-64680499D01*
X145207483Y-64674091D01*
X145342331Y-64623796D01*
X145457546Y-64537546D01*
X145543796Y-64422331D01*
X145594091Y-64287483D01*
X145600500Y-64227873D01*
X145600499Y-61932128D01*
X145594339Y-61874825D01*
X145594091Y-61872516D01*
X145543797Y-61737671D01*
X145543795Y-61737668D01*
X145507221Y-61688811D01*
X145482804Y-61623347D01*
X145497656Y-61555074D01*
X145547061Y-61505668D01*
X145606488Y-61490500D01*
X154601533Y-61490500D01*
X154668572Y-61510185D01*
X154714327Y-61562989D01*
X154717715Y-61571166D01*
X154731203Y-61607330D01*
X154731206Y-61607335D01*
X154817452Y-61722544D01*
X154817455Y-61722547D01*
X154932664Y-61808793D01*
X154932671Y-61808797D01*
X155067517Y-61859091D01*
X155067516Y-61859091D01*
X155074444Y-61859835D01*
X155127127Y-61865500D01*
X156872872Y-61865499D01*
X156932483Y-61859091D01*
X157067331Y-61808796D01*
X157182546Y-61722546D01*
X157268796Y-61607331D01*
X157319091Y-61472483D01*
X157325500Y-61412873D01*
X157325499Y-59667128D01*
X157319091Y-59607517D01*
X157317918Y-59604373D01*
X157268797Y-59472671D01*
X157268793Y-59472664D01*
X157182547Y-59357455D01*
X157182544Y-59357452D01*
X157067335Y-59271206D01*
X157067328Y-59271202D01*
X156932482Y-59220908D01*
X156932483Y-59220908D01*
X156872883Y-59214501D01*
X156872881Y-59214500D01*
X156872873Y-59214500D01*
X156872864Y-59214500D01*
X155127129Y-59214500D01*
X155127123Y-59214501D01*
X155067516Y-59220908D01*
X154932671Y-59271202D01*
X154932664Y-59271206D01*
X154817455Y-59357452D01*
X154817452Y-59357455D01*
X154731206Y-59472664D01*
X154731203Y-59472669D01*
X154717715Y-59508834D01*
X154675843Y-59564767D01*
X154610379Y-59589184D01*
X154601533Y-59589500D01*
X140366381Y-59589500D01*
X140296173Y-59603465D01*
X140296163Y-59603467D01*
X140291612Y-59604373D01*
X140182749Y-59626027D01*
X140123666Y-59650500D01*
X140116710Y-59653381D01*
X140116700Y-59653384D01*
X140009776Y-59697673D01*
X140009763Y-59697680D01*
X139854091Y-59801698D01*
X139854087Y-59801701D01*
X134642609Y-65013181D01*
X134581286Y-65046666D01*
X134554928Y-65049500D01*
X122410967Y-65049500D01*
X122343928Y-65029815D01*
X122298173Y-64977011D01*
X122288229Y-64907853D01*
X122317254Y-64844297D01*
X122336655Y-64826234D01*
X122412190Y-64769687D01*
X122498350Y-64654593D01*
X122498354Y-64654586D01*
X122548596Y-64519879D01*
X122548598Y-64519872D01*
X122554999Y-64460344D01*
X122555000Y-64460327D01*
X122555000Y-63710000D01*
X121545748Y-63710000D01*
X121567518Y-63672292D01*
X121605000Y-63532409D01*
X121605000Y-63387591D01*
X121567518Y-63247708D01*
X121545748Y-63210000D01*
X122555000Y-63210000D01*
X122555000Y-62459672D01*
X122554999Y-62459655D01*
X122548598Y-62400127D01*
X122548596Y-62400120D01*
X122498354Y-62265413D01*
X122498350Y-62265406D01*
X122412190Y-62150312D01*
X122412187Y-62150309D01*
X122297093Y-62064149D01*
X122297086Y-62064145D01*
X122162379Y-62013903D01*
X122162372Y-62013901D01*
X122102844Y-62007500D01*
X121305000Y-62007500D01*
X121305000Y-62969252D01*
X121267292Y-62947482D01*
X121127409Y-62910000D01*
X120982591Y-62910000D01*
X120842708Y-62947482D01*
X120805000Y-62969252D01*
X120805000Y-62007500D01*
X120007155Y-62007500D01*
X119947627Y-62013901D01*
X119947620Y-62013903D01*
X119812913Y-62064145D01*
X119812906Y-62064149D01*
X119697812Y-62150309D01*
X119697809Y-62150312D01*
X119611649Y-62265406D01*
X119611645Y-62265413D01*
X119561403Y-62400120D01*
X119561401Y-62400127D01*
X119555000Y-62459655D01*
X119555000Y-63210000D01*
X120564252Y-63210000D01*
X120542482Y-63247708D01*
X120505000Y-63387591D01*
X120505000Y-63532409D01*
X120542482Y-63672292D01*
X120564252Y-63710000D01*
X119555000Y-63710000D01*
X119555000Y-64460344D01*
X119561401Y-64519872D01*
X119561403Y-64519879D01*
X119611645Y-64654586D01*
X119611649Y-64654593D01*
X119697809Y-64769687D01*
X119697812Y-64769690D01*
X119812906Y-64855850D01*
X119812911Y-64855853D01*
X119840845Y-64866272D01*
X119896778Y-64908144D01*
X119921195Y-64973608D01*
X119906343Y-65041881D01*
X119897829Y-65055339D01*
X119764785Y-65238458D01*
X119660950Y-65442244D01*
X119590278Y-65659750D01*
X119590278Y-65659753D01*
X119554500Y-65885646D01*
X119554500Y-66114353D01*
X119590278Y-66340246D01*
X119590278Y-66340249D01*
X119660950Y-66557755D01*
X119675491Y-66586293D01*
X119764783Y-66761538D01*
X119899214Y-66946566D01*
X120060934Y-67108286D01*
X120101583Y-67137819D01*
X120145438Y-67169682D01*
X120188103Y-67225013D01*
X120194082Y-67294626D01*
X120161476Y-67356421D01*
X120145438Y-67370318D01*
X120060932Y-67431715D01*
X119899216Y-67593431D01*
X119899216Y-67593432D01*
X119899214Y-67593434D01*
X119856504Y-67652219D01*
X119764783Y-67778461D01*
X119660950Y-67982244D01*
X119590278Y-68199750D01*
X119590278Y-68199753D01*
X119554500Y-68425646D01*
X119554500Y-68654354D01*
X119558253Y-68678050D01*
X119590278Y-68880248D01*
X119616954Y-68962349D01*
X119617388Y-68977557D01*
X119622707Y-68991816D01*
X119618365Y-69011774D01*
X119618949Y-69032190D01*
X119610861Y-69046275D01*
X119607857Y-69060090D01*
X119586707Y-69088345D01*
X119551875Y-69123179D01*
X119490553Y-69156665D01*
X119464191Y-69159500D01*
X116424499Y-69159500D01*
X116357460Y-69139815D01*
X116311705Y-69087011D01*
X116300499Y-69035500D01*
X116300499Y-68962129D01*
X116300498Y-68962123D01*
X116300497Y-68962116D01*
X116294091Y-68902517D01*
X116285785Y-68880248D01*
X116243797Y-68767671D01*
X116243793Y-68767664D01*
X116157547Y-68652455D01*
X116157544Y-68652452D01*
X116042335Y-68566206D01*
X116042328Y-68566202D01*
X115907482Y-68515908D01*
X115907483Y-68515908D01*
X115847883Y-68509501D01*
X115847881Y-68509500D01*
X115847873Y-68509500D01*
X115847864Y-68509500D01*
X114152129Y-68509500D01*
X114152123Y-68509501D01*
X114092516Y-68515908D01*
X113957671Y-68566202D01*
X113957664Y-68566206D01*
X113842455Y-68652452D01*
X113842452Y-68652455D01*
X113756206Y-68767664D01*
X113756202Y-68767671D01*
X113705908Y-68902517D01*
X113700403Y-68953726D01*
X113699501Y-68962123D01*
X113699500Y-68962135D01*
X109771145Y-68962135D01*
X109813352Y-68893709D01*
X109859356Y-68819124D01*
X109859358Y-68819119D01*
X109914505Y-68652697D01*
X109914506Y-68652690D01*
X109924999Y-68549986D01*
X109925000Y-68549973D01*
X109925000Y-68300000D01*
X109162500Y-68300000D01*
X109162500Y-69249999D01*
X108600019Y-69249999D01*
X108662499Y-69249998D01*
X108662500Y-69249998D01*
X108662500Y-67800000D01*
X109162500Y-67800000D01*
X109924999Y-67800000D01*
X109924999Y-67550028D01*
X109924998Y-67550013D01*
X109914505Y-67447302D01*
X109859358Y-67280880D01*
X109859356Y-67280875D01*
X109767315Y-67131654D01*
X109643345Y-67007684D01*
X109494124Y-66915643D01*
X109494119Y-66915641D01*
X109327697Y-66860494D01*
X109327690Y-66860493D01*
X109224986Y-66850000D01*
X109162500Y-66850000D01*
X109162500Y-67800000D01*
X108662500Y-67800000D01*
X108662500Y-66850000D01*
X108662499Y-66849999D01*
X108600028Y-66850000D01*
X108600011Y-66850001D01*
X108497302Y-66860494D01*
X108330880Y-66915641D01*
X108330875Y-66915643D01*
X108181657Y-67007682D01*
X108088034Y-67101305D01*
X108026710Y-67134789D01*
X107957019Y-67129805D01*
X107912672Y-67101304D01*
X107818657Y-67007289D01*
X107818656Y-67007288D01*
X107669334Y-66915186D01*
X107502797Y-66860001D01*
X107502795Y-66860000D01*
X107400010Y-66849500D01*
X106774998Y-66849500D01*
X106774980Y-66849501D01*
X106672203Y-66860000D01*
X106672200Y-66860001D01*
X106505668Y-66915185D01*
X106505663Y-66915187D01*
X106356342Y-67007289D01*
X106232289Y-67131342D01*
X106140187Y-67280663D01*
X106140184Y-67280671D01*
X106128972Y-67314506D01*
X106115102Y-67334537D01*
X106104980Y-67356703D01*
X106095567Y-67362751D01*
X106089199Y-67371950D01*
X106066700Y-67381303D01*
X106046202Y-67394477D01*
X106029098Y-67396936D01*
X106024683Y-67398772D01*
X106011267Y-67399500D01*
X105988733Y-67399500D01*
X105921694Y-67379815D01*
X105875939Y-67327011D01*
X105871028Y-67314506D01*
X105864440Y-67294626D01*
X105859814Y-67280666D01*
X105767712Y-67131344D01*
X105643656Y-67007288D01*
X105494334Y-66915186D01*
X105327797Y-66860001D01*
X105327795Y-66860000D01*
X105225016Y-66849500D01*
X105225009Y-66849500D01*
X104683308Y-66849500D01*
X104616269Y-66829815D01*
X104595627Y-66813181D01*
X102547174Y-64764727D01*
X102547173Y-64764726D01*
X102475473Y-64716818D01*
X102440627Y-64693535D01*
X102415997Y-64683333D01*
X102322244Y-64644499D01*
X102322238Y-64644497D01*
X102196571Y-64619500D01*
X102196569Y-64619500D01*
X99263967Y-64619500D01*
X99196928Y-64599815D01*
X99151173Y-64547011D01*
X99141229Y-64477853D01*
X99149406Y-64448047D01*
X99162590Y-64416216D01*
X99211091Y-64299127D01*
X99250500Y-64101003D01*
X99250500Y-63898997D01*
X99211091Y-63700873D01*
X99177673Y-63620198D01*
X99170205Y-63550730D01*
X99189964Y-63505340D01*
X99189547Y-63505112D01*
X99192095Y-63500444D01*
X99192972Y-63498431D01*
X99193796Y-63497331D01*
X99244091Y-63362483D01*
X99250500Y-63302873D01*
X99250499Y-62157128D01*
X99244091Y-62097517D01*
X99240950Y-62089096D01*
X99193797Y-61962671D01*
X99193793Y-61962664D01*
X99107547Y-61847455D01*
X99107544Y-61847452D01*
X98992335Y-61761206D01*
X98992328Y-61761202D01*
X98857482Y-61710908D01*
X98857483Y-61710908D01*
X98797883Y-61704501D01*
X98797881Y-61704500D01*
X98797873Y-61704500D01*
X98797865Y-61704500D01*
X98774500Y-61704500D01*
X98707461Y-61684815D01*
X98661706Y-61632011D01*
X98650500Y-61580500D01*
X98650500Y-61178957D01*
X98670185Y-61111918D01*
X98687440Y-61090659D01*
X98697443Y-61080795D01*
X98718656Y-61067712D01*
X98842712Y-60943656D01*
X98852303Y-60928105D01*
X98862940Y-60917618D01*
X98881089Y-60907873D01*
X98896406Y-60894096D01*
X98911248Y-60891680D01*
X98924497Y-60884567D01*
X98945033Y-60886181D01*
X98965368Y-60882872D01*
X98979161Y-60888864D01*
X98994152Y-60890043D01*
X99010554Y-60902503D01*
X99029451Y-60910713D01*
X99045032Y-60928694D01*
X99049789Y-60932308D01*
X99050971Y-60935548D01*
X99055537Y-60940817D01*
X99057288Y-60943656D01*
X99181344Y-61067712D01*
X99330666Y-61159814D01*
X99497203Y-61214999D01*
X99599991Y-61225500D01*
X100200008Y-61225499D01*
X100200016Y-61225498D01*
X100200019Y-61225498D01*
X100256302Y-61219748D01*
X100302797Y-61214999D01*
X100469334Y-61159814D01*
X100618656Y-61067712D01*
X100742712Y-60943656D01*
X100834814Y-60794334D01*
X100854311Y-60735493D01*
X100868181Y-60715461D01*
X100878304Y-60693297D01*
X100887715Y-60687248D01*
X100894084Y-60678051D01*
X100916582Y-60668697D01*
X100937082Y-60655523D01*
X100954183Y-60653064D01*
X100958600Y-60651228D01*
X100972017Y-60650500D01*
X101027983Y-60650500D01*
X101095022Y-60670185D01*
X101140777Y-60722989D01*
X101145686Y-60735489D01*
X101165186Y-60794334D01*
X101257288Y-60943656D01*
X101381344Y-61067712D01*
X101530666Y-61159814D01*
X101697203Y-61214999D01*
X101799991Y-61225500D01*
X102400008Y-61225499D01*
X102400016Y-61225498D01*
X102400019Y-61225498D01*
X102456302Y-61219748D01*
X102502797Y-61214999D01*
X102669334Y-61159814D01*
X102818656Y-61067712D01*
X102942712Y-60943656D01*
X102944752Y-60940347D01*
X102946745Y-60938555D01*
X102947193Y-60937989D01*
X102947289Y-60938065D01*
X102996694Y-60893623D01*
X103065656Y-60882395D01*
X103129740Y-60910234D01*
X103155829Y-60940339D01*
X103157681Y-60943341D01*
X103157683Y-60943344D01*
X103281654Y-61067315D01*
X103430875Y-61159356D01*
X103430880Y-61159358D01*
X103597302Y-61214505D01*
X103597309Y-61214506D01*
X103700019Y-61224999D01*
X104250000Y-61224999D01*
X104299972Y-61224999D01*
X104299986Y-61224998D01*
X104402697Y-61214505D01*
X104569119Y-61159358D01*
X104569124Y-61159356D01*
X104718345Y-61067315D01*
X104842315Y-60943345D01*
X104934356Y-60794124D01*
X104934358Y-60794119D01*
X104989505Y-60627697D01*
X104989506Y-60627690D01*
X104999999Y-60524986D01*
X105000000Y-60524973D01*
X105000000Y-60250000D01*
X104250000Y-60250000D01*
X104250000Y-61224999D01*
X103700019Y-61224999D01*
X103749999Y-61224998D01*
X103750000Y-61224998D01*
X103750000Y-59750000D01*
X104250000Y-59750000D01*
X104999999Y-59750000D01*
X104999999Y-59475028D01*
X104999998Y-59475013D01*
X104989505Y-59372302D01*
X104934358Y-59205880D01*
X104934356Y-59205875D01*
X104842315Y-59056654D01*
X104718345Y-58932684D01*
X104569124Y-58840643D01*
X104569119Y-58840641D01*
X104402697Y-58785494D01*
X104402690Y-58785493D01*
X104299986Y-58775000D01*
X104250000Y-58775000D01*
X104250000Y-59750000D01*
X103750000Y-59750000D01*
X103750000Y-58786640D01*
X103701386Y-58751150D01*
X103682263Y-58726234D01*
X103661706Y-58702510D01*
X103660776Y-58698238D01*
X103658846Y-58695723D01*
X103657982Y-58685394D01*
X103650500Y-58650999D01*
X103650500Y-56988732D01*
X103670185Y-56921693D01*
X103722989Y-56875938D01*
X103735495Y-56871026D01*
X103769334Y-56859814D01*
X103918656Y-56767712D01*
X103999549Y-56686819D01*
X104060872Y-56653334D01*
X104087230Y-56650500D01*
X104495065Y-56650500D01*
X104562104Y-56670185D01*
X104563909Y-56671366D01*
X104620821Y-56709394D01*
X104620823Y-56709395D01*
X104620827Y-56709397D01*
X104765523Y-56769331D01*
X104766503Y-56769737D01*
X104921153Y-56800499D01*
X104921156Y-56800500D01*
X104921158Y-56800500D01*
X105078844Y-56800500D01*
X105078845Y-56800499D01*
X105233497Y-56769737D01*
X105379179Y-56709394D01*
X105510289Y-56621789D01*
X105621789Y-56510289D01*
X105709394Y-56379179D01*
X105714940Y-56365791D01*
X105769735Y-56233501D01*
X105769737Y-56233497D01*
X105800500Y-56078842D01*
X105800500Y-55921158D01*
X105800500Y-55921155D01*
X105800499Y-55921153D01*
X105769738Y-55766510D01*
X105769737Y-55766503D01*
X105769735Y-55766498D01*
X105709397Y-55620827D01*
X105709390Y-55620814D01*
X105621789Y-55489711D01*
X105621786Y-55489707D01*
X105510292Y-55378213D01*
X105510288Y-55378210D01*
X105379185Y-55290609D01*
X105379172Y-55290602D01*
X105233501Y-55230264D01*
X105233489Y-55230261D01*
X105078845Y-55199500D01*
X105078842Y-55199500D01*
X104921158Y-55199500D01*
X104921155Y-55199500D01*
X104766510Y-55230261D01*
X104766498Y-55230264D01*
X104620827Y-55290602D01*
X104620820Y-55290606D01*
X104606067Y-55300464D01*
X104563955Y-55328602D01*
X104497279Y-55349480D01*
X104495065Y-55349500D01*
X104215638Y-55349500D01*
X104211657Y-55348331D01*
X104207609Y-55349240D01*
X104178411Y-55338568D01*
X104148599Y-55329815D01*
X104144770Y-55326273D01*
X104141985Y-55325256D01*
X104132372Y-55314807D01*
X104116864Y-55300464D01*
X104113240Y-55295689D01*
X104042712Y-55181344D01*
X103949049Y-55087681D01*
X103915564Y-55026358D01*
X103920548Y-54956666D01*
X103949049Y-54912319D01*
X103958950Y-54902418D01*
X104042712Y-54818656D01*
X104134814Y-54669334D01*
X104189999Y-54502797D01*
X104200500Y-54400009D01*
X104200499Y-53858307D01*
X104220184Y-53791269D01*
X104236813Y-53770631D01*
X104505277Y-53502169D01*
X104576466Y-53395626D01*
X104625501Y-53277243D01*
X104634444Y-53232288D01*
X104650500Y-53151569D01*
X104650500Y-52076139D01*
X104670185Y-52009100D01*
X104686819Y-51988458D01*
X104796555Y-51878721D01*
X104796558Y-51878718D01*
X104866194Y-51774500D01*
X104912171Y-51705691D01*
X104914615Y-51707324D01*
X104954613Y-51666375D01*
X105015316Y-51650500D01*
X111575501Y-51650500D01*
X111642540Y-51670185D01*
X111688295Y-51722989D01*
X111699501Y-51774500D01*
X111699501Y-52347876D01*
X111705908Y-52407483D01*
X111756202Y-52542328D01*
X111756206Y-52542335D01*
X111842452Y-52657544D01*
X111842455Y-52657547D01*
X111957664Y-52743793D01*
X111957671Y-52743797D01*
X112002618Y-52760561D01*
X112092517Y-52794091D01*
X112152127Y-52800500D01*
X112152153Y-52800499D01*
X112155453Y-52800678D01*
X112155365Y-52802308D01*
X112216238Y-52820067D01*
X112262084Y-52872791D01*
X112269804Y-52916251D01*
X112953554Y-53600000D01*
X112947339Y-53600000D01*
X112845606Y-53627259D01*
X112754394Y-53679920D01*
X112679920Y-53754394D01*
X112627259Y-53845606D01*
X112600000Y-53947339D01*
X112600000Y-53953553D01*
X111920524Y-53274077D01*
X111920523Y-53274077D01*
X111888143Y-53318644D01*
X111795244Y-53500968D01*
X111732009Y-53695582D01*
X111700000Y-53897682D01*
X111700000Y-54102317D01*
X111732009Y-54304417D01*
X111795244Y-54499031D01*
X111888141Y-54681350D01*
X111888147Y-54681359D01*
X111920523Y-54725921D01*
X111920524Y-54725922D01*
X112600000Y-54046446D01*
X112600000Y-54052661D01*
X112627259Y-54154394D01*
X112679920Y-54245606D01*
X112754394Y-54320080D01*
X112845606Y-54372741D01*
X112947339Y-54400000D01*
X112953553Y-54400000D01*
X112274076Y-55079474D01*
X112318650Y-55111859D01*
X112500968Y-55204755D01*
X112695582Y-55267990D01*
X112897683Y-55300000D01*
X113102317Y-55300000D01*
X113304417Y-55267990D01*
X113499031Y-55204755D01*
X113681349Y-55111859D01*
X113725921Y-55079474D01*
X113046447Y-54400000D01*
X113052661Y-54400000D01*
X113154394Y-54372741D01*
X113245606Y-54320080D01*
X113320080Y-54245606D01*
X113372741Y-54154394D01*
X113400000Y-54052661D01*
X113400000Y-54046447D01*
X114079474Y-54725921D01*
X114111859Y-54681349D01*
X114204755Y-54499031D01*
X114267990Y-54304417D01*
X114294430Y-54137486D01*
X119800001Y-54137486D01*
X119810494Y-54240197D01*
X119865641Y-54406619D01*
X119865643Y-54406624D01*
X119957684Y-54555845D01*
X120081654Y-54679815D01*
X120230875Y-54771856D01*
X120230880Y-54771858D01*
X120397302Y-54827005D01*
X120397309Y-54827006D01*
X120500019Y-54837499D01*
X120749999Y-54837499D01*
X120750000Y-54837498D01*
X120750000Y-54075000D01*
X119800001Y-54075000D01*
X119800001Y-54137486D01*
X114294430Y-54137486D01*
X114300000Y-54102317D01*
X114300000Y-53897682D01*
X114267990Y-53695582D01*
X114204755Y-53500968D01*
X114111859Y-53318650D01*
X114079474Y-53274077D01*
X114079474Y-53274076D01*
X113400000Y-53953551D01*
X113400000Y-53947339D01*
X113372741Y-53845606D01*
X113320080Y-53754394D01*
X113245606Y-53679920D01*
X113154394Y-53627259D01*
X113052661Y-53600000D01*
X113046446Y-53600000D01*
X113730931Y-52915515D01*
X113741364Y-52865852D01*
X113790415Y-52816094D01*
X113844637Y-52802048D01*
X113844576Y-52800900D01*
X113844571Y-52800854D01*
X113844573Y-52800853D01*
X113844564Y-52800676D01*
X113847857Y-52800499D01*
X113847872Y-52800499D01*
X113907483Y-52794091D01*
X114042331Y-52743796D01*
X114157546Y-52657546D01*
X114243796Y-52542331D01*
X114294091Y-52407483D01*
X114300500Y-52347873D01*
X114300499Y-50652128D01*
X114294091Y-50592517D01*
X114272398Y-50534356D01*
X114243797Y-50457671D01*
X114243793Y-50457664D01*
X114157547Y-50342455D01*
X114157544Y-50342452D01*
X114042335Y-50256206D01*
X114042328Y-50256202D01*
X113907482Y-50205908D01*
X113907483Y-50205908D01*
X113847883Y-50199501D01*
X113847881Y-50199500D01*
X113847873Y-50199500D01*
X113847865Y-50199500D01*
X113774500Y-50199500D01*
X113707461Y-50179815D01*
X113661706Y-50127011D01*
X113650500Y-50075500D01*
X113650500Y-46215638D01*
X113670185Y-46148599D01*
X113709401Y-46110100D01*
X113818656Y-46042712D01*
X113912319Y-45949049D01*
X113973642Y-45915564D01*
X114043334Y-45920548D01*
X114087681Y-45949049D01*
X114181344Y-46042712D01*
X114330666Y-46134814D01*
X114497203Y-46189999D01*
X114599991Y-46200500D01*
X115225008Y-46200499D01*
X115225016Y-46200498D01*
X115225019Y-46200498D01*
X115301238Y-46192712D01*
X115327797Y-46189999D01*
X115494334Y-46134814D01*
X115643656Y-46042712D01*
X115767712Y-45918656D01*
X115859814Y-45769334D01*
X115870197Y-45738000D01*
X115871028Y-45735494D01*
X115910801Y-45678050D01*
X115975317Y-45651228D01*
X115988733Y-45650500D01*
X118625501Y-45650500D01*
X118692540Y-45670185D01*
X118738295Y-45722989D01*
X118749501Y-45774500D01*
X118749501Y-46032876D01*
X118755908Y-46092483D01*
X118806202Y-46227328D01*
X118806203Y-46227330D01*
X118806204Y-46227331D01*
X118807028Y-46228432D01*
X118807509Y-46229721D01*
X118810454Y-46235114D01*
X118809678Y-46235537D01*
X118831448Y-46293895D01*
X118822325Y-46350198D01*
X118788910Y-46430868D01*
X118788907Y-46430880D01*
X118749500Y-46628992D01*
X118749500Y-46831007D01*
X118788907Y-47029119D01*
X118788909Y-47029127D01*
X118866213Y-47215755D01*
X118919904Y-47296109D01*
X118940782Y-47362787D01*
X118922297Y-47430167D01*
X118919904Y-47433891D01*
X118866213Y-47514244D01*
X118788909Y-47700872D01*
X118788907Y-47700880D01*
X118749500Y-47898992D01*
X118749500Y-48101007D01*
X118788907Y-48299119D01*
X118788909Y-48299127D01*
X118866212Y-48485752D01*
X118866217Y-48485762D01*
X118978441Y-48653718D01*
X119121281Y-48796558D01*
X119289237Y-48908782D01*
X119289241Y-48908784D01*
X119289244Y-48908786D01*
X119475873Y-48986091D01*
X119673992Y-49025499D01*
X119673996Y-49025500D01*
X119673997Y-49025500D01*
X120054192Y-49025500D01*
X120083632Y-49034144D01*
X120113619Y-49040668D01*
X120118634Y-49044422D01*
X120121231Y-49045185D01*
X120141873Y-49061819D01*
X120313181Y-49233127D01*
X120346666Y-49294450D01*
X120349500Y-49320808D01*
X120349500Y-50923767D01*
X120329815Y-50990806D01*
X120277011Y-51036561D01*
X120264506Y-51041472D01*
X120230671Y-51052684D01*
X120230663Y-51052687D01*
X120081342Y-51144789D01*
X119957289Y-51268842D01*
X119865187Y-51418163D01*
X119865185Y-51418168D01*
X119849605Y-51465185D01*
X119810001Y-51584703D01*
X119810001Y-51584704D01*
X119810000Y-51584704D01*
X119799500Y-51687483D01*
X119799500Y-52312501D01*
X119799501Y-52312519D01*
X119810000Y-52415296D01*
X119810001Y-52415299D01*
X119865185Y-52581831D01*
X119865186Y-52581834D01*
X119938609Y-52700873D01*
X119957289Y-52731157D01*
X120051304Y-52825172D01*
X120084789Y-52886495D01*
X120079805Y-52956187D01*
X120051305Y-53000534D01*
X119957682Y-53094157D01*
X119865643Y-53243375D01*
X119865641Y-53243380D01*
X119810494Y-53409802D01*
X119810493Y-53409809D01*
X119800000Y-53512513D01*
X119800000Y-53575000D01*
X122199999Y-53575000D01*
X122199999Y-53512528D01*
X122199998Y-53512513D01*
X122189505Y-53409802D01*
X122134358Y-53243380D01*
X122134356Y-53243375D01*
X122042315Y-53094154D01*
X121948695Y-53000534D01*
X121915210Y-52939211D01*
X121920194Y-52869519D01*
X121948691Y-52825176D01*
X122042712Y-52731156D01*
X122134814Y-52581834D01*
X122173365Y-52465494D01*
X122213136Y-52408051D01*
X122277652Y-52381228D01*
X122291070Y-52380500D01*
X123590191Y-52380500D01*
X123657230Y-52400185D01*
X123702985Y-52452989D01*
X123712929Y-52522147D01*
X123683904Y-52585703D01*
X123677872Y-52592181D01*
X122231373Y-54038681D01*
X122170050Y-54072166D01*
X122143692Y-54075000D01*
X121250000Y-54075000D01*
X121250000Y-54837499D01*
X121253596Y-54841095D01*
X121287081Y-54902418D01*
X121282097Y-54972110D01*
X121253596Y-55016457D01*
X115387190Y-60882862D01*
X115325867Y-60916347D01*
X115280111Y-60917654D01*
X115134611Y-60894609D01*
X115102352Y-60889500D01*
X114897648Y-60889500D01*
X114873329Y-60893351D01*
X114695465Y-60921522D01*
X114500776Y-60984781D01*
X114318386Y-61077715D01*
X114152786Y-61198028D01*
X114008028Y-61342786D01*
X113887715Y-61508386D01*
X113794781Y-61690776D01*
X113731522Y-61885465D01*
X113699500Y-62087648D01*
X113699500Y-62292351D01*
X113731523Y-62494534D01*
X113731522Y-62494534D01*
X113794781Y-62689223D01*
X113887715Y-62871613D01*
X114008028Y-63037213D01*
X114152786Y-63181971D01*
X114294496Y-63284927D01*
X114318390Y-63302287D01*
X114434607Y-63361503D01*
X114500776Y-63395218D01*
X114500778Y-63395218D01*
X114500781Y-63395220D01*
X114560639Y-63414669D01*
X114695465Y-63458477D01*
X114796557Y-63474488D01*
X114897648Y-63490500D01*
X114897649Y-63490500D01*
X115102351Y-63490500D01*
X115102352Y-63490500D01*
X115304534Y-63458477D01*
X115499219Y-63395220D01*
X115681610Y-63302287D01*
X115774590Y-63234732D01*
X115847213Y-63181971D01*
X115847215Y-63181968D01*
X115847219Y-63181966D01*
X115991966Y-63037219D01*
X115991968Y-63037215D01*
X115991971Y-63037213D01*
X116044732Y-62964590D01*
X116112287Y-62871610D01*
X116205220Y-62689219D01*
X116268477Y-62494534D01*
X116300500Y-62292352D01*
X116300500Y-62087648D01*
X116288820Y-62013903D01*
X116272345Y-61909886D01*
X116281300Y-61840593D01*
X116307134Y-61802810D01*
X122754271Y-55355675D01*
X154674500Y-55355675D01*
X154674500Y-55564324D01*
X154707137Y-55770389D01*
X154771612Y-55968820D01*
X154866330Y-56154714D01*
X154988965Y-56323505D01*
X155136495Y-56471035D01*
X155305286Y-56593670D01*
X155393116Y-56638421D01*
X155491179Y-56688387D01*
X155491181Y-56688387D01*
X155491184Y-56688389D01*
X155555828Y-56709393D01*
X155689610Y-56752862D01*
X155895676Y-56785500D01*
X155895681Y-56785500D01*
X156104324Y-56785500D01*
X156310389Y-56752862D01*
X156508816Y-56688389D01*
X156694714Y-56593670D01*
X156863505Y-56471035D01*
X157011035Y-56323505D01*
X157133670Y-56154714D01*
X157228389Y-55968816D01*
X157292862Y-55770389D01*
X157293478Y-55766498D01*
X157325500Y-55564324D01*
X157325500Y-55355675D01*
X157292862Y-55149610D01*
X157260805Y-55050951D01*
X157228389Y-54951184D01*
X157228387Y-54951181D01*
X157228387Y-54951179D01*
X157170464Y-54837499D01*
X157133670Y-54765286D01*
X157011035Y-54596495D01*
X156863505Y-54448965D01*
X156694714Y-54326330D01*
X156651707Y-54304417D01*
X156508820Y-54231612D01*
X156310389Y-54167137D01*
X156104324Y-54134500D01*
X156104319Y-54134500D01*
X155895681Y-54134500D01*
X155895676Y-54134500D01*
X155689610Y-54167137D01*
X155491179Y-54231612D01*
X155305285Y-54326330D01*
X155136493Y-54448966D01*
X154988966Y-54596493D01*
X154866330Y-54765285D01*
X154771612Y-54951179D01*
X154707137Y-55149610D01*
X154674500Y-55355675D01*
X122754271Y-55355675D01*
X124423127Y-53686819D01*
X124484450Y-53653334D01*
X124510808Y-53650500D01*
X125923861Y-53650500D01*
X125990900Y-53670185D01*
X126011542Y-53686819D01*
X126121281Y-53796558D01*
X126289237Y-53908782D01*
X126289241Y-53908784D01*
X126289244Y-53908786D01*
X126475873Y-53986091D01*
X126673992Y-54025499D01*
X126673996Y-54025500D01*
X126673997Y-54025500D01*
X127326004Y-54025500D01*
X127326005Y-54025499D01*
X127524127Y-53986091D01*
X127710756Y-53908786D01*
X127878718Y-53796558D01*
X128021558Y-53653718D01*
X128133786Y-53485756D01*
X128211091Y-53299127D01*
X128250500Y-53101003D01*
X128250500Y-52898997D01*
X128248013Y-52886495D01*
X128233466Y-52813357D01*
X128229623Y-52794038D01*
X142399500Y-52794038D01*
X142399500Y-53045962D01*
X142414424Y-53140185D01*
X142438910Y-53294785D01*
X142516760Y-53534383D01*
X142586984Y-53672203D01*
X142628862Y-53754394D01*
X142631132Y-53758848D01*
X142779201Y-53962649D01*
X142779205Y-53962654D01*
X142957345Y-54140794D01*
X142957350Y-54140798D01*
X143082346Y-54231612D01*
X143161155Y-54288870D01*
X143288103Y-54353553D01*
X143385616Y-54403239D01*
X143385618Y-54403239D01*
X143385621Y-54403241D01*
X143625215Y-54481090D01*
X143874038Y-54520500D01*
X143874039Y-54520500D01*
X144125961Y-54520500D01*
X144125962Y-54520500D01*
X144374785Y-54481090D01*
X144614379Y-54403241D01*
X144838845Y-54288870D01*
X145042656Y-54140793D01*
X145220793Y-53962656D01*
X145368870Y-53758845D01*
X145483241Y-53534379D01*
X145561090Y-53294785D01*
X145600500Y-53045962D01*
X145600500Y-52794038D01*
X145561090Y-52545215D01*
X145483241Y-52305621D01*
X145483239Y-52305618D01*
X145483239Y-52305616D01*
X145441747Y-52224184D01*
X145368870Y-52081155D01*
X145331064Y-52029119D01*
X145220798Y-51877350D01*
X145220794Y-51877345D01*
X145042654Y-51699205D01*
X145042649Y-51699201D01*
X144838848Y-51551132D01*
X144838847Y-51551131D01*
X144838845Y-51551130D01*
X144768747Y-51515413D01*
X144614383Y-51436760D01*
X144374785Y-51358910D01*
X144178359Y-51327799D01*
X144125962Y-51319500D01*
X143874038Y-51319500D01*
X143821641Y-51327799D01*
X143625214Y-51358910D01*
X143385616Y-51436760D01*
X143161151Y-51551132D01*
X142957350Y-51699201D01*
X142957345Y-51699205D01*
X142779205Y-51877345D01*
X142779201Y-51877350D01*
X142631132Y-52081151D01*
X142516760Y-52305616D01*
X142438910Y-52545214D01*
X142433110Y-52581834D01*
X142399500Y-52794038D01*
X128229623Y-52794038D01*
X128211092Y-52700880D01*
X128211091Y-52700873D01*
X128133786Y-52514244D01*
X128080094Y-52433889D01*
X128059217Y-52367214D01*
X128077701Y-52299834D01*
X128080078Y-52296134D01*
X128133786Y-52215756D01*
X128211091Y-52029127D01*
X128250500Y-51831003D01*
X128250500Y-51628997D01*
X128211091Y-51430873D01*
X128177673Y-51350198D01*
X128170205Y-51280730D01*
X128189964Y-51235340D01*
X128189547Y-51235112D01*
X128192095Y-51230444D01*
X128192972Y-51228431D01*
X128193796Y-51227331D01*
X128244091Y-51092483D01*
X128250500Y-51032873D01*
X128250499Y-49887128D01*
X128244091Y-49827517D01*
X128240786Y-49818657D01*
X128193797Y-49692671D01*
X128193793Y-49692664D01*
X128107547Y-49577455D01*
X128107544Y-49577452D01*
X127992335Y-49491206D01*
X127992328Y-49491202D01*
X127857482Y-49440908D01*
X127857483Y-49440908D01*
X127797883Y-49434501D01*
X127797881Y-49434500D01*
X127797873Y-49434500D01*
X127797865Y-49434500D01*
X127774500Y-49434500D01*
X127707461Y-49414815D01*
X127661706Y-49362011D01*
X127650500Y-49310500D01*
X127650500Y-47215638D01*
X127670185Y-47148599D01*
X127709401Y-47110100D01*
X127818656Y-47042712D01*
X127912319Y-46949049D01*
X127973642Y-46915564D01*
X128043334Y-46920548D01*
X128087681Y-46949049D01*
X128181344Y-47042712D01*
X128330666Y-47134814D01*
X128497203Y-47189999D01*
X128599991Y-47200500D01*
X129225008Y-47200499D01*
X129225016Y-47200498D01*
X129225019Y-47200498D01*
X129281302Y-47194748D01*
X129327797Y-47189999D01*
X129494334Y-47134814D01*
X129643656Y-47042712D01*
X129767712Y-46918656D01*
X129835099Y-46809402D01*
X129887047Y-46762679D01*
X129940638Y-46750500D01*
X134524761Y-46750500D01*
X134591800Y-46770185D01*
X134623137Y-46799014D01*
X134718751Y-46923622D01*
X134718757Y-46923629D01*
X134876370Y-47081242D01*
X134876377Y-47081248D01*
X134913977Y-47110099D01*
X135053226Y-47216948D01*
X135246274Y-47328405D01*
X135452219Y-47413710D01*
X135667537Y-47471404D01*
X135888543Y-47500500D01*
X135888550Y-47500500D01*
X136111450Y-47500500D01*
X136111457Y-47500500D01*
X136332463Y-47471404D01*
X136547781Y-47413710D01*
X136753726Y-47328405D01*
X136946774Y-47216948D01*
X137123624Y-47081247D01*
X137281247Y-46923624D01*
X137416948Y-46746774D01*
X137528405Y-46553726D01*
X137613710Y-46347781D01*
X137671404Y-46132463D01*
X137700500Y-45911457D01*
X137700500Y-45852533D01*
X151750000Y-45852533D01*
X151750000Y-46147466D01*
X151750001Y-46147483D01*
X151788496Y-46439884D01*
X151788499Y-46439897D01*
X151864835Y-46724790D01*
X151864838Y-46724800D01*
X151977704Y-46997281D01*
X151977709Y-46997292D01*
X152125174Y-47252707D01*
X152125180Y-47252715D01*
X152241777Y-47404667D01*
X153063708Y-46582735D01*
X153160967Y-46716602D01*
X153283398Y-46839033D01*
X153417262Y-46936290D01*
X152595331Y-47758221D01*
X152747284Y-47874819D01*
X152747292Y-47874825D01*
X153002707Y-48022290D01*
X153002718Y-48022295D01*
X153275199Y-48135161D01*
X153275209Y-48135164D01*
X153560102Y-48211500D01*
X153560115Y-48211503D01*
X153852516Y-48249998D01*
X153852534Y-48250000D01*
X154147466Y-48250000D01*
X154147483Y-48249998D01*
X154439884Y-48211503D01*
X154439897Y-48211500D01*
X154724790Y-48135164D01*
X154724800Y-48135161D01*
X154997281Y-48022295D01*
X154997292Y-48022290D01*
X155252707Y-47874825D01*
X155252725Y-47874813D01*
X155404667Y-47758222D01*
X155404667Y-47758220D01*
X154582737Y-46936290D01*
X154716602Y-46839033D01*
X154839033Y-46716602D01*
X154936290Y-46582737D01*
X155758220Y-47404667D01*
X155758222Y-47404667D01*
X155874813Y-47252725D01*
X155874825Y-47252707D01*
X156022290Y-46997292D01*
X156022295Y-46997281D01*
X156135161Y-46724800D01*
X156135164Y-46724790D01*
X156211500Y-46439897D01*
X156211503Y-46439884D01*
X156249998Y-46147483D01*
X156250000Y-46147466D01*
X156250000Y-45852533D01*
X156249998Y-45852516D01*
X156211503Y-45560115D01*
X156211500Y-45560102D01*
X156135164Y-45275209D01*
X156135161Y-45275199D01*
X156022295Y-45002718D01*
X156022290Y-45002707D01*
X155874825Y-44747292D01*
X155874819Y-44747284D01*
X155758221Y-44595331D01*
X154936290Y-45417262D01*
X154839033Y-45283398D01*
X154716602Y-45160967D01*
X154582736Y-45063709D01*
X155404667Y-44241777D01*
X155252715Y-44125180D01*
X155252707Y-44125174D01*
X154997292Y-43977709D01*
X154997281Y-43977704D01*
X154724800Y-43864838D01*
X154724790Y-43864835D01*
X154439897Y-43788499D01*
X154439884Y-43788496D01*
X154147483Y-43750001D01*
X154147466Y-43750000D01*
X153852534Y-43750000D01*
X153852516Y-43750001D01*
X153560115Y-43788496D01*
X153560102Y-43788499D01*
X153275209Y-43864835D01*
X153275199Y-43864838D01*
X153002718Y-43977704D01*
X153002707Y-43977709D01*
X152747292Y-44125174D01*
X152747276Y-44125185D01*
X152595331Y-44241775D01*
X152595331Y-44241777D01*
X153417263Y-45063709D01*
X153283398Y-45160967D01*
X153160967Y-45283398D01*
X153063709Y-45417263D01*
X152241777Y-44595331D01*
X152241775Y-44595331D01*
X152125185Y-44747276D01*
X152125174Y-44747292D01*
X151977709Y-45002707D01*
X151977704Y-45002718D01*
X151864838Y-45275199D01*
X151864835Y-45275209D01*
X151788499Y-45560102D01*
X151788496Y-45560115D01*
X151750001Y-45852516D01*
X151750000Y-45852533D01*
X137700500Y-45852533D01*
X137700500Y-45688543D01*
X137671404Y-45467537D01*
X137613710Y-45252219D01*
X137604782Y-45230666D01*
X137542931Y-45081344D01*
X137528405Y-45046274D01*
X137416948Y-44853226D01*
X137350409Y-44766510D01*
X137281248Y-44676377D01*
X137281242Y-44676370D01*
X137123629Y-44518757D01*
X137123622Y-44518751D01*
X136953361Y-44388106D01*
X136946781Y-44383057D01*
X136946778Y-44383055D01*
X136946774Y-44383052D01*
X136753726Y-44271595D01*
X136753722Y-44271593D01*
X136547790Y-44186293D01*
X136547783Y-44186291D01*
X136547781Y-44186290D01*
X136332463Y-44128596D01*
X136332457Y-44128595D01*
X136332452Y-44128594D01*
X136111466Y-44099501D01*
X136111463Y-44099500D01*
X136111457Y-44099500D01*
X135888543Y-44099500D01*
X135888537Y-44099500D01*
X135888533Y-44099501D01*
X135667547Y-44128594D01*
X135667540Y-44128595D01*
X135667537Y-44128596D01*
X135624279Y-44140187D01*
X135452219Y-44186290D01*
X135452209Y-44186293D01*
X135246277Y-44271593D01*
X135246273Y-44271595D01*
X135053226Y-44383052D01*
X135053217Y-44383058D01*
X134876377Y-44518751D01*
X134876370Y-44518757D01*
X134718757Y-44676370D01*
X134718751Y-44676377D01*
X134623137Y-44800986D01*
X134566710Y-44842189D01*
X134524761Y-44849500D01*
X129467007Y-44849500D01*
X129428003Y-44843206D01*
X129420718Y-44840792D01*
X129327797Y-44810001D01*
X129327795Y-44810000D01*
X129225016Y-44799500D01*
X129225009Y-44799500D01*
X128683308Y-44799500D01*
X128616269Y-44779815D01*
X128595627Y-44763181D01*
X127176174Y-43343727D01*
X127176173Y-43343726D01*
X127176169Y-43343723D01*
X127069627Y-43272535D01*
X126951244Y-43223499D01*
X126951238Y-43223497D01*
X126825571Y-43198500D01*
X126825569Y-43198500D01*
X114174431Y-43198500D01*
X114174429Y-43198500D01*
X114048761Y-43223497D01*
X114048755Y-43223499D01*
X113930374Y-43272534D01*
X113823826Y-43343726D01*
X113404371Y-43763181D01*
X113343048Y-43796666D01*
X113316690Y-43799500D01*
X112774998Y-43799500D01*
X112774980Y-43799501D01*
X112672203Y-43810000D01*
X112672200Y-43810001D01*
X112505668Y-43865185D01*
X112505663Y-43865187D01*
X112356342Y-43957289D01*
X112232289Y-44081342D01*
X112140187Y-44230663D01*
X112140183Y-44230672D01*
X112129516Y-44262864D01*
X112089743Y-44320308D01*
X112025226Y-44347130D01*
X111956451Y-44334814D01*
X111905252Y-44287270D01*
X111890557Y-44249811D01*
X111889999Y-44247211D01*
X111889999Y-44247203D01*
X111834814Y-44080666D01*
X111742712Y-43931344D01*
X111618656Y-43807288D01*
X111469334Y-43715186D01*
X111302797Y-43660001D01*
X111302795Y-43660000D01*
X111200010Y-43649500D01*
X110299998Y-43649500D01*
X110299980Y-43649501D01*
X110197203Y-43660000D01*
X110197200Y-43660001D01*
X110030668Y-43715185D01*
X110030663Y-43715187D01*
X109881342Y-43807289D01*
X109757289Y-43931342D01*
X109665187Y-44080663D01*
X109665185Y-44080668D01*
X109649303Y-44128597D01*
X109610001Y-44247203D01*
X109610001Y-44247204D01*
X109610000Y-44247204D01*
X109599500Y-44349983D01*
X109599500Y-45650001D01*
X109599501Y-45650018D01*
X109610000Y-45752796D01*
X109610001Y-45752799D01*
X109665185Y-45919331D01*
X109665187Y-45919336D01*
X109681870Y-45946384D01*
X109757288Y-46068656D01*
X109881344Y-46192712D01*
X110030666Y-46284814D01*
X110197203Y-46339999D01*
X110299991Y-46350500D01*
X111200008Y-46350499D01*
X111200016Y-46350498D01*
X111200019Y-46350498D01*
X111256302Y-46344748D01*
X111302797Y-46339999D01*
X111469334Y-46284814D01*
X111618656Y-46192712D01*
X111742712Y-46068656D01*
X111834814Y-45919334D01*
X111889999Y-45752797D01*
X111889999Y-45752791D01*
X111890559Y-45750181D01*
X111891348Y-45748724D01*
X111892128Y-45746371D01*
X111892547Y-45746510D01*
X111923842Y-45688748D01*
X111985055Y-45655062D01*
X112054763Y-45659818D01*
X112110834Y-45701505D01*
X112129515Y-45737133D01*
X112134707Y-45752799D01*
X112140186Y-45769333D01*
X112140187Y-45769336D01*
X112159409Y-45800499D01*
X112231339Y-45917118D01*
X112232289Y-45918657D01*
X112313181Y-45999549D01*
X112346666Y-46060872D01*
X112349500Y-46087230D01*
X112349500Y-50075500D01*
X112329815Y-50142539D01*
X112277011Y-50188294D01*
X112225502Y-50199500D01*
X112152130Y-50199500D01*
X112152123Y-50199501D01*
X112092516Y-50205908D01*
X111957671Y-50256202D01*
X111957668Y-50256204D01*
X111866080Y-50324767D01*
X111800615Y-50349184D01*
X111791769Y-50349500D01*
X105015316Y-50349500D01*
X104948277Y-50329815D01*
X104914298Y-50292887D01*
X104912171Y-50294309D01*
X104796561Y-50121286D01*
X104796555Y-50121278D01*
X104653718Y-49978441D01*
X104485762Y-49866217D01*
X104485752Y-49866212D01*
X104299127Y-49788909D01*
X104299119Y-49788907D01*
X104101007Y-49749500D01*
X104101003Y-49749500D01*
X103898997Y-49749500D01*
X103898992Y-49749500D01*
X103700880Y-49788907D01*
X103700872Y-49788909D01*
X103514244Y-49866213D01*
X103433891Y-49919904D01*
X103367213Y-49940782D01*
X103299833Y-49922297D01*
X103296109Y-49919904D01*
X103215755Y-49866213D01*
X103029127Y-49788909D01*
X103029119Y-49788907D01*
X102831007Y-49749500D01*
X102831003Y-49749500D01*
X102628997Y-49749500D01*
X102628992Y-49749500D01*
X102430880Y-49788907D01*
X102430868Y-49788910D01*
X102350198Y-49822325D01*
X102280729Y-49829794D01*
X102235342Y-49810036D01*
X102235114Y-49810454D01*
X102230447Y-49807905D01*
X102228432Y-49807028D01*
X102227331Y-49806204D01*
X102227330Y-49806203D01*
X102227328Y-49806202D01*
X102092482Y-49755908D01*
X102092483Y-49755908D01*
X102032883Y-49749501D01*
X102032881Y-49749500D01*
X102032873Y-49749500D01*
X102032864Y-49749500D01*
X100887129Y-49749500D01*
X100887123Y-49749501D01*
X100827516Y-49755908D01*
X100692671Y-49806202D01*
X100692664Y-49806206D01*
X100577455Y-49892452D01*
X100577452Y-49892455D01*
X100491206Y-50007664D01*
X100491202Y-50007671D01*
X100440908Y-50142517D01*
X100434501Y-50202116D01*
X100434500Y-50202135D01*
X100434500Y-50225500D01*
X100414815Y-50292539D01*
X100362011Y-50338294D01*
X100310500Y-50349500D01*
X99215638Y-50349500D01*
X99148599Y-50329815D01*
X99110099Y-50290597D01*
X99042712Y-50181344D01*
X98949049Y-50087681D01*
X98915564Y-50026358D01*
X98920548Y-49956666D01*
X98949049Y-49912319D01*
X98995156Y-49866212D01*
X99042712Y-49818656D01*
X99134814Y-49669334D01*
X99189999Y-49502797D01*
X99200500Y-49400009D01*
X99200499Y-48774992D01*
X99198287Y-48753342D01*
X99189999Y-48672203D01*
X99189998Y-48672200D01*
X99168619Y-48607684D01*
X99134814Y-48505666D01*
X99042712Y-48356344D01*
X98918656Y-48232288D01*
X98769334Y-48140186D01*
X98754170Y-48135161D01*
X98735494Y-48128972D01*
X98715462Y-48115102D01*
X98693297Y-48104980D01*
X98687248Y-48095567D01*
X98678050Y-48089199D01*
X98668696Y-48066700D01*
X98655523Y-48046202D01*
X98653063Y-48029098D01*
X98651228Y-48024683D01*
X98650500Y-48011267D01*
X98650500Y-47988732D01*
X98670185Y-47921693D01*
X98722989Y-47875938D01*
X98735495Y-47871026D01*
X98769334Y-47859814D01*
X98918656Y-47767712D01*
X99042712Y-47643656D01*
X99134814Y-47494334D01*
X99189999Y-47327797D01*
X99200500Y-47225009D01*
X99200499Y-46599992D01*
X99195772Y-46553722D01*
X99189999Y-46497203D01*
X99189998Y-46497200D01*
X99134814Y-46330666D01*
X99042712Y-46181344D01*
X98949049Y-46087681D01*
X98915564Y-46026358D01*
X98920548Y-45956666D01*
X98949049Y-45912319D01*
X98949918Y-45911450D01*
X99042712Y-45818656D01*
X99110099Y-45709402D01*
X99162047Y-45662679D01*
X99215638Y-45650500D01*
X99495065Y-45650500D01*
X99562104Y-45670185D01*
X99563909Y-45671366D01*
X99620821Y-45709394D01*
X99620823Y-45709395D01*
X99620827Y-45709397D01*
X99765530Y-45769334D01*
X99766503Y-45769737D01*
X99903075Y-45796903D01*
X99921153Y-45800499D01*
X99921156Y-45800500D01*
X99921158Y-45800500D01*
X100078844Y-45800500D01*
X100078845Y-45800499D01*
X100233497Y-45769737D01*
X100346358Y-45722989D01*
X100379172Y-45709397D01*
X100379172Y-45709396D01*
X100379179Y-45709394D01*
X100468089Y-45649986D01*
X106100001Y-45649986D01*
X106110494Y-45752697D01*
X106165641Y-45919119D01*
X106165643Y-45919124D01*
X106257684Y-46068345D01*
X106381654Y-46192315D01*
X106530875Y-46284356D01*
X106530880Y-46284358D01*
X106697302Y-46339505D01*
X106697309Y-46339506D01*
X106800019Y-46349999D01*
X106999999Y-46349999D01*
X107500000Y-46349999D01*
X107699972Y-46349999D01*
X107699986Y-46349998D01*
X107802697Y-46339505D01*
X107969119Y-46284358D01*
X107969124Y-46284356D01*
X108118345Y-46192315D01*
X108242315Y-46068345D01*
X108334356Y-45919124D01*
X108334358Y-45919119D01*
X108389505Y-45752697D01*
X108389506Y-45752690D01*
X108399999Y-45649986D01*
X108400000Y-45649973D01*
X108400000Y-45250000D01*
X107500000Y-45250000D01*
X107500000Y-46349999D01*
X106999999Y-46349999D01*
X107000000Y-46349998D01*
X107000000Y-45250000D01*
X106100001Y-45250000D01*
X106100001Y-45649986D01*
X100468089Y-45649986D01*
X100510289Y-45621789D01*
X100621789Y-45510289D01*
X100709394Y-45379179D01*
X100769737Y-45233497D01*
X100784164Y-45160967D01*
X100800500Y-45078844D01*
X100800500Y-44921155D01*
X100800499Y-44921153D01*
X100793730Y-44887123D01*
X100769737Y-44766503D01*
X100761773Y-44747276D01*
X100709397Y-44620827D01*
X100709390Y-44620814D01*
X100621789Y-44489711D01*
X100621786Y-44489707D01*
X100510292Y-44378213D01*
X100510288Y-44378210D01*
X100468089Y-44350013D01*
X106100000Y-44350013D01*
X106100000Y-44750000D01*
X107000000Y-44750000D01*
X107500000Y-44750000D01*
X108399999Y-44750000D01*
X108399999Y-44350028D01*
X108399998Y-44350013D01*
X108389505Y-44247302D01*
X108334358Y-44080880D01*
X108334356Y-44080875D01*
X108242315Y-43931654D01*
X108118345Y-43807684D01*
X107969124Y-43715643D01*
X107969119Y-43715641D01*
X107802697Y-43660494D01*
X107802690Y-43660493D01*
X107699986Y-43650000D01*
X107500000Y-43650000D01*
X107500000Y-44750000D01*
X107000000Y-44750000D01*
X107000000Y-43650000D01*
X106800029Y-43650000D01*
X106800012Y-43650001D01*
X106697302Y-43660494D01*
X106530880Y-43715641D01*
X106530875Y-43715643D01*
X106381654Y-43807684D01*
X106257684Y-43931654D01*
X106165643Y-44080875D01*
X106165641Y-44080880D01*
X106110494Y-44247302D01*
X106110493Y-44247309D01*
X106100000Y-44350013D01*
X100468089Y-44350013D01*
X100379185Y-44290609D01*
X100379172Y-44290602D01*
X100233501Y-44230264D01*
X100233489Y-44230261D01*
X100078845Y-44199500D01*
X100078842Y-44199500D01*
X99921158Y-44199500D01*
X99921155Y-44199500D01*
X99766510Y-44230261D01*
X99766498Y-44230264D01*
X99620827Y-44290602D01*
X99620820Y-44290606D01*
X99591928Y-44309911D01*
X99563955Y-44328602D01*
X99497279Y-44349480D01*
X99495065Y-44349500D01*
X99087230Y-44349500D01*
X99020191Y-44329815D01*
X98999549Y-44313181D01*
X98918657Y-44232289D01*
X98918656Y-44232288D01*
X98769334Y-44140186D01*
X98602797Y-44085001D01*
X98602795Y-44085000D01*
X98500010Y-44074500D01*
X97499998Y-44074500D01*
X97499980Y-44074501D01*
X97397203Y-44085000D01*
X97397200Y-44085001D01*
X97230668Y-44140185D01*
X97230663Y-44140187D01*
X97081342Y-44232289D01*
X96957288Y-44356343D01*
X96957285Y-44356347D01*
X96943870Y-44378097D01*
X96891922Y-44424822D01*
X96838332Y-44437000D01*
X95161668Y-44437000D01*
X95094629Y-44417315D01*
X95056130Y-44378097D01*
X95042714Y-44356347D01*
X95042711Y-44356343D01*
X94918657Y-44232289D01*
X94918656Y-44232288D01*
X94769334Y-44140186D01*
X94602797Y-44085001D01*
X94602795Y-44085000D01*
X94500010Y-44074500D01*
X93499998Y-44074500D01*
X93499980Y-44074501D01*
X93397203Y-44085000D01*
X93397200Y-44085001D01*
X93230668Y-44140185D01*
X93230663Y-44140187D01*
X93081342Y-44232289D01*
X92957289Y-44356342D01*
X92865187Y-44505663D01*
X92865186Y-44505666D01*
X92810001Y-44672203D01*
X92810001Y-44672204D01*
X92810000Y-44672204D01*
X92799500Y-44774983D01*
X92799500Y-45400001D01*
X92799501Y-45400019D01*
X92810000Y-45502796D01*
X92810001Y-45502799D01*
X92865185Y-45669331D01*
X92865187Y-45669336D01*
X92885029Y-45701505D01*
X92946089Y-45800500D01*
X92957289Y-45818657D01*
X93051304Y-45912672D01*
X93084789Y-45973995D01*
X93079805Y-46043687D01*
X93051305Y-46088034D01*
X92957682Y-46181657D01*
X92865643Y-46330875D01*
X92865641Y-46330880D01*
X92810494Y-46497302D01*
X92810493Y-46497309D01*
X92800000Y-46600013D01*
X92800000Y-46662500D01*
X95199999Y-46662500D01*
X95199999Y-46600028D01*
X95199998Y-46600013D01*
X95189505Y-46497302D01*
X95134358Y-46330880D01*
X95134356Y-46330875D01*
X95042315Y-46181654D01*
X94948695Y-46088034D01*
X94945843Y-46082811D01*
X94940907Y-46079484D01*
X94929288Y-46052493D01*
X94915210Y-46026711D01*
X94915634Y-46020775D01*
X94913281Y-46015308D01*
X94918098Y-45986326D01*
X94920194Y-45957019D01*
X94924012Y-45950740D01*
X94924737Y-45946384D01*
X94938103Y-45927575D01*
X94944464Y-45917118D01*
X94946516Y-45914851D01*
X95042712Y-45818656D01*
X95062107Y-45787210D01*
X95069756Y-45778765D01*
X95090229Y-45766232D01*
X95108078Y-45750178D01*
X95121400Y-45747150D01*
X95129347Y-45742286D01*
X95141623Y-45742554D01*
X95161668Y-45738000D01*
X96838332Y-45738000D01*
X96905371Y-45757685D01*
X96943870Y-45796903D01*
X96957285Y-45818652D01*
X96957288Y-45818656D01*
X97050951Y-45912319D01*
X97084436Y-45973642D01*
X97079452Y-46043334D01*
X97050951Y-46087681D01*
X96957289Y-46181342D01*
X96865187Y-46330663D01*
X96865185Y-46330668D01*
X96837349Y-46414670D01*
X96810001Y-46497203D01*
X96810001Y-46497204D01*
X96810000Y-46497204D01*
X96799500Y-46599983D01*
X96799500Y-47225001D01*
X96799501Y-47225019D01*
X96810000Y-47327796D01*
X96810001Y-47327799D01*
X96865185Y-47494331D01*
X96865187Y-47494336D01*
X96877468Y-47514246D01*
X96957288Y-47643656D01*
X97081344Y-47767712D01*
X97230666Y-47859814D01*
X97264500Y-47871025D01*
X97284534Y-47884894D01*
X97306703Y-47895019D01*
X97312750Y-47904429D01*
X97321947Y-47910796D01*
X97331303Y-47933298D01*
X97344477Y-47953797D01*
X97346935Y-47970893D01*
X97348772Y-47975311D01*
X97349500Y-47988732D01*
X97349500Y-48011267D01*
X97329815Y-48078306D01*
X97277011Y-48124061D01*
X97264506Y-48128972D01*
X97230671Y-48140184D01*
X97230663Y-48140187D01*
X97081342Y-48232289D01*
X96957289Y-48356342D01*
X96865187Y-48505663D01*
X96865185Y-48505668D01*
X96810001Y-48672201D01*
X96810000Y-48672208D01*
X96806194Y-48709459D01*
X96779796Y-48774150D01*
X96770517Y-48784535D01*
X95611681Y-49943371D01*
X95550358Y-49976856D01*
X95480666Y-49971872D01*
X95424733Y-49930000D01*
X95400316Y-49864536D01*
X95400000Y-49855690D01*
X95400000Y-49775000D01*
X94250000Y-49775000D01*
X94250000Y-50599999D01*
X94655691Y-50599999D01*
X94722730Y-50619684D01*
X94768485Y-50672488D01*
X94778429Y-50741646D01*
X94749404Y-50805202D01*
X94743372Y-50811680D01*
X94191871Y-51363181D01*
X94130548Y-51396666D01*
X94104190Y-51399500D01*
X93299998Y-51399500D01*
X93299980Y-51399501D01*
X93197203Y-51410000D01*
X93197200Y-51410001D01*
X93030668Y-51465185D01*
X93030663Y-51465187D01*
X92881342Y-51557289D01*
X92757289Y-51681342D01*
X92665187Y-51830663D01*
X92665185Y-51830668D01*
X92655528Y-51859812D01*
X92610001Y-51997203D01*
X92610001Y-51997204D01*
X92610000Y-51997204D01*
X92599500Y-52099983D01*
X92599500Y-52850001D01*
X92599501Y-52850019D01*
X92610000Y-52952796D01*
X92610001Y-52952799D01*
X92665185Y-53119331D01*
X92665187Y-53119336D01*
X92685070Y-53151571D01*
X92757288Y-53268656D01*
X92881344Y-53392712D01*
X93030666Y-53484814D01*
X93197203Y-53539999D01*
X93299991Y-53550500D01*
X94700008Y-53550499D01*
X94802797Y-53539999D01*
X94969334Y-53484814D01*
X95118656Y-53392712D01*
X95242712Y-53268656D01*
X95334814Y-53119334D01*
X95389999Y-52952797D01*
X95400500Y-52850009D01*
X95400499Y-52099992D01*
X95396704Y-52062845D01*
X95409473Y-51994154D01*
X95432378Y-51962566D01*
X96587821Y-50807123D01*
X96649142Y-50773640D01*
X96718834Y-50778624D01*
X96774767Y-50820496D01*
X96799184Y-50885960D01*
X96799500Y-50894806D01*
X96799500Y-51225000D01*
X96799501Y-51225019D01*
X96810000Y-51327796D01*
X96810001Y-51327799D01*
X96844157Y-51430873D01*
X96865186Y-51494334D01*
X96957288Y-51643656D01*
X97081344Y-51767712D01*
X97230666Y-51859814D01*
X97397203Y-51914999D01*
X97499991Y-51925500D01*
X98500008Y-51925499D01*
X98500016Y-51925498D01*
X98500019Y-51925498D01*
X98556302Y-51919748D01*
X98602797Y-51914999D01*
X98769334Y-51859814D01*
X98918656Y-51767712D01*
X98999549Y-51686819D01*
X99060872Y-51653334D01*
X99087230Y-51650500D01*
X100310501Y-51650500D01*
X100377540Y-51670185D01*
X100423295Y-51722989D01*
X100434501Y-51774500D01*
X100434501Y-51797876D01*
X100440908Y-51857483D01*
X100491202Y-51992328D01*
X100491206Y-51992335D01*
X100577452Y-52107544D01*
X100577455Y-52107547D01*
X100692664Y-52193793D01*
X100692671Y-52193797D01*
X100827517Y-52244091D01*
X100827516Y-52244091D01*
X100834444Y-52244835D01*
X100887127Y-52250500D01*
X102032872Y-52250499D01*
X102092483Y-52244091D01*
X102227331Y-52193796D01*
X102228430Y-52192972D01*
X102229717Y-52192492D01*
X102235112Y-52189547D01*
X102235535Y-52190322D01*
X102293887Y-52168552D01*
X102350198Y-52177673D01*
X102430873Y-52211091D01*
X102596777Y-52244091D01*
X102628992Y-52250499D01*
X102628996Y-52250500D01*
X102628997Y-52250500D01*
X102831004Y-52250500D01*
X102831005Y-52250499D01*
X103029127Y-52211091D01*
X103178049Y-52149404D01*
X103247516Y-52141936D01*
X103309995Y-52173211D01*
X103345648Y-52233299D01*
X103349500Y-52263966D01*
X103349500Y-52766691D01*
X103329815Y-52833730D01*
X103313181Y-52854372D01*
X103129372Y-53038181D01*
X103068049Y-53071666D01*
X103041691Y-53074500D01*
X102499998Y-53074500D01*
X102499980Y-53074501D01*
X102397203Y-53085000D01*
X102397200Y-53085001D01*
X102230668Y-53140185D01*
X102230663Y-53140187D01*
X102081342Y-53232289D01*
X101957289Y-53356342D01*
X101865187Y-53505663D01*
X101865186Y-53505666D01*
X101810001Y-53672203D01*
X101810001Y-53672204D01*
X101810000Y-53672204D01*
X101799500Y-53774983D01*
X101799500Y-54316691D01*
X101779815Y-54383730D01*
X101763181Y-54404372D01*
X100854373Y-55313181D01*
X100793050Y-55346666D01*
X100766692Y-55349500D01*
X95901233Y-55349500D01*
X95834194Y-55329815D01*
X95788439Y-55277011D01*
X95783528Y-55264506D01*
X95778995Y-55250829D01*
X95772314Y-55230666D01*
X95680212Y-55081344D01*
X95556156Y-54957288D01*
X95406834Y-54865186D01*
X95240297Y-54810001D01*
X95240295Y-54810000D01*
X95137510Y-54799500D01*
X94512498Y-54799500D01*
X94512480Y-54799501D01*
X94409703Y-54810000D01*
X94409700Y-54810001D01*
X94243168Y-54865185D01*
X94243163Y-54865187D01*
X94093842Y-54957289D01*
X94000181Y-55050951D01*
X93938858Y-55084436D01*
X93869166Y-55079452D01*
X93824819Y-55050951D01*
X93731157Y-54957289D01*
X93731156Y-54957288D01*
X93581834Y-54865186D01*
X93415297Y-54810001D01*
X93415295Y-54810000D01*
X93312510Y-54799500D01*
X92687498Y-54799500D01*
X92687480Y-54799501D01*
X92584703Y-54810000D01*
X92584700Y-54810001D01*
X92418168Y-54865185D01*
X92418163Y-54865187D01*
X92268842Y-54957289D01*
X92144789Y-55081342D01*
X92052687Y-55230663D01*
X92052685Y-55230668D01*
X92040318Y-55267990D01*
X91997501Y-55397203D01*
X91997501Y-55397204D01*
X91997500Y-55397204D01*
X91987000Y-55499983D01*
X91987000Y-56500001D01*
X91987001Y-56500019D01*
X91997500Y-56602796D01*
X91997501Y-56602799D01*
X92052685Y-56769331D01*
X92052687Y-56769336D01*
X92052935Y-56769738D01*
X92144788Y-56918656D01*
X92268844Y-57042712D01*
X92290594Y-57056127D01*
X92337320Y-57108073D01*
X92349500Y-57161667D01*
X92349500Y-58912770D01*
X92329815Y-58979809D01*
X92313181Y-59000451D01*
X92232289Y-59081342D01*
X92140187Y-59230663D01*
X92140185Y-59230668D01*
X92114990Y-59306703D01*
X92085001Y-59397203D01*
X92085001Y-59397204D01*
X92085000Y-59397204D01*
X92074500Y-59499983D01*
X92074500Y-60500001D01*
X92074501Y-60500019D01*
X92085000Y-60602796D01*
X92085001Y-60602799D01*
X92140186Y-60769333D01*
X92140187Y-60769336D01*
X92153773Y-60791363D01*
X92172212Y-60858755D01*
X92151288Y-60925418D01*
X92135914Y-60944138D01*
X91439637Y-61640414D01*
X91378314Y-61673899D01*
X91308622Y-61668915D01*
X91252689Y-61627043D01*
X91234025Y-61591051D01*
X91204755Y-61500970D01*
X91111859Y-61318650D01*
X91079474Y-61274077D01*
X91079474Y-61274076D01*
X90400000Y-61953551D01*
X90400000Y-61947339D01*
X90372741Y-61845606D01*
X90320080Y-61754394D01*
X90245606Y-61679920D01*
X90154394Y-61627259D01*
X90052661Y-61600000D01*
X90046446Y-61600000D01*
X90725922Y-60920524D01*
X90725921Y-60920523D01*
X90681359Y-60888147D01*
X90681350Y-60888141D01*
X90499031Y-60795244D01*
X90304417Y-60732009D01*
X90102317Y-60700000D01*
X89897683Y-60700000D01*
X89695582Y-60732009D01*
X89500968Y-60795244D01*
X89318644Y-60888143D01*
X89274077Y-60920523D01*
X89274077Y-60920524D01*
X89953554Y-61600000D01*
X89947339Y-61600000D01*
X89845606Y-61627259D01*
X89754394Y-61679920D01*
X89679920Y-61754394D01*
X89627259Y-61845606D01*
X89600000Y-61947339D01*
X89600000Y-61953553D01*
X88920524Y-61274077D01*
X88920523Y-61274077D01*
X88888143Y-61318644D01*
X88795244Y-61500968D01*
X88732009Y-61695582D01*
X88700000Y-61897682D01*
X88700000Y-62102317D01*
X88732009Y-62304417D01*
X88795244Y-62499031D01*
X88887558Y-62680206D01*
X88900454Y-62748875D01*
X88874178Y-62813616D01*
X88851388Y-62835765D01*
X88842457Y-62842450D01*
X88842451Y-62842457D01*
X88756206Y-62957664D01*
X88756202Y-62957671D01*
X88705908Y-63092517D01*
X88699501Y-63152116D01*
X88699500Y-63152135D01*
X88699500Y-64847870D01*
X88699501Y-64847876D01*
X88705908Y-64907483D01*
X88756202Y-65042328D01*
X88756206Y-65042335D01*
X88842452Y-65157544D01*
X88842455Y-65157547D01*
X88957664Y-65243793D01*
X88957671Y-65243797D01*
X89002618Y-65260561D01*
X89092517Y-65294091D01*
X89152127Y-65300500D01*
X89225500Y-65300499D01*
X89292538Y-65320183D01*
X89338294Y-65372986D01*
X89349500Y-65424499D01*
X89349500Y-66838331D01*
X89329815Y-66905370D01*
X89308723Y-66930254D01*
X89300279Y-66937898D01*
X89268844Y-66957288D01*
X89173005Y-67053126D01*
X89170723Y-67055193D01*
X89141925Y-67069110D01*
X89113858Y-67084436D01*
X89110682Y-67084208D01*
X89107814Y-67085595D01*
X89076062Y-67081733D01*
X89044166Y-67079452D01*
X89041098Y-67077480D01*
X89038456Y-67077159D01*
X89031070Y-67071035D01*
X88999819Y-67050951D01*
X88906157Y-66957289D01*
X88906156Y-66957288D01*
X88756834Y-66865186D01*
X88590297Y-66810001D01*
X88590295Y-66810000D01*
X88487510Y-66799500D01*
X87862498Y-66799500D01*
X87862480Y-66799501D01*
X87759703Y-66810000D01*
X87759700Y-66810001D01*
X87593168Y-66865185D01*
X87593163Y-66865187D01*
X87443842Y-66957289D01*
X87319789Y-67081342D01*
X87227687Y-67230663D01*
X87227685Y-67230668D01*
X87211117Y-67280668D01*
X87172501Y-67397203D01*
X87172501Y-67397204D01*
X87172500Y-67397204D01*
X87162000Y-67499983D01*
X87162000Y-68500001D01*
X87162001Y-68500019D01*
X87172500Y-68602796D01*
X87172501Y-68602799D01*
X87227685Y-68769331D01*
X87227687Y-68769336D01*
X87239505Y-68788496D01*
X87319787Y-68918655D01*
X87319789Y-68918657D01*
X87413181Y-69012049D01*
X87446666Y-69073372D01*
X87449500Y-69099730D01*
X87449500Y-70255765D01*
X87429815Y-70322804D01*
X87377011Y-70368559D01*
X87307853Y-70378503D01*
X87290538Y-70374656D01*
X87164071Y-70349500D01*
X87164069Y-70349500D01*
X83330868Y-70349500D01*
X83263829Y-70329815D01*
X83230550Y-70298386D01*
X83213704Y-70275199D01*
X83177300Y-70225093D01*
X83044907Y-70092700D01*
X83044905Y-70092698D01*
X83044900Y-70092694D01*
X82893437Y-69982651D01*
X82893436Y-69982650D01*
X82893434Y-69982649D01*
X82836895Y-69953841D01*
X82726609Y-69897646D01*
X82726606Y-69897645D01*
X82548543Y-69839790D01*
X82430174Y-69821042D01*
X82363616Y-69810500D01*
X82176384Y-69810500D01*
X82132814Y-69817401D01*
X81991456Y-69839790D01*
X81813393Y-69897645D01*
X81813390Y-69897646D01*
X81646562Y-69982651D01*
X81495099Y-70092694D01*
X81495094Y-70092698D01*
X81362698Y-70225094D01*
X81362694Y-70225099D01*
X81252651Y-70376562D01*
X81167647Y-70543390D01*
X81160931Y-70564060D01*
X81121493Y-70621735D01*
X81057134Y-70648933D01*
X80988288Y-70637018D01*
X80936812Y-70589774D01*
X80919000Y-70525741D01*
X80919000Y-70263172D01*
X80918999Y-70263155D01*
X80912598Y-70203627D01*
X80912596Y-70203620D01*
X80862354Y-70068913D01*
X80862350Y-70068906D01*
X80776190Y-69953812D01*
X80776187Y-69953809D01*
X80661093Y-69867649D01*
X80661086Y-69867645D01*
X80526379Y-69817403D01*
X80526372Y-69817401D01*
X80466844Y-69811000D01*
X79980000Y-69811000D01*
X79980000Y-70642042D01*
X79897904Y-70594644D01*
X79787269Y-70565000D01*
X79672731Y-70565000D01*
X79562096Y-70594644D01*
X79480000Y-70642042D01*
X79480000Y-69811000D01*
X78993155Y-69811000D01*
X78933627Y-69817401D01*
X78933620Y-69817403D01*
X78798913Y-69867645D01*
X78798906Y-69867649D01*
X78683812Y-69953809D01*
X78683809Y-69953812D01*
X78597649Y-70068906D01*
X78597645Y-70068913D01*
X78547403Y-70203620D01*
X78547401Y-70203627D01*
X78541000Y-70263155D01*
X74500500Y-70263155D01*
X74500500Y-59852533D01*
X78750000Y-59852533D01*
X78750000Y-60147466D01*
X78750001Y-60147483D01*
X78788496Y-60439884D01*
X78788499Y-60439897D01*
X78864835Y-60724790D01*
X78864838Y-60724800D01*
X78977704Y-60997281D01*
X78977709Y-60997292D01*
X79125174Y-61252707D01*
X79125180Y-61252715D01*
X79241777Y-61404667D01*
X80063708Y-60582735D01*
X80160967Y-60716602D01*
X80283398Y-60839033D01*
X80417262Y-60936290D01*
X79595331Y-61758221D01*
X79747284Y-61874819D01*
X79747292Y-61874825D01*
X80002707Y-62022290D01*
X80002718Y-62022295D01*
X80275199Y-62135161D01*
X80275209Y-62135164D01*
X80560102Y-62211500D01*
X80560115Y-62211503D01*
X80852516Y-62249998D01*
X80852534Y-62250000D01*
X81147466Y-62250000D01*
X81147483Y-62249998D01*
X81439884Y-62211503D01*
X81439897Y-62211500D01*
X81724790Y-62135164D01*
X81724800Y-62135161D01*
X81997281Y-62022295D01*
X81997292Y-62022290D01*
X82252707Y-61874825D01*
X82252725Y-61874813D01*
X82404667Y-61758222D01*
X82404667Y-61758220D01*
X81582737Y-60936290D01*
X81716602Y-60839033D01*
X81839033Y-60716602D01*
X81936290Y-60582737D01*
X82758220Y-61404667D01*
X82758222Y-61404667D01*
X82874813Y-61252725D01*
X82874825Y-61252707D01*
X83022290Y-60997292D01*
X83022295Y-60997281D01*
X83054170Y-60920330D01*
X83135161Y-60724800D01*
X83135164Y-60724790D01*
X83211500Y-60439897D01*
X83211503Y-60439884D01*
X83249998Y-60147483D01*
X83250000Y-60147466D01*
X83250000Y-59852533D01*
X83249998Y-59852516D01*
X83211503Y-59560115D01*
X83211500Y-59560102D01*
X83135164Y-59275209D01*
X83135161Y-59275199D01*
X83022295Y-59002718D01*
X83022290Y-59002707D01*
X82874825Y-58747292D01*
X82874819Y-58747284D01*
X82758221Y-58595331D01*
X81936290Y-59417262D01*
X81839033Y-59283398D01*
X81716602Y-59160967D01*
X81582736Y-59063709D01*
X82404667Y-58241777D01*
X82252715Y-58125180D01*
X82252707Y-58125174D01*
X81997292Y-57977709D01*
X81997281Y-57977704D01*
X81724800Y-57864838D01*
X81724790Y-57864835D01*
X81439897Y-57788499D01*
X81439884Y-57788496D01*
X81147483Y-57750001D01*
X81147466Y-57750000D01*
X80852534Y-57750000D01*
X80852516Y-57750001D01*
X80560115Y-57788496D01*
X80560102Y-57788499D01*
X80275209Y-57864835D01*
X80275199Y-57864838D01*
X80002718Y-57977704D01*
X80002707Y-57977709D01*
X79747292Y-58125174D01*
X79747276Y-58125185D01*
X79595331Y-58241775D01*
X79595331Y-58241777D01*
X80417263Y-59063709D01*
X80283398Y-59160967D01*
X80160967Y-59283398D01*
X80063709Y-59417263D01*
X79241777Y-58595331D01*
X79241775Y-58595331D01*
X79125185Y-58747276D01*
X79125174Y-58747292D01*
X78977709Y-59002707D01*
X78977704Y-59002718D01*
X78864838Y-59275199D01*
X78864835Y-59275209D01*
X78788499Y-59560102D01*
X78788496Y-59560115D01*
X78750001Y-59852516D01*
X78750000Y-59852533D01*
X74500500Y-59852533D01*
X74500500Y-53435720D01*
X77675000Y-53435720D01*
X77675000Y-53644279D01*
X77707626Y-53850272D01*
X77772075Y-54048627D01*
X77866759Y-54234451D01*
X77902627Y-54283818D01*
X77902627Y-54283819D01*
X78476212Y-53710234D01*
X78487482Y-53752292D01*
X78559890Y-53877708D01*
X78662292Y-53980110D01*
X78787708Y-54052518D01*
X78829765Y-54063787D01*
X78256179Y-54637371D01*
X78256180Y-54637372D01*
X78305543Y-54673236D01*
X78305556Y-54673244D01*
X78491372Y-54767924D01*
X78689727Y-54832373D01*
X78895721Y-54865000D01*
X79104279Y-54865000D01*
X79310272Y-54832373D01*
X79508627Y-54767924D01*
X79694451Y-54673240D01*
X79743818Y-54637372D01*
X79743818Y-54637371D01*
X79170234Y-54063787D01*
X79212292Y-54052518D01*
X79337708Y-53980110D01*
X79440110Y-53877708D01*
X79512518Y-53752292D01*
X79523787Y-53710234D01*
X80097371Y-54283818D01*
X80097372Y-54283818D01*
X80133240Y-54234451D01*
X80227924Y-54048627D01*
X80292373Y-53850272D01*
X80325000Y-53644279D01*
X80325000Y-53435720D01*
X80292373Y-53229727D01*
X80227924Y-53031372D01*
X80133244Y-52845556D01*
X80133236Y-52845543D01*
X80097372Y-52796180D01*
X80097371Y-52796179D01*
X79523787Y-53369764D01*
X79512518Y-53327708D01*
X79440110Y-53202292D01*
X79337708Y-53099890D01*
X79212292Y-53027482D01*
X79170233Y-53016212D01*
X79743819Y-52442627D01*
X79694451Y-52406759D01*
X79508627Y-52312075D01*
X79310272Y-52247626D01*
X79104279Y-52215000D01*
X78895721Y-52215000D01*
X78689727Y-52247626D01*
X78491372Y-52312075D01*
X78305552Y-52406757D01*
X78256180Y-52442627D01*
X78829766Y-53016212D01*
X78787708Y-53027482D01*
X78662292Y-53099890D01*
X78559890Y-53202292D01*
X78487482Y-53327708D01*
X78476212Y-53369765D01*
X77902627Y-52796180D01*
X77866757Y-52845552D01*
X77772075Y-53031372D01*
X77707626Y-53229727D01*
X77675000Y-53435720D01*
X74500500Y-53435720D01*
X74500500Y-49899986D01*
X92600001Y-49899986D01*
X92610494Y-50002697D01*
X92665641Y-50169119D01*
X92665643Y-50169124D01*
X92757684Y-50318345D01*
X92881654Y-50442315D01*
X93030875Y-50534356D01*
X93030880Y-50534358D01*
X93197302Y-50589505D01*
X93197309Y-50589506D01*
X93300019Y-50599999D01*
X93749999Y-50599999D01*
X93750000Y-50599998D01*
X93750000Y-49775000D01*
X92600001Y-49775000D01*
X92600001Y-49899986D01*
X74500500Y-49899986D01*
X74500500Y-47587135D01*
X77674500Y-47587135D01*
X77674500Y-49332870D01*
X77674501Y-49332876D01*
X77680908Y-49392483D01*
X77731202Y-49527328D01*
X77731206Y-49527335D01*
X77817452Y-49642544D01*
X77817455Y-49642547D01*
X77932664Y-49728793D01*
X77932671Y-49728797D01*
X78067517Y-49779091D01*
X78067516Y-49779091D01*
X78074444Y-49779835D01*
X78127127Y-49785500D01*
X79872872Y-49785499D01*
X79932483Y-49779091D01*
X80067331Y-49728796D01*
X80182546Y-49642546D01*
X80268796Y-49527331D01*
X80319091Y-49392483D01*
X80325500Y-49332873D01*
X80325500Y-49150013D01*
X92600000Y-49150013D01*
X92600000Y-49275000D01*
X93750000Y-49275000D01*
X94250000Y-49275000D01*
X95399999Y-49275000D01*
X95399999Y-49150028D01*
X95399998Y-49150013D01*
X95389505Y-49047302D01*
X95334358Y-48880880D01*
X95334356Y-48880875D01*
X95242315Y-48731654D01*
X95118345Y-48607684D01*
X94969124Y-48515643D01*
X94969119Y-48515641D01*
X94802697Y-48460494D01*
X94802690Y-48460493D01*
X94699986Y-48450000D01*
X94250000Y-48450000D01*
X94250000Y-49275000D01*
X93750000Y-49275000D01*
X93750000Y-48450000D01*
X93300028Y-48450000D01*
X93300012Y-48450001D01*
X93197302Y-48460494D01*
X93030880Y-48515641D01*
X93030875Y-48515643D01*
X92881654Y-48607684D01*
X92757684Y-48731654D01*
X92665643Y-48880875D01*
X92665641Y-48880880D01*
X92610494Y-49047302D01*
X92610493Y-49047309D01*
X92600000Y-49150013D01*
X80325500Y-49150013D01*
X80325499Y-48450001D01*
X80325499Y-47587129D01*
X80325498Y-47587123D01*
X80325497Y-47587116D01*
X80319091Y-47527517D01*
X80314141Y-47514246D01*
X80268797Y-47392671D01*
X80268793Y-47392664D01*
X80182547Y-47277455D01*
X80182544Y-47277452D01*
X80112459Y-47224986D01*
X92800001Y-47224986D01*
X92810494Y-47327697D01*
X92865641Y-47494119D01*
X92865643Y-47494124D01*
X92957684Y-47643345D01*
X93081654Y-47767315D01*
X93230875Y-47859356D01*
X93230880Y-47859358D01*
X93397302Y-47914505D01*
X93397309Y-47914506D01*
X93500019Y-47924999D01*
X93749999Y-47924999D01*
X94250000Y-47924999D01*
X94499972Y-47924999D01*
X94499986Y-47924998D01*
X94602697Y-47914505D01*
X94769119Y-47859358D01*
X94769124Y-47859356D01*
X94918345Y-47767315D01*
X95042315Y-47643345D01*
X95134356Y-47494124D01*
X95134358Y-47494119D01*
X95189505Y-47327697D01*
X95189506Y-47327690D01*
X95199999Y-47224986D01*
X95200000Y-47224973D01*
X95200000Y-47162500D01*
X94250000Y-47162500D01*
X94250000Y-47924999D01*
X93749999Y-47924999D01*
X93750000Y-47924998D01*
X93750000Y-47162500D01*
X92800001Y-47162500D01*
X92800001Y-47224986D01*
X80112459Y-47224986D01*
X80092998Y-47210417D01*
X80092980Y-47210405D01*
X80067330Y-47191203D01*
X80067328Y-47191202D01*
X79932482Y-47140908D01*
X79932483Y-47140908D01*
X79872883Y-47134501D01*
X79872881Y-47134500D01*
X79872873Y-47134500D01*
X79872864Y-47134500D01*
X78127129Y-47134500D01*
X78127123Y-47134501D01*
X78067516Y-47140908D01*
X77932671Y-47191202D01*
X77932664Y-47191206D01*
X77817455Y-47277452D01*
X77817452Y-47277455D01*
X77731206Y-47392664D01*
X77731202Y-47392671D01*
X77680908Y-47527517D01*
X77674501Y-47587116D01*
X77674501Y-47587123D01*
X77674500Y-47587135D01*
X74500500Y-47587135D01*
X74500500Y-46258676D01*
X74520185Y-46191637D01*
X74536819Y-46170995D01*
X81170995Y-39536819D01*
X81232318Y-39503334D01*
X81258676Y-39500500D01*
X153741324Y-39500500D01*
X153808363Y-39520185D01*
G37*
%TD.AperFunction*%
%TD*%
M02*
